<svg id="Layer_1" data-name="Layer 1" xmlns="http://www.w3.org/2000/svg" xmlns:xlink="http://www.w3.org/1999/xlink" viewBox="0 0 475.92 303.33"><defs><style>.cls-1,.cls-17,.cls-24,.cls-3,.cls-33{fill:none;}.cls-2{fill:#995811;}.cls-3{stroke:#f9d8a4;stroke-linecap:round;stroke-linejoin:round;stroke-width:12px;}.cls-4{fill:#e0685f;}.cls-5{fill:#656572;}.cls-6{fill:#74cfd1;}.cls-7{fill:#231f20;}.cls-22,.cls-24,.cls-8{opacity:0.25;}.cls-9{fill:#9090a5;}.cls-10{fill:#6ec46e;}.cls-11{fill:#009129;}.cls-12{fill:#d84725;}.cls-13{fill:#282833;}.cls-14{fill:#f9d8a4;}.cls-15{fill:#494959;}.cls-16{fill:#fff;}.cls-17{stroke:#0d3b7f;}.cls-17,.cls-24,.cls-33,.cls-37{stroke-miterlimit:10;}.cls-18{fill:#542e33;}.cls-19{fill:#525263;}.cls-20{fill:#31313f;}.cls-21{fill:#777789;}.cls-22,.cls-23{fill:#b5b5c9;}.cls-24{stroke:#b5b5c9;}.cls-25{fill:#287846;}.cls-26{fill:#0c6b2c;}.cls-27{fill:url(#linear-gradient);}.cls-28,.cls-40{fill:#efa481;}.cls-29{fill:url(#linear-gradient-2);}.cls-30{fill:#f0f6f7;}.cls-31{clip-path:url(#clip-path);}.cls-32{fill:#bc7024;}.cls-33{stroke:#000;stroke-width:0.5px;}.cls-34{opacity:0.1;}.cls-35{fill:#ffce00;}.cls-36{fill:#ffda00;}.cls-37,.cls-38{fill:#414042;}.cls-37{stroke:#414042;}.cls-39{fill:#fcdfb6;}.cls-40{opacity:0.5;}</style><linearGradient id="linear-gradient" x1="122.81" y1="-385.33" x2="122.81" y2="-391.41" gradientTransform="translate(368.58 -296.67) rotate(180)" gradientUnits="userSpaceOnUse"><stop offset="0" stop-color="#efcaa0"/><stop offset="1" stop-color="#f9d8a4"/></linearGradient><linearGradient id="linear-gradient-2" x1="-240.84" y1="-15.44" x2="-235.58" y2="-20.71" gradientTransform="matrix(-1.33, 0.33, 0.33, -1.33, -41.44, 113.35)" gradientUnits="userSpaceOnUse"><stop offset="0" stop-color="#efa481"/><stop offset="1" stop-color="#f9d8a4"/></linearGradient><clipPath id="clip-path"><circle class="cls-1" cx="446.06" cy="118.49" r="15.79" transform="translate(46.87 350.13) rotate(-45)"/></clipPath></defs><title>Artboard 1</title><path class="cls-2" d="M274.15,26.76a27,27,0,0,0-23.06-16.05A25.81,25.81,0,0,0,227.33,24c-4.36,8.17-5.53,18,.31,25.65,1.29,1.69,4.6,1.42,4.45-1.21a56.75,56.75,0,0,1,0-6.23c2.26,4.73,8.43,6.66,12.52,2.56l.2-.22a7.77,7.77,0,0,0,7.14,1.9,6.64,6.64,0,0,0,2.55.68,7.16,7.16,0,0,0,1.44,1.09c0,2.92,2.59,23.88,5.37,25.45,6.33,3.58,8.21-13.86,9.83-17C275.34,48.38,278.23,36.33,274.15,26.76Z"/><line class="cls-3" x1="260.51" y1="200.8" x2="260.51" y2="288.13"/><path class="cls-4" d="M136.44,231.22a2.85,2.85,0,0,0-4.06,4c1.07,1.08,5.5,2,5.77,1.78S137.51,232.3,136.44,231.22Z"/><path class="cls-4" d="M142.91,229.2a2.85,2.85,0,0,0-5.44,1.72c.46,1.45,4,4.33,4.32,4.21S143.37,230.65,142.91,229.2Z"/><path class="cls-5" d="M163.26,220.13a2.75,2.75,0,0,0-2.56-1.66,2.85,2.85,0,0,0-1,.19,2.6,2.6,0,0,0-1.54,3.43c2.94,7.05,5.62,28.79-3.38,36.09-.57.46-1.22.76-1.51,1.41a2.52,2.52,0,0,0,0,2,2.74,2.74,0,0,0,2.56,1.66,2.44,2.44,0,0,0,1-.19C169.26,257.38,167.33,229.89,163.26,220.13Z"/><rect class="cls-6" x="139.37" y="84.04" width="93.17" height="58.04"/><path class="cls-7" d="M230.55,86v54.05H141.36V86h89.19m4-4H137.38v62h97.15V82Z"/><polygon class="cls-8" points="242.6 148.34 129.32 148.34 137.38 144.07 234.53 144.07 242.6 148.34"/><rect class="cls-7" x="129.32" y="148.33" width="113.28" height="3.7"/><polygon class="cls-9" points="144.32 239.6 139.24 239.92 135.66 255.4 146.91 256.93 144.32 239.6"/><polygon class="cls-10" points="251.51 134.28 466.01 134.28 466.01 166.14 129.32 194.49 129.32 152.03 251.51 152.03 251.51 134.28"/><polygon class="cls-11" points="0.01 187.09 139.09 204.04 139.09 169.9 74.92 169.9 0.01 169.9 0.01 187.09"/><path class="cls-12" d="M255.58,289.08A13.43,13.43,0,0,1,269,302.47h-27C242.1,298,250.11,289.08,255.58,289.08Z"/><polygon class="cls-12" points="255.81 289.08 266.81 289.08 269.29 302.47 255.81 302.47 255.81 289.08"/><path class="cls-13" d="M216,187.39c12.33,8.84,48.85,11.21,62.58,2.38a119.26,119.26,0,0,1-5.67-16.14H219.42Q218,180.49,216,187.39Z"/><path class="cls-14" d="M244.67,88.77c13.26.11,20.84,2.35,24,7.08,3.2,5.09,2.38,9.95,1,18-1.57,12.94-5.94,25.54-4.66,37.77,1.33,12.73,8.44,25.06,13.61,36.92-13.73,8.83-50.25,6.45-62.58-2.38,3.52-12,7.47-24.39,10.72-35.74,2.36-8.26,3.47-19.85-1.25-28-2.19-9.87,1-22.67,6-30.35C237.09,89.38,240.75,88.78,244.67,88.77Z"/><polygon class="cls-12" points="249.29 296.57 265.57 296.57 261.93 293.22 254.01 289.17 249.29 296.57"/><line class="cls-3" x1="228.51" y1="200.8" x2="228.51" y2="288.13"/><path class="cls-12" d="M223.58,289.08A13.43,13.43,0,0,1,237,302.47h-27C210.1,298,218.11,289.08,223.58,289.08Z"/><polygon class="cls-12" points="223.81 289.08 234.81 289.08 237.28 302.47 223.81 302.47 223.81 289.08"/><polygon class="cls-12" points="217.29 296.57 233.57 296.57 229.93 293.22 222.01 289.17 217.29 296.57"/><path class="cls-15" d="M129.51,268.57c0,7.83,4,14.37,11.71,16l2.29,11.79a7.16,7.16,0,0,0-3.78,6.24h5.84a3.72,3.72,0,0,0,3.81-3.63l-2.29-30.43Z"/><path class="cls-15" d="M100.58,267.48c-2.1,0-2.06,1.62-2.06,3.63v25.27a7.17,7.17,0,0,0-3.79,6.24h5.85A3.72,3.72,0,0,0,104.4,299l3.05-27.9C107.45,269.1,102.69,267.48,100.58,267.48Z"/><path class="cls-5" d="M124.45,265.45c0-8.54-7.29-15.47-16.27-15.47h0c-9,0-16.27,6.92-16.27,15.47h0c0,8.54,7.29,15.47,16.27,15.47h0c9,0,16.27-6.93,16.27-15.47Z"/><path class="cls-5" d="M158.89,268.37c-.29-3.13-1.09-11.53-1.09-11.53L107.35,252l3.81,28.65,36.34-1.53a8.47,8.47,0,0,0,7.63,5.46l2.29,11.79a7.16,7.16,0,0,0-3.78,6.24h5.84A3.72,3.72,0,0,0,163.3,299l-1.79-25.18A10,10,0,0,1,158.89,268.37Z"/><path class="cls-5" d="M92.48,259.09c8.76-6.23-.54-13.51-1.57-14.93l-5.41,3.51C86.52,249.1,93.78,253,92.48,259.09Z"/><path class="cls-5" d="M89.4,246.17a3,3,0,0,0,.85-4.33l-5.41,3.51A3.39,3.39,0,0,0,89.4,246.17Z"/><path class="cls-5" d="M119,253.71c-1.49-1,1.11-6.37,2.13-7.79l5.41,3.51C125.47,250.85,121.41,251.62,119,253.71Z"/><path class="cls-5" d="M122.6,247.93a3,3,0,0,1-.85-4.33l5.41,3.51A3.39,3.39,0,0,1,122.6,247.93Z"/><path class="cls-5" d="M123.26,245.61c-1.5-1-.46-6.93,0-5.17.8,3.2,4.58,4.35,4.58,4.35A3.39,3.39,0,0,1,123.26,245.61Z"/><polygon class="cls-5" points="143.46 268.57 91.87 265.79 93.84 252.01 143.46 263.74 143.46 268.57"/><path class="cls-5" d="M110.35,302.62a7.17,7.17,0,0,1,3.79-6.24V271.1c0-2-.05-3.63,2.05-3.63s6.87,1.62,6.87,3.63L120,299a3.72,3.72,0,0,1-3.81,3.63h-5.85Z"/><polygon class="cls-11" points="328.03 257.28 476.01 233.18 476.01 206.47 328.03 206.47 328.03 257.28"/><path class="cls-5" d="M89.37,241.59c1.09-8.11,8.48-13.74,15.13-13.75,14.13,0,18.25,7.5,19.34,15.62s-7.55,13.9-19.34,13.9C105.69,257.36,87.55,255.07,89.37,241.59Z"/><path class="cls-16" d="M103.8,251.66a4.45,4.45,0,0,0,3.67-5.21l-9.15,1.73A4.66,4.66,0,0,0,103.8,251.66Z"/><ellipse cx="109.53" cy="239.8" rx="1.83" ry="1.74"/><path class="cls-4" d="M97.33,243.5c.09-.76.84-.91,1.67-.91s1.58.15,1.67.91S99.73,245,99,245,97.24,244.26,97.33,243.5Z"/><ellipse class="cls-9" cx="141.16" cy="237.77" rx="4.55" ry="4.35"/><polygon class="cls-9" points="148.31 240.05 143.25 241.2 144.35 234.67 148.91 238.61 148.31 240.05"/><path d="M143.2,237.47a.81.81,0,0,1-.93-.64.78.78,0,0,1,.68-.88.8.8,0,0,1,.92.64A.78.78,0,0,1,143.2,237.47Z"/><path d="M140.27,236.65a.77.77,0,1,1-.81.77A.8.8,0,0,1,140.27,236.65Z"/><path class="cls-9" d="M135.29,252.9a4.39,4.39,0,0,1-3-1.14c-1.65-1.52-2-4.11-.86-7.11,1-2.64,1.16-4.25.56-5.05s-1.74-1.43-4.1-1.43v-.34c2.07,0,3.89.18,4.83,1.46.58.79.71,2.71-.41,5.74-1,2.57-.52,4.73.79,5.93a3.42,3.42,0,0,0,3.56.56l.43,1A5.06,5.06,0,0,1,135.29,252.9Z"/><circle class="cls-16" cx="238.69" cy="88.7" r="2.7"/><circle class="cls-16" cx="252.94" cy="88.76" r="2.7"/><path class="cls-17" d="M248.88,137.51c-10.12-4.25-16.75-4.12-20.37-3.87"/><polygon class="cls-18" points="368.72 61.91 362.14 61.91 363.96 39.15 370.55 39.15 368.72 61.91"/><polygon class="cls-18" points="384.68 134.28 391.26 134.28 368.5 61.91 361.92 61.91 384.68 134.28"/><polygon class="cls-2" points="346.54 134.28 339.95 134.28 354.07 67.69 360.65 67.69 346.54 134.28"/><polygon class="cls-2" points="372.73 134.28 379.31 134.28 375.87 67.69 369.29 67.69 372.73 134.28"/><polygon class="cls-16" points="383.13 92.13 342.89 92.13 346.36 48.81 386.6 48.81 383.13 92.13"/><polygon class="cls-18" points="382.72 97.23 342.48 97.23 342.94 91.48 383.18 91.48 382.72 97.23"/><polygon class="cls-2" points="373.01 46.58 359.08 46.58 358.8 49.39 372.72 49.39 373.01 46.58"/><rect class="cls-7" x="151.36" y="96.03" width="33.23" height="3.02"/><rect class="cls-7" x="151.36" y="101.03" width="38.06" height="3.02"/><rect class="cls-7" x="151.36" y="106.03" width="24.98" height="3.02"/><rect class="cls-7" x="151.36" y="111.03" width="15.48" height="3.02"/><path class="cls-19" d="M430.17,196.47a10,10,0,0,1-10,10H375.11a10,10,0,0,1-10-10h0a10,10,0,0,1,10-10h45.06a10,10,0,0,1,10,10Z"/><path class="cls-20" d="M385.11,204.47a8,8,0,0,1,0-16h45.06a8,8,0,0,1,0,16Z"/><path class="cls-21" d="M430.17,190.47a6,6,0,1,1,0,12H385.11a6,6,0,0,1,0-12h45.06m0-4H385.11a10,10,0,0,0,0,20h45.06a10,10,0,1,0,0-20Z"/><path class="cls-19" d="M443.14,206.26V169.63A28.54,28.54,0,0,0,414.6,141.1h0a28.54,28.54,0,0,0-28.54,28.54v36.63Z"/><path class="cls-22" d="M422.1,142.1a28.54,28.54,0,0,0-36,27.53v36.63h15V169.63A28.54,28.54,0,0,1,422.1,142.1Z"/><path class="cls-19" d="M454.87,196.47a10,10,0,0,1-10,10H399.8a10,10,0,0,1-10-10h0a10,10,0,0,1,10-10h45.06a10,10,0,0,1,10,10Z"/><path class="cls-20" d="M409.8,204.47a8,8,0,0,1,0-16h45.06a8,8,0,0,1,0,16Z"/><path class="cls-21" d="M454.87,190.47a6,6,0,0,1,0,12H409.8a6,6,0,0,1,0-12h45.06m0-4H409.8a10,10,0,0,0,0,20h45.06a10,10,0,0,0,0-20Z"/><path class="cls-23" d="M396.28,163.64a2.67,2.67,0,0,0-2.67-2.67h0a2.67,2.67,0,0,0-2.67,2.67h0a2.67,2.67,0,0,0,2.67,2.67h0a2.67,2.67,0,0,0,2.67-2.67Z"/><path class="cls-23" d="M418,163.64a2.67,2.67,0,0,0-2.67-2.67h0a2.67,2.67,0,0,0-2.67,2.67h0a2.67,2.67,0,0,0,2.67,2.67h0a2.67,2.67,0,0,0,2.67-2.67Z"/><polygon class="cls-23" points="415.62 123.06 413.59 123.06 412.59 141.89 416.62 141.89 415.62 123.06"/><circle class="cls-23" cx="414.6" cy="123.06" r="2.85"/><line class="cls-24" x1="389.8" y1="196.47" x2="399.8" y2="196.47"/><line class="cls-24" x1="390.8" y1="191.47" x2="400.8" y2="191.47"/><line class="cls-24" x1="390.8" y1="201.47" x2="400.8" y2="201.47"/><line class="cls-24" x1="365.24" y1="196.47" x2="375.24" y2="196.47"/><line class="cls-24" x1="366.24" y1="191.47" x2="376.24" y2="191.47"/><line class="cls-24" x1="366.24" y1="201.47" x2="376.24" y2="201.47"/><polygon class="cls-25" points="360.35 67 360.35 67 354.55 80.85 363.2 80.85 360.35 67"/><polygon class="cls-26" points="367.77 62.65 367.77 62.65 360.15 80.85 371.51 80.85 367.77 62.65"/><path class="cls-27" d="M238.61,81.8a7.14,7.14,0,0,1,7.16-7.11h0a7.13,7.13,0,0,1,7.16,7.11s-1,1-1,7.46c0,3.79-2.2,6.11-6.16,6.11h0c-4,0-6.16-2.31-6.16-6.11C239.61,82.8,238.61,81.8,238.61,81.8Z"/><path class="cls-14" d="M250.35,29.59c6.71,11,11.75,22,14,33.05-2.88,12.71-6.25,23-19.71,23S225,71.87,225,60.44s1.52-19.83,7.17-30.85Z"/><path class="cls-28" d="M235.55,61.4a1.93,1.93,0,0,0,.7.11c3.3-.11,5.18-4.3,5.11-6.35a1.21,1.21,0,0,0-2.41.08c0,.72-1.66,2.39-2.83,2.43a1.92,1.92,0,0,0-.57,3.73Z"/><path class="cls-14" d="M261.49,58.5a4.49,4.49,0,0,0,0,6.38h0a4.56,4.56,0,0,0,6.42,0l5.37-5.33a4.49,4.49,0,0,0,0-6.38h0a4.56,4.56,0,0,0-6.42,0Z"/><path class="cls-29" d="M261,62.63c-2.08,2.07-2.76,4.77-1.5,6h0c1.26,1.25,4,.58,6.06-1.49l6.32-6.28c2.09-2.07,2.76-4.77,1.5-6h0c-1.26-1.25-4-.59-6.06,1.49Z"/><ellipse cx="234.42" cy="52.46" rx="2.04" ry="2.02"/><ellipse cx="252.82" cy="52.46" rx="2.04" ry="2.02"/><circle class="cls-7" cx="266.01" cy="63.51" r="2.25"/><path class="cls-2" d="M227.09,35.8c3.69,3.81,15.69,10,27.94,10.77-4.35-2.69-10.71-11-11.52-12.85,0,0,8,7.92,16.83,12.42l-8.33-20-22.5,1L227,36.3Z"/><circle class="cls-16" cx="239.32" cy="93.15" r="2.7"/><circle class="cls-16" cx="245.38" cy="94.95" r="2.7"/><circle class="cls-16" cx="251.63" cy="93.07" r="2.7"/><path class="cls-12" d="M21.12,169.9l9-47.58h9.12l9.05,47.58H40.07l-1.47-8.7H30.11l-1.4,8.7Zm10-15.09h6.39l-3.16-19.09h-.07Z"/><path class="cls-6" d="M50.55,122.32h7.72v11.86h.14A9.17,9.17,0,0,1,60.69,131a6.72,6.72,0,0,1,4.74-1.47A6.76,6.76,0,0,1,71,131.93q1.93,2.39,1.93,7.65v20.84q0,5.26-2.11,7.65a7.28,7.28,0,0,1-5.75,2.39,8.17,8.17,0,0,1-2.7-.39A5.73,5.73,0,0,1,60.51,169a6.22,6.22,0,0,1-1.26-1.47,12,12,0,0,1-.84-1.65h-.14v4H50.55ZM65.22,140a5.43,5.43,0,0,0-.7-2.92,3,3,0,0,0-2.74-1.12,3.23,3.23,0,0,0-2.63,1,4.21,4.21,0,0,0-.88,2.58v21.11a4.06,4.06,0,0,0,.88,2.54,3.29,3.29,0,0,0,2.63.94A3,3,0,0,0,64.51,163a5.43,5.43,0,0,0,.7-2.93Z"/><path class="cls-20" d="M98.41,150.66l1.4,4.49q1.61,5.16,0,8.88t-7.05,5.43a13.44,13.44,0,0,1-5.09.67,9.18,9.18,0,0,1-4.16-1.31,10.65,10.65,0,0,1-3.15-3,16.07,16.07,0,0,1-2.12-4.45l-5-16a13.11,13.11,0,0,1,.08-9.18q1.69-4,7.25-5.75t8.88.43q3.39,2.14,5,7.3l.86,2.75-7.1,2.21-1.07-3.42a5.69,5.69,0,0,0-1.73-2.84,3,3,0,0,0-2.93-.33,3.25,3.25,0,0,0-2.35,2,5.5,5.5,0,0,0,.13,3.38L86,160.18A5.2,5.2,0,0,0,87.89,163a3.36,3.36,0,0,0,3.08.33,3.2,3.2,0,0,0,2.33-2,5.65,5.65,0,0,0-.18-3.4l-1.61-5.16Z"/><circle class="cls-30" cx="446.06" cy="118.49" r="15.79" transform="translate(46.87 350.13) rotate(-45)"/><g class="cls-31"><polygon class="cls-20" points="442.23 105.14 445.49 98.74 452.58 99.86 453.71 106.96 447.31 110.22 442.23 105.14"/><polygon class="cls-20" points="454.33 117.24 457.59 110.84 464.69 111.97 465.81 119.06 459.41 122.32 454.33 117.24"/><polygon class="cls-20" points="426.96 112.87 430.22 106.47 437.32 107.59 438.44 114.69 432.04 117.95 426.96 112.87"/><polygon class="cls-20" points="446.6 132.51 449.86 126.11 456.96 127.23 458.08 134.32 451.68 137.59 446.6 132.51"/><polygon class="cls-20" points="452.21 117.42 448.94 123.82 441.85 122.7 440.73 115.6 447.13 112.34 452.21 117.42"/><polygon class="cls-20" points="429.69 129.79 432.95 123.39 440.04 124.51 441.16 131.6 434.76 134.87 429.69 129.79"/></g><path class="cls-32" d="M227.15,29.32c1.63,5.94,10.75,13.06,24.69,15.81C244.34,41.13,233.72,35.07,227.15,29.32Z"/><path class="cls-5" d="M109.15,230c2.29-3.84,8.21-8.48,11.91-8.63.48,5.78-1.53,10.84.15,14.21"/><path class="cls-5" d="M104.48,231.63a22.19,22.19,0,0,0-3.32-12.44C97,222,94,230.74,90.76,236.41S84.18,243,84.18,243a3.39,3.39,0,0,0,4.56.82"/><ellipse cx="148.66" cy="239.37" rx="1.09" ry="1.05"/><path class="cls-33" d="M99.37,262.32c-2.07,5.05.34,7.91,1.72,9.12,1.26-1.54,2.41-3.08,2.41-3.08s.46,2.31,4.36,3.19"/><path class="cls-34" d="M457.23,107.32a15.72,15.72,0,0,0-6.68-4A14,14,0,1,1,432,124.18a14,14,0,0,1-1.07-1.21,15.79,15.79,0,1,0,26.31-15.65Z"/><path d="M96.68,240.36a1.81,1.81,0,0,0,2.09-1.44,1.76,1.76,0,0,0-1.52-2,1.81,1.81,0,0,0-2.09,1.44A1.76,1.76,0,0,0,96.68,240.36Z"/><path class="cls-14" d="M218.5,158.63a4.48,4.48,0,0,1-2.83-1c-14.24-11.57-20.55-23.19-18.75-34.52,3-19.11,28.31-29,29.39-29.44a4.5,4.5,0,0,1,3.23,8.4c-.3.12-21.53,8.51-23.73,22.47-1.25,7.93,4,16.71,15.54,26.1a4.5,4.5,0,0,1-2.84,8Z"/><path class="cls-14" d="M285.23,197.36a4.56,4.56,0,0,1-.79-.07,4.5,4.5,0,0,1-3.64-5.22c3.44-19.38,5.48-47.51-4.28-71.4-5.79-14.17-13.12-20.23-13.19-20.29a4.5,4.5,0,0,1,5.61-7c1.38,1.09,33.62,27.6,20.73,100.3A4.5,4.5,0,0,1,285.23,197.36Z"/><path class="cls-12" d="M265.51,145.66s-37.5-1.89-38.63-1.46c0,0-22.62,20.53-21.87,73.52l.17,0-.17.2s38.83,11.25,78.5,1C283.51,218.88,286.26,159.78,265.51,145.66Z"/><path class="cls-12" d="M231.53,92s-2.53,14.27,11,16.1S261.34,94.63,261.34,91c0,0,4.08-.42,5.92,1.42a34.81,34.81,0,0,0,.92,32.58s-5.17,19.83-2.83,27c0,0-21.5,3.83-38.17-.67,0,0,2.31-19.93-2.29-26.42-6.12-8.62,2.5-31.63,2.5-31.63Z"/><path class="cls-7" d="M265.34,142s-15.5,2.25-38.17-.67l-.29,3.46A84.72,84.72,0,0,0,265.51,146S265.92,142,265.34,142Z"/><path class="cls-16" d="M244,74.66a6.14,6.14,0,0,1-7.08-5l12.08-2A6.08,6.08,0,0,1,244,74.66Z"/><path class="cls-35" d="M314.7,158.1l1.06-1.81-14.24-8.37-14.24-8.38-1.06,1.8a9.6,9.6,0,0,1,3,10.11s.07,1.14-1.73,6.21c-2.69,7.6-1.82,17,1.09,27.11,3.3,11.42,4.57,14.42,6,18.93s-.47,3-1.29.41l-12.63,7.83c3.14,11.76,10.92,16.67,17.49,14.6s12.25-9.67,9-20.1-12.17-34.12-2.58-45.92A9.48,9.48,0,0,1,314.7,158.1Z"/><path class="cls-36" d="M234.95,106.09l9.5,4.39c5,2.31,10.29,8.53,11.77,13.83l21.7,78c1.49,5.29,5.55,7.86,9,5.71s4.72-8.12,2.77-13.26l-28.3-74.93c-2-5.14-7.75-11-12.88-12.94l-11.3-4.35"/><path class="cls-35" d="M253.52,114.68c2.16,8.67,24,85.5,27.11,97.25l12.63-7.83c-.82-2.57-25.66-67.58-29.71-78.55"/><polyline class="cls-37" points="247.84 106.62 237.23 102.53 234.95 106.09 244.99 110.73"/><circle class="cls-38" cx="274.05" cy="165.2" r="1.8" transform="translate(-37 90.09) rotate(-17.51)"/><circle class="cls-38" cx="277.3" cy="175.5" r="1.8" transform="translate(-39.92 91.41) rotate(-17.48)"/><circle class="cls-38" cx="280.55" cy="185.81" r="1.8" transform="translate(-42.84 92.8) rotate(-17.47)"/><circle class="cls-38" cx="283.79" cy="196.12" r="1.8" transform="translate(-45.82 94.36) rotate(-17.49)"/><circle class="cls-38" cx="287.04" cy="206.42" r="1.8" transform="translate(-48.71 95.63) rotate(-17.46)"/><path class="cls-16" d="M295.3,206.21c-1.46-4.62-2.78-7.71-6.14-19.4-3-10.3-3.73-19.9-.67-27.5,2-5.07,2-6.22,2-6.22a9.42,9.42,0,0,0-3-10.35l1.19-1.79-1.89-1.12-1.19,1.79a9.41,9.41,0,0,1,3,10.35s.05,1.15-2,6.22c-3.06,7.59-2.29,17.2.67,27.5,3.36,11.69,4.68,14.78,6.14,19.4a14.54,14.54,0,0,1,.41,1.53l.08,0C294.73,209.22,296.76,210.83,295.3,206.21Z"/><path class="cls-39" d="M289.5,193.83c-.2,1.23-.45,7-.68,8.31a4.5,4.5,0,0,1-4.43,3.71,4.56,4.56,0,0,1-.79-.07,4.5,4.5,0,0,1-3.64-5.22c1.09-6.14,2.39-16.76,2.87-24.24Z"/><path class="cls-2" d="M259.84,18.8S264.31-5,289.51,1.47c17,4.33,11.33,29.33,15,35,0,0-5-5.67-5-8s6.33,21,1.67,42.33.33,24.67,3.67,26.67c0,0-17-1.33-20-19.33l-2,3.33s-9-20-5-41.67-11-25.67-15-20.67Z"/><ellipse class="cls-40" cx="255.93" cy="58.41" rx="4.88" ry="3.23"/><ellipse class="cls-40" cx="229.42" cy="57.39" rx="3.92" ry="2.59"/></svg>