<?xml version="1.0" encoding="utf-8"?>
<!-- Generator: Adobe Illustrator 16.0.0, SVG Export Plug-In . SVG Version: 6.00 Build 0)  -->
<!DOCTYPE svg PUBLIC "-//W3C//DTD SVG 1.1//EN" "http://www.w3.org/Graphics/SVG/1.1/DTD/svg11.dtd">
<svg version="1.1" id="Layer_1" xmlns="http://www.w3.org/2000/svg" xmlns:xlink="http://www.w3.org/1999/xlink" x="0px" y="0px"
	 width="516px" height="299px" viewBox="0 0 516 299" enable-background="new 0 0 516 299" xml:space="preserve">
<g>
	<g>
		<path fill="#1F3B68" d="M238.034,77.013c0.659,0.753,1.795,0.822,2.537,0.153c0.742-0.669,0.81-1.822,0.151-2.576L238.034,77.013z
			"/>
		<g>
			<rect x="65.459" y="73.763" fill="#E2DFCF" width="93.411" height="39.519"/>
			<rect x="104.779" y="102.622" fill="#54261E" width="5.433" height="10.661"/>
			<rect x="114.12" y="102.622" fill="#54261E" width="5.43" height="10.661"/>
			<rect x="76.756" y="89.842" fill="#6D9ACC" width="5.429" height="7.478"/>
			<rect x="76.756" y="97.32" fill="#3A2729" width="5.429" height="3.182"/>
			<path fill="none" d="M79.471,97.32"/>
			<path fill="none" d="M79.471,89.842"/>
			<rect x="76.756" y="102.622" fill="#6D9ACC" width="5.429" height="7.479"/>
			<rect x="76.756" y="110.102" fill="#3A2729" width="5.429" height="3.18"/>
			<rect x="86.097" y="89.842" fill="#6D9ACC" width="5.429" height="7.478"/>
			<rect x="86.097" y="97.32" fill="#3A2729" width="5.429" height="3.182"/>
			<rect x="86.097" y="102.622" fill="#6D9ACC" width="5.429" height="7.479"/>
			<rect x="86.097" y="110.102" fill="#3A2729" width="5.429" height="3.18"/>
			<rect x="95.438" y="89.842" fill="#6D9ACC" width="5.433" height="7.478"/>
			<rect x="95.438" y="97.32" fill="#3A2729" width="5.433" height="3.182"/>
			<rect x="104.779" y="89.842" fill="#6D9ACC" width="5.433" height="7.478"/>
			<rect x="104.779" y="97.32" fill="#3A2729" width="5.433" height="3.182"/>
			<rect x="114.12" y="89.842" fill="#6D9ACC" width="5.43" height="7.478"/>
			<rect x="114.12" y="97.32" fill="#3A2729" width="5.43" height="3.182"/>
			<rect x="95.438" y="102.622" fill="#6D9ACC" width="5.433" height="7.479"/>
			<rect x="95.438" y="110.102" fill="#3A2729" width="5.433" height="3.18"/>
			<rect x="123.461" y="89.842" fill="#6D9ACC" width="5.429" height="7.478"/>
			<rect x="123.461" y="97.32" fill="#3A2729" width="5.429" height="3.182"/>
			<rect x="123.461" y="102.622" fill="#6D9ACC" width="5.429" height="7.479"/>
			<rect x="123.461" y="110.102" fill="#3A2729" width="5.429" height="3.18"/>
			<rect x="132.802" y="89.842" fill="#6D9ACC" width="5.43" height="7.478"/>
			<rect x="132.802" y="97.32" fill="#3A2729" width="5.43" height="3.182"/>
			<rect x="132.802" y="102.622" fill="#6D9ACC" width="5.43" height="7.479"/>
			<rect x="132.802" y="110.102" fill="#3A2729" width="5.43" height="3.18"/>
			<rect x="142.144" y="89.842" fill="#6D9ACC" width="5.434" height="7.478"/>
			<rect x="142.144" y="97.32" fill="#3A2729" width="5.434" height="3.182"/>
			<rect x="76.756" y="77.061" fill="#6D9ACC" width="5.429" height="7.479"/>
			<rect x="76.756" y="84.54" fill="#3A2729" width="5.429" height="3.181"/>
			<rect x="86.097" y="77.061" fill="#6D9ACC" width="5.429" height="7.479"/>
			<rect x="86.097" y="84.54" fill="#3A2729" width="5.429" height="3.181"/>
			<rect x="95.438" y="77.061" fill="#6D9ACC" width="5.433" height="7.479"/>
			<rect x="95.438" y="84.54" fill="#3A2729" width="5.433" height="3.181"/>
			<rect x="104.779" y="77.061" fill="#6D9ACC" width="5.433" height="7.479"/>
			<rect x="104.779" y="84.54" fill="#3A2729" width="5.433" height="3.181"/>
			<rect x="114.12" y="77.061" fill="#6D9ACC" width="5.43" height="7.479"/>
			<rect x="114.12" y="84.54" fill="#3A2729" width="5.43" height="3.181"/>
			<rect x="123.461" y="77.061" fill="#6D9ACC" width="5.429" height="7.479"/>
			<rect x="123.461" y="84.54" fill="#3A2729" width="5.429" height="3.181"/>
			<rect x="132.802" y="77.061" fill="#6D9ACC" width="5.43" height="7.479"/>
			<rect x="132.802" y="84.54" fill="#3A2729" width="5.43" height="3.181"/>
			<rect x="142.144" y="77.061" fill="#6D9ACC" width="5.434" height="7.479"/>
			<rect x="142.144" y="84.54" fill="#3A2729" width="5.434" height="3.181"/>
			<rect x="142.144" y="102.622" fill="#6D9ACC" width="5.434" height="7.479"/>
			<rect x="142.144" y="110.102" fill="#3A2729" width="5.434" height="3.18"/>
			<g opacity="0.5">
				<rect x="65.459" y="87.721" fill="#B2AC8A" width="93.411" height="2.123"/>
			</g>
			<g opacity="0.5">
				<rect x="65.459" y="100.5" fill="#B2AC8A" width="93.411" height="2.122"/>
			</g>
			<polyline fill="#753A2E" points="120.659,102.622 121.593,103.562 121.593,104.976 102.735,104.976 102.735,103.562 
				103.669,102.622 			"/>
			<rect x="104.779" y="110.454" fill="#8C5249" width="14.771" height="2.827"/>
			<rect x="104.779" y="111.396" fill="#753A2E" width="14.771" height="1.884"/>
			<rect x="104.779" y="112.337" fill="#54261E" width="14.771" height="0.943"/>
			<rect x="102.735" y="103.562" fill="#54261E" width="18.857" height="1.415"/>
			<polyline opacity="0.2" enable-background="new    " points="121.593,104.976 124.825,113.28 104.779,113.28 104.779,104.976 			
				"/>
		</g>
		<g>
			<rect x="246.842" y="94.748" fill="#E2DFCF" width="98.913" height="47.037"/>
			<rect x="249.165" y="101.366" fill="#6D9ACC" width="9.481" height="9.569"/>
			<rect x="249.165" y="115.619" fill="#6D9ACC" width="9.481" height="9.571"/>
			<rect x="249.165" y="129.876" fill="#6D9ACC" width="9.481" height="9.566"/>
			<rect x="263.295" y="101.366" fill="#6D9ACC" width="9.48" height="9.569"/>
			<rect x="263.295" y="115.619" fill="#6D9ACC" width="9.48" height="9.571"/>
			<rect x="263.295" y="129.876" fill="#6D9ACC" width="9.48" height="9.566"/>
			<rect x="277.425" y="101.366" fill="#6D9ACC" width="9.485" height="4.786"/>
			<rect x="277.425" y="115.619" fill="#6D9ACC" width="9.485" height="4.786"/>
			<rect x="291.557" y="101.366" fill="#6D9ACC" width="9.484" height="9.569"/>
			<rect x="291.557" y="115.619" fill="#6D9ACC" width="9.484" height="9.571"/>
			<rect x="305.688" y="101.366" fill="#6D9ACC" width="9.484" height="4.786"/>
			<rect x="305.688" y="115.619" fill="#6D9ACC" width="9.484" height="4.786"/>
			<rect x="258.65" y="101.366" fill="#F7D50F" width="4.646" height="9.569"/>
			<rect x="258.65" y="115.619" fill="#F7D50F" width="4.646" height="9.571"/>
			<rect x="258.65" y="129.876" fill="#F7D50F" width="4.646" height="9.566"/>
			<rect x="319.816" y="101.366" fill="#6D9ACC" width="9.486" height="9.569"/>
			<rect x="319.816" y="115.619" fill="#6D9ACC" width="9.486" height="9.571"/>
			<rect x="319.816" y="129.876" fill="#6D9ACC" width="9.486" height="9.566"/>
			<rect x="333.947" y="101.366" fill="#6D9ACC" width="9.485" height="9.569"/>
			<rect x="333.947" y="115.619" fill="#6D9ACC" width="9.485" height="9.571"/>
			<rect x="333.947" y="129.876" fill="#6D9ACC" width="9.485" height="9.566"/>
			<rect x="329.304" y="101.366" fill="#F7D50F" width="4.645" height="9.569"/>
			<rect x="329.304" y="115.619" fill="#F7D50F" width="4.645" height="9.571"/>
			<rect x="329.304" y="129.876" fill="#F7D50F" width="4.645" height="9.566"/>
			
				<line fill="none" stroke="#C4BFA9" stroke-width="0.7111" stroke-miterlimit="10" x1="246.842" y1="113.278" x2="345.755" y2="113.278"/>
			
				<line fill="none" stroke="#C4BFA9" stroke-width="0.7111" stroke-miterlimit="10" x1="246.842" y1="127.532" x2="345.755" y2="127.532"/>
			
				<line fill="none" stroke="#C4BFA9" stroke-width="0.7111" stroke-miterlimit="10" x1="246.842" y1="99.023" x2="345.755" y2="99.023"/>
			
				<line fill="none" stroke="#C4BFA9" stroke-width="0.7111" stroke-miterlimit="10" x1="275.104" y1="99.023" x2="275.104" y2="127.532"/>
			
				<line fill="none" stroke="#C4BFA9" stroke-width="0.7111" stroke-miterlimit="10" x1="289.232" y1="99.023" x2="289.232" y2="127.532"/>
			
				<line fill="none" stroke="#C4BFA9" stroke-width="0.7111" stroke-miterlimit="10" x1="303.364" y1="99.023" x2="303.364" y2="127.532"/>
			
				<line fill="none" stroke="#C4BFA9" stroke-width="0.7111" stroke-miterlimit="10" x1="317.492" y1="99.023" x2="317.492" y2="127.532"/>
			<rect x="273.688" y="128.839" fill="#231F20" width="45.219" height="12.947"/>
			<g>
				<path fill="#EDEBE4" d="M305.688,127.071h-0.91h-13.221h-0.908h-15.545v4.556h3.483c0.853-1.051,2.131-1.734,3.582-1.734
					c1.449,0,2.729,0.684,3.579,1.734h4.896h0.908h1.162c0.85-1.051,2.13-1.734,3.579-1.734c1.451,0,2.729,0.684,3.579,1.734h4.896
					h0.91h1.161c0.853-1.051,2.13-1.734,3.58-1.734s2.729,0.684,3.58,1.734h3.48v-4.556H305.688L305.688,127.071z"/>
				<rect x="316.079" y="127.071" fill="#F4F2E9" width="3.733" height="14.714"/>
				<rect x="272.779" y="127.071" fill="#F4F2E9" width="3.736" height="14.714"/>
				<rect x="287.82" y="127.071" fill="#F4F2E9" width="2.826" height="14.714"/>
				<rect x="301.948" y="127.071" fill="#F4F2E9" width="2.825" height="14.714"/>
			</g>
			
				<line fill="none" stroke="#C4BFA9" stroke-width="0.7111" stroke-miterlimit="10" x1="246.842" y1="113.278" x2="345.755" y2="113.278"/>
			<polygon opacity="0.25" enable-background="new    " points="328.104,141.785 319.816,141.785 319.816,127.071 321.345,127.071 
							"/>
		</g>
		<polygon fill="#287846" points="224.495,113.28 31.396,113.28 31.396,151.73 346.692,180.528 346.692,141.469 224.495,141.469 		
			"/>
		<g>
			<path fill="#BC0C0C" d="M212.856,280.662c-10.023,0-18.15,8.199-18.15,18.314h36.309
				C231.011,288.861,222.884,280.662,212.856,280.662z"/>
			<polygon fill="#BC0C0C" points="212.543,280.662 197.724,280.662 194.389,298.979 212.543,298.979 			"/>
		</g>
		<g>
			<path fill="#BC0C0C" d="M255.767,280.662c-10.028,0-18.157,8.199-18.157,18.314h36.312
				C273.919,288.861,265.793,280.662,255.767,280.662z"/>
			<polygon fill="#BC0C0C" points="255.453,280.662 240.631,280.662 237.297,298.979 255.453,298.979 			"/>
		</g>
		<g>
			<path fill="#F9D8A4" d="M214.584,284.528l-14.924-1.829c5-41.491,7.181-59.515,0.217-80.356
				c-2.317-6.933-1.528-12.884-0.896-17.666c0.261-1.937,0.5-3.766,0.5-5.397h15.033c0,2.644-0.321,5.066-0.631,7.407
				c-0.536,4.038-0.959,7.229,0.238,10.811C222.736,223.279,219.325,245.184,214.584,284.528z"/>
		</g>
		<g>
			<path fill="#F9D8A4" d="M257.631,284.422l-14.948-1.611c4.479-42.213,3.419-64.987-3.671-86.204
				c-2.641-7.899-2.561-14.487-2.489-20.297c0.015-0.921,0.022-1.837,0.022-2.762h15.034c0,0.988-0.015,1.967-0.024,2.945
				c-0.062,5.27-0.119,9.817,1.702,15.271C260.98,214.868,262.396,239.469,257.631,284.422z"/>
		</g>
		<g>
			<path fill="#4A639D" d="M220.684,278.415l-21.188-2.181c2.916-28.807,6.189-52.228-0.708-72.88
				c-2.554-7.633-1.671-14.257-1.03-19.097c0.254-1.904,0.472-3.555,0.472-4.977h21.297c0,2.854-0.35,5.496-0.655,7.825
				c-0.555,4.15-0.818,6.634,0.102,9.383C227.095,220.81,223.881,246.827,220.684,278.415z"/>
		</g>
		<g>
			<path fill="#4A639D" d="M263.539,278.121l-21.239-1.597c2.345-31.734,2.764-57.545-4.378-78.908
				c-2.812-8.409-2.729-15.278-2.653-21.348c0.012-0.905,0.023-1.812,0.023-2.723h21.297c0,0.998-0.012,1.994-0.024,2.985
				c-0.062,5.184-0.109,9.28,1.539,14.22C266.172,214.891,266.1,243.47,263.539,278.121z"/>
		</g>
		<path fill="#1F3B68" d="M262.521,162.463c0.479,6.934-4.75,13.003-11.623,13.491l-49.044,3.472
			c-6.873,0.484-12.895-4.789-13.374-11.724l-5.041-72.488c-0.481-6.932,4.749-13.005,11.622-13.491l49.045-3.47
			c6.873-0.487,12.89,4.788,13.373,11.722L262.521,162.463z"/>
		<polygon fill="#4A639D" points="209.506,201.482 252.078,195.663 246.254,177.053 209.506,177.053 		"/>
		<path fill="#111123" d="M227.92,74.735c-10.271,0-17.62,1.809-22.848,4.214c-3.166,1.457-6.184,8.739-6.184,19.122l-4.496,89.612
			L258,183.85l1.146-85.778C259.146,79.803,251.718,74.735,227.92,74.735z"/>
		<g>
			<path fill="#191438" d="M205.072,78.95c0,0-3.185,1.287-7.701,4.776c-33.968,26.241-28.673,61.18-19.678,97.635
				c1.064,4.311,4.896,7.192,9.11,7.192c0.751,0,1.515-0.092,2.281-0.279c5.037-1.266,8.102-6.411,6.849-11.491
				c-9.066-36.742-9.9-57.932,9.573-75.287C213.917,94,210.795,84.71,205.072,78.95z"/>
		</g>
		<g>
			<path d="M198.167,171.251l-0.006-12.637c6.51-0.176,40.809-26.82,42.317-75.082L253,83.934
				c-0.92,29.353-12.521,50.575-22.087,63.207C220.163,161.332,206.696,171.251,198.167,171.251z"/>
		</g>
		<g>
			<path fill="#355797" d="M194.993,168.012v-12.638c2.677-0.002,13.6-5.948,24.75-20.669c9.087-11.998,20.104-32.168,20.979-60.115
				l12.421,2.83c-0.98,31.299-13.25,51.494-23.453,64.965C218.264,157.472,203.994,168.012,194.993,168.012z"/>
		</g>
		<g>
			<path fill="#0D685F" d="M218.273,214.214l-2.131-5.126l-6.925-29.802c-0.084-0.36-0.321-0.664-0.65-0.83
				c-0.329-0.173-0.713-0.191-1.054-0.04l-37.938,16.038c-3.205,1.355-4.724,5.09-3.381,8.32l11.825,28.46
				c0.128,0.31,0.374,0.556,0.685,0.681c0.148,0.063,0.312,0.096,0.475,0.096c0.165,0,0.33-0.032,0.484-0.102l7.856-3.323
				l30.078-12.716c0.31-0.135,0.549-0.377,0.675-0.69C218.403,214.87,218.401,214.523,218.273,214.214z"/>
			<g>
				<path fill="#C5E3EA" d="M217.572,215.881l-12.276-29.639c-1.079-2.597,0.132-5.579,2.705-6.667l0,0
					c2.568-1.088,5.527,0.133,6.605,2.729l12.417,29.577"/>
				<path fill="#08514A" d="M216.447,216.355l-12.311-29.622c-0.65-1.567-0.658-3.297-0.021-4.867
					c0.637-1.573,1.843-2.798,3.396-3.452c1.553-0.655,3.266-0.663,4.823-0.021c1.558,0.646,2.771,1.862,3.425,3.426l12.311,29.623
					l-2.311,0.979l-12.313-29.623c-0.393-0.946-1.123-1.672-2.062-2.061c-0.939-0.391-1.969-0.385-2.906,0.012
					c-0.936,0.398-1.662,1.135-2.046,2.083c-0.384,0.95-0.38,1.989,0.012,2.93l12.312,29.625L216.447,216.355z"/>
			</g>
		</g>
		<path fill="#F9D8A4" d="M196.221,178.281l-18.488,4.091l2.057,9.446c1.185,5.134,6.271,8.327,11.36,7.134
			c5.015-1.177,8.147-6.17,7.115-11.225l0.01-0.002L196.221,178.281z"/>
		<g>
			<path fill="#191438" d="M264.389,149.793c-2.558,0-5.084-1.049-6.917-3.057l-17.297-18.955c-3.514-3.852-3.27-9.849,0.549-13.395
				c1.363-1.265,2.997-2.044,4.693-2.354c-2.144-7.445-4.145-15.181-5.439-21.934c-0.983-5.139,2.341-10.113,7.438-11.109
				c5.095-0.985,10.021,2.363,11.014,7.501c3.809,19.805,14.688,50.301,14.796,50.609c1.521,4.244-0.14,8.982-3.967,11.321
				C267.746,149.343,266.061,149.793,264.389,149.793z"/>
		</g>
		<g>
			<path fill="#355797" d="M246.436,111.274l-11.792-4.27c3.688-10.348,5.729-21.255,6.078-32.415l12.421,2.83
				C252.753,89.903,250.563,99.679,246.436,111.274z"/>
		</g>
		<g>
			<g>
				<path fill="#DBDAD5" d="M254.95,96.481c0.558,2.302-0.843,4.621-3.122,5.183c-2.278,0.562-4.579-0.846-5.14-3.148
					c-0.558-2.297,0.845-4.62,3.12-5.182C252.095,92.771,254.395,94.183,254.95,96.481z"/>
				<g>
					<g>
						<g>
							<g>
								<g>
									<g>
										<defs>
											<path id="SVGID_1_" d="M254.95,96.481c0.558,2.302-0.843,4.621-3.122,5.183c-2.278,0.562-4.579-0.846-5.14-3.148
												c-0.558-2.297,0.845-4.62,3.12-5.182C252.095,92.771,254.395,94.183,254.95,96.481z"/>
										</defs>
										<clipPath id="SVGID_3_">
											<use xlink:href="#SVGID_1_"  overflow="visible"/>
										</clipPath>
										<polygon clip-path="url(#SVGID_3_)" points="253.734,96.781 250.24,95.211 250.6,96.698 244.243,95.168 246.049,102.627 
											250.989,98.313 251.351,99.801 										"/>
									</g>
								</g>
							</g>
						</g>
					</g>
				</g>
			</g>
			<ellipse fill="#FFFFFF" cx="248.744" cy="95.404" rx="0.917" ry="0.931"/>
		</g>
		<g>
			<path fill="#F8DA02" d="M243.856,86.875c-0.479,2.319-2.73,3.806-5.034,3.32c-2.295-0.483-3.771-2.755-3.285-5.074
				c0.479-2.318,2.729-3.806,5.025-3.321C242.862,82.286,244.335,84.56,243.856,86.875z"/>
			<polygon fill="#D92355" points="240.237,83.378 240.655,85.015 242.229,85.592 240.814,86.5 240.753,88.19 239.463,87.114 
				237.854,87.577 238.468,86.008 237.533,84.603 239.204,84.709 			"/>
			<path fill="#FFFFFF" d="M238.526,83.902c0,0.514-0.412,0.931-0.92,0.931c-0.512,0-0.923-0.417-0.923-0.931
				c0-0.514,0.411-0.93,0.923-0.93C238.115,82.974,238.526,83.389,238.526,83.902z"/>
		</g>
		<g>
			<path d="M231.603,125.428c0.573,2.296-0.81,4.626-3.088,5.205c-2.276,0.576-4.585-0.82-5.158-3.115
				c-0.566-2.299,0.813-4.626,3.088-5.204C228.723,121.735,231.033,123.129,231.603,125.428z"/>
			<polygon fill="#D92355" points="227.82,123.383 225.605,127.887 227.514,127.019 227.113,129.569 229.361,125.082 
				227.453,125.877 			"/>
			<path fill="#FFFFFF" d="M226.337,124.375c0,0.515-0.411,0.931-0.919,0.931c-0.516,0-0.923-0.416-0.923-0.931
				c0-0.514,0.407-0.93,0.923-0.93C225.926,123.446,226.337,123.861,226.337,124.375z"/>
		</g>
		<polygon fill="#0D685F" points="203.334,194.094 196.623,196.941 193.588,184.35 198.419,182.302 		"/>
		<polygon fill="#324977" points="221.319,271.323 200.133,269.429 199.395,276.272 220.64,278.432 		"/>
		<polygon fill="#324977" points="264.257,271.006 242.721,269.429 242.332,276.48 263.579,278.115 		"/>
		<polygon fill="#BC0C0C" points="221.319,290.911 199.395,290.911 204.301,286.33 214.957,280.787 		"/>
		<polygon fill="#BC0C0C" points="264.384,290.911 242.459,290.911 247.365,286.33 258.021,280.787 		"/>
		<polyline fill="#355797" points="239.977,99.534 235.442,104.549 246.983,110.197 249.333,102.3 		"/>
		<path fill="#F9D8A4" d="M250.69,112.599l-6.929-8.146c-2.107-2.422-5.865-2.572-8.393-0.334l-4.151,3.67
			c-2.529,2.239-2.872,6.015-0.764,8.439l6.927,8.148"/>
		<g>
			<polygon points="239.751,127.366 237.25,124.533 250.664,112.476 253.165,115.307 			"/>
		</g>
		<path fill="#FFFFFF" d="M251.128,117.701c-0.484-2.082-2.552-3.368-4.615-2.878c-2.062,0.49-3.34,2.576-2.853,4.656
			c0.483,2.081,2.554,3.369,4.613,2.878C250.338,121.867,251.615,119.78,251.128,117.701z"/>
		<path fill="#753A2E" d="M365.798,265.483c2.296,0,4.153,1.876,4.153,4.189v22.097c2.465,1.448,4.126,4.136,4.126,7.217h-8.15
			c-0.044,0.002-0.085,0.014-0.129,0.014c-2.293,0-4.15-1.875-4.15-4.19l-3.32-25.135
			C358.323,267.359,363.505,265.483,365.798,265.483z"/>
		<path fill="#592B26" d="M343.761,266.747c0,9.046-6.271,16.604-14.663,18.514l-2.494,6.512c2.463,1.447,4.121,4.134,4.121,7.212
			h-8.145c-0.044,0-0.087,0.015-0.131,0.015c-2.296,0-4.15-1.876-4.15-4.189l2.491-28.061
			C322.305,266.747,343.761,266.747,343.761,266.747z"/>
		<path fill="#592B26" d="M365.798,265.483c2.292,0,4.153,1.876,4.153,4.189v22.097c2.465,1.448,4.126,4.136,4.126,7.217h-8.152
			c-0.042,0.002-0.083,0.014-0.127,0.014c-2.293,0-4.151-1.875-4.151-4.19l-3.322-25.135
			C358.323,267.359,363.505,265.483,365.798,265.483z"/>
		<path fill="#753A2E" d="M344.705,265.483c0-9.871,7.934-17.873,17.721-17.873l0,0c9.785,0,17.722,8.002,17.722,17.873l0,0
			c0,9.869-7.937,17.875-17.722,17.875l0,0C352.639,283.358,344.705,275.353,344.705,265.483L344.705,265.483z"/>
		<path fill="#753A2E" d="M306.314,266.517c0.319-3.612,1.186-13.322,1.186-13.322l54.93-5.582v35.746l-37.477-8.069
			c-2.498,4.982-7.104,8.714-12.641,9.972l-2.492,6.511c2.461,1.446,4.12,4.134,4.12,7.213h-8.145c-0.045,0-0.085,0.014-0.13,0.014
			c-2.295,0-4.152-1.875-4.152-4.189l1.952-21.992C303.467,272.815,305.991,270.127,306.314,266.517z"/>
		<path fill="#753A2E" d="M356.936,222.438c-3.821-3.854-3.821-10.108,0-13.967l13.851,13.967
			C366.96,226.296,360.76,226.296,356.936,222.438z"/>
		<path fill="#753A2E" d="M343.646,226.349c-3.824-3.857-3.824-10.109,0-13.966l13.849,13.966
			C353.669,230.205,347.469,230.205,343.646,226.349z"/>
		<path fill="#753A2E" d="M374.943,273.079c-1.508-1.52-1.511-3.987,0-5.507l5.463,5.507
			C378.896,274.603,376.45,274.603,374.943,273.079z"/>
		<path fill="#753A2E" d="M376.238,270.373c-1.507-1.523-1.507-3.987,0-5.511l5.466,5.511
			C380.191,271.895,377.745,271.895,376.238,270.373z"/>
		<path fill="#753A2E" d="M377.532,267.669c-1.511-1.525-1.511-3.987,0-5.509l5.461,5.509
			C381.486,269.188,379.041,269.188,377.532,267.669z"/>
		<polygon fill="#753A2E" points="323.11,266.747 380.146,266.747 380.146,247.61 323.11,261.154 		"/>
		<path fill="#753A2E" d="M386.092,256.394c-15.522,2.304-29.959-8.517-32.242-24.174l56.21-8.351
			C412.341,239.524,401.612,254.089,386.092,256.394z"/>
		<polygon fill="#753A2E" points="386.092,256.394 357.986,260.568 353.85,232.217 381.953,228.045 		"/>
		<path fill="#FFFFFF" d="M370.647,253.438c-5.521-1.105-9.104-6.515-8.01-12.082l19.984,4.002
			C381.528,250.927,376.164,254.543,370.647,253.438z"/>
		<path d="M377.515,230.79c-1.246,0.198-2.415-0.658-2.61-1.914c-0.194-1.258,0.658-2.438,1.904-2.638
			c1.247-0.199,2.416,0.657,2.61,1.914C379.614,229.409,378.762,230.59,377.515,230.79z"/>
		<ellipse cx="360.834" cy="231.13" rx="2.283" ry="2.31"/>
		<path d="M398.897,225.528l11.161-1.659c0.569,3.911,0.327,7.76-0.604,11.358C404.055,234.946,399.664,230.836,398.897,225.528z"/>
		<path fill="#753A2E" d="M357.077,298.984c0-3.081-1.665-5.771-4.13-7.217v-22.097c0-2.313-1.857-4.189-4.151-4.189
			s-7.478,1.876-7.478,4.189l3.321,25.135c0,2.313,1.856,4.189,4.151,4.189c0.044,0,0.086-0.013,0.13-0.013L357.077,298.984
			L357.077,298.984z"/>
		<g>
			<path fill="#753A2E" d="M293.238,254.537c-6.92-6.977-6.92-18.299,0-25.277l25.062,25.277
				C311.379,261.52,300.159,261.52,293.238,254.537z"/>
			<g>
				<g>
					<g>
						<g>
							<g>
								<g>
									<defs>
										<path id="SVGID_4_" d="M293.238,254.537c-6.92-6.977-6.92-18.299,0-25.277l25.062,25.277
											C311.379,261.52,300.159,261.52,293.238,254.537z"/>
									</defs>
									<clipPath id="SVGID_5_">
										<use xlink:href="#SVGID_4_"  overflow="visible"/>
									</clipPath>
									<g clip-path="url(#SVGID_5_)">
										<g>
											<path fill="#542118" d="M294.898,263.337c-0.039,0-0.078-0.007-0.116-0.017c-0.222-0.066-0.349-0.303-0.278-0.527
												l3.812-13.062c0.065-0.222,0.297-0.345,0.52-0.282c0.221,0.064,0.348,0.3,0.277,0.522l-3.813,13.064
												C295.244,263.218,295.08,263.337,294.898,263.337z"/>
										</g>
										<g>
											<path fill="#542118" d="M299.052,267.523c-0.038,0-0.077-0.006-0.116-0.018c-0.221-0.064-0.346-0.299-0.281-0.523
												l3.813-13.059c0.063-0.224,0.298-0.349,0.517-0.282c0.224,0.064,0.35,0.298,0.281,0.521l-3.812,13.06
												C299.398,267.407,299.232,267.523,299.052,267.523z"/>
										</g>
										<g>
											<path fill="#542118" d="M290.747,259.149c-0.039,0-0.078-0.008-0.117-0.021c-0.221-0.063-0.347-0.299-0.28-0.523
												l3.812-13.061c0.062-0.227,0.296-0.348,0.518-0.285c0.221,0.064,0.346,0.299,0.28,0.523l-3.813,13.062
												C291.092,259.028,290.927,259.149,290.747,259.149z"/>
										</g>
									</g>
								</g>
							</g>
						</g>
					</g>
				</g>
			</g>
		</g>
		<path opacity="0.2" enable-background="new    " d="M320.79,266.747"/>
		<path opacity="0.2" enable-background="new    " d="M320.79,266.747"/>
		<g>
			<polygon fill="#D99177" points="0,142.266 0,186.604 147.982,186.604 147.982,180.272 147.982,170.771 147.982,161.271 
				147.982,151.768 147.982,142.266 			"/>
			<rect x="16.991" y="142.266" fill="#D3DFEA" width="100.847" height="44.338"/>
			<polygon fill="#BF7E6A" points="15.698,142.266 15.698,151.768 15.698,161.271 15.698,170.771 15.698,180.272 15.698,186.604 
				31.396,186.604 31.396,180.272 31.396,170.771 31.396,161.271 31.396,151.768 31.396,142.266 			"/>
			<polygon fill="#D99177" points="0,142.266 0,151.768 0,161.271 0,170.771 0,180.272 0,186.604 15.698,186.604 15.698,180.272 
				15.698,170.771 15.698,161.271 15.698,151.768 15.698,142.266 			"/>
			<polygon fill="#E7EFF8" points="47.095,151.768 47.095,161.271 47.095,186.604 100.887,186.604 100.887,161.271 100.887,151.768 
							"/>
			<rect x="47.095" y="142.266" fill="#6D9ACC" width="53.792" height="9.501"/>
			<rect x="47.095" y="133.557" fill="#ACCDEA" width="53.792" height="8.71"/>
			<rect x="50.417" y="154.935" fill="#6D9ACC" width="13.501" height="12.668"/>
			<rect x="67.241" y="154.935" fill="#6D9ACC" width="13.501" height="12.668"/>
			<g>
				<rect x="50.417" y="160.636" fill="#E7EFF8" width="13.501" height="1.266"/>
			</g>
			<rect x="84.064" y="154.935" fill="#6D9ACC" width="13.5" height="12.668"/>
			<g>
				<rect x="84.064" y="160.636" fill="#E7EFF8" width="13.5" height="1.266"/>
			</g>
			<rect x="34.536" y="154.935" fill="#6D9ACC" width="9.419" height="3.17"/>
			<rect x="34.536" y="164.438" fill="#6D9ACC" width="9.419" height="3.164"/>
			<rect x="34.536" y="173.937" fill="#6D9ACC" width="9.419" height="3.168"/>
			<g>
				<rect x="18.838" y="150.184" fill="#6D9ACC" width="9.419" height="26.923"/>
			</g>
			<rect x="18.838" y="148.601" fill="#E7EFF8" width="9.419" height="3.167"/>
			<rect x="18.838" y="158.103" fill="#E7EFF8" width="9.419" height="3.168"/>
			<rect x="18.838" y="167.603" fill="#E7EFF8" width="9.419" height="3.168"/>
			<rect y="145.435" fill="#FFE690" width="12.562" height="6.333"/>
			<rect y="148.601" fill="#F7F7F7" width="9.423" height="3.167"/>
			<rect x="84.064" y="170.771" opacity="0.25" enable-background="new    " width="13.5" height="15.834"/>
			<polygon opacity="0.75" enable-background="new    " points="97.564,176.206 84.064,180.876 84.064,170.771 97.564,170.771 			
				"/>
			<rect x="67.241" y="170.771" opacity="0.25" enable-background="new    " width="13.501" height="15.834"/>
			<polygon opacity="0.75" enable-background="new    " points="80.742,176.206 67.241,180.876 67.241,170.771 80.742,170.771 			
				"/>
			<rect x="100.887" y="142.266" fill="#D3DFEA" width="15.698" height="44.338"/>
			<polygon fill="#BF7E6A" points="116.585,142.266 116.585,151.768 116.585,161.271 116.585,170.771 116.585,180.272 
				116.585,186.604 132.284,186.604 132.284,180.272 132.284,170.771 132.284,161.271 132.284,151.768 132.284,142.266 			"/>
			<rect x="104.027" y="154.935" fill="#6D9ACC" width="9.419" height="3.17"/>
			<rect x="104.027" y="164.438" fill="#6D9ACC" width="9.419" height="3.164"/>
			<rect x="104.027" y="173.937" fill="#6D9ACC" width="9.419" height="3.168"/>
			<g>
				<rect x="119.725" y="150.184" fill="#6D9ACC" width="9.419" height="26.923"/>
			</g>
			<rect x="119.725" y="148.601" fill="#E7EFF8" width="9.419" height="3.167"/>
			<rect x="119.725" y="158.103" fill="#E7EFF8" width="9.419" height="3.168"/>
			<rect x="119.725" y="167.603" fill="#E7EFF8" width="9.419" height="3.168"/>
			<rect x="135.424" y="145.435" fill="#FFE690" width="12.558" height="6.333"/>
			<rect x="138.563" y="148.601" fill="#F7F7F7" width="9.419" height="3.167"/>
			<polygon opacity="0.25" enable-background="new    " points="100.887,142.266 112.816,186.604 100.887,186.604 			"/>
			<polygon opacity="0.25" enable-background="new    " points="116.585,142.266 128.514,186.604 116.585,186.604 			"/>
			<polygon opacity="0.25" enable-background="new    " points="15.698,142.266 27.626,186.604 15.698,186.604 			"/>
			<rect x="55.013" y="133.557" fill="#5487B2" width="1.256" height="18.211"/>
			<rect x="64.189" y="133.557" fill="#5487B2" width="1.255" height="18.211"/>
			<rect x="73.363" y="133.557" fill="#5487B2" width="1.26" height="18.211"/>
			<rect x="82.538" y="133.557" fill="#5487B2" width="1.255" height="18.211"/>
			<rect x="91.712" y="133.557" fill="#5487B2" width="1.255" height="18.211"/>
			<rect y="154.935" fill="#FFE690" width="12.562" height="6.338"/>
			<rect y="158.103" fill="#F7F7F7" width="9.423" height="3.168"/>
			<rect y="164.438" fill="#FFE690" width="12.562" height="6.332"/>
			<rect y="167.603" fill="#F7F7F7" width="9.423" height="3.168"/>
			<rect y="173.937" fill="#FFE690" width="12.562" height="6.334"/>
			<rect y="177.104" fill="#F7F7F7" width="9.423" height="3.166"/>
			<rect x="135.424" y="154.935" fill="#FFE690" width="12.558" height="6.338"/>
			<rect x="138.563" y="158.103" fill="#F7F7F7" width="9.419" height="3.168"/>
			<rect x="135.424" y="164.438" fill="#FFE690" width="12.558" height="6.332"/>
			<rect x="138.563" y="167.603" fill="#F7F7F7" width="9.419" height="3.168"/>
			<rect x="135.424" y="173.937" fill="#FFE690" width="12.558" height="6.334"/>
			<rect x="138.563" y="177.104" fill="#F7F7F7" width="9.419" height="3.166"/>
			<rect x="50.417" y="170.771" opacity="0.25" enable-background="new    " width="13.501" height="15.834"/>
			<polygon opacity="0.75" enable-background="new    " points="63.918,176.206 50.417,180.876 50.417,170.771 63.918,170.771 			
				"/>
		</g>
		<polygon fill="#0C6B2C" points="147.982,238.209 0,213.725 0,186.604 147.982,186.604 		"/>
		<polygon fill="#753A2E" points="426.453,88.568 342.734,88.568 342.734,159.616 510.181,159.616 510.181,88.568 		"/>
		<polygon fill="#6D9ACC" points="415.963,121.776 415.963,126.198 415.963,128.438 415.963,136.046 407.198,136.046 
			407.198,128.438 407.198,126.198 407.198,121.776 		"/>
		<path fill="#E7EFF8" d="M418.026,106.191c0-3.592-2.887-6.505-6.444-6.505c-3.56,0-6.444,2.913-6.444,6.505"/>
		<path fill="#6D9ACC" d="M411.578,101.768c2.425,0,4.385,1.981,4.385,4.422v8.9h-8.769v-8.9
			C407.198,103.749,409.156,101.768,411.578,101.768z"/>
		<path fill="#6D9ACC" d="M407.198,106.534"/>
		<path fill="#6D9ACC" d="M415.963,106.534"/>
		<rect x="407.198" y="115.089" fill="#E7EFF8" width="8.769" height="6.685"/>
		<polygon fill="#6D9ACC" points="396.129,121.776 396.129,126.198 396.129,128.438 396.129,136.046 387.362,136.046 
			387.362,128.438 387.362,126.198 387.362,121.776 		"/>
		<path fill="#E7EFF8" d="M398.191,106.191c0-3.592-2.886-6.505-6.444-6.505c-3.562,0-6.443,2.913-6.443,6.505"/>
		<path fill="#6D9ACC" d="M391.743,101.768c2.423,0,4.386,1.981,4.386,4.422v8.9h-8.771v-8.9
			C387.362,103.749,389.323,101.768,391.743,101.768z"/>
		<path fill="#6D9ACC" d="M387.362,106.534"/>
		<path fill="#6D9ACC" d="M396.129,106.534"/>
		<rect x="387.362" y="115.089" fill="#E7EFF8" width="8.771" height="6.685"/>
		<polygon fill="#6D9ACC" points="396.129,140.836 396.129,148.208 396.129,150.443 396.129,158.106 387.362,158.106 
			387.362,150.443 387.362,148.208 387.362,140.836 		"/>
		<polygon fill="#6D9ACC" points="381.252,121.776 381.252,126.198 381.252,128.438 381.252,136.046 372.487,136.046 
			372.487,128.438 372.487,126.198 372.487,121.776 		"/>
		<path fill="#E7EFF8" d="M383.318,106.191c0-3.592-2.89-6.505-6.446-6.505c-3.562,0-6.446,2.913-6.446,6.505"/>
		<path fill="#6D9ACC" d="M376.868,101.768c2.423,0,4.384,1.981,4.384,4.422v8.9h-8.769v-8.9
			C372.487,103.749,374.447,101.768,376.868,101.768z"/>
		<path fill="#6D9ACC" d="M372.487,106.534"/>
		<path fill="#6D9ACC" d="M381.252,106.534"/>
		<rect x="372.487" y="115.089" fill="#E7EFF8" width="8.769" height="6.685"/>
		<polygon fill="#6D9ACC" points="366.378,121.776 366.378,126.198 366.378,128.438 366.378,136.046 357.608,136.046 
			357.608,128.438 357.608,126.198 357.608,121.776 		"/>
		<path fill="#E7EFF8" d="M368.44,106.191c0-3.592-2.889-6.505-6.445-6.505c-3.562,0-6.442,2.913-6.442,6.505"/>
		<path fill="#6D9ACC" d="M361.991,101.768c2.42,0,4.387,1.981,4.387,4.422v8.9h-8.771v-8.9
			C357.608,103.749,359.573,101.768,361.991,101.768z"/>
		<path fill="#6D9ACC" d="M357.608,106.534"/>
		<path fill="#6D9ACC" d="M366.378,106.534"/>
		<path fill="#6D9ACC" d="M361.991,106.534"/>
		<path fill="#6D9ACC" d="M361.991,115.089"/>
		<rect x="357.608" y="115.089" fill="#E7EFF8" width="8.771" height="6.685"/>
		<polygon fill="#6D9ACC" points="366.378,140.836 366.378,148.208 366.378,150.443 366.378,158.106 357.608,158.106 
			357.608,150.443 357.608,148.208 357.608,140.836 		"/>
		<polygon fill="#6D9ACC" points="381.252,140.836 381.252,148.208 381.252,150.443 381.252,158.106 372.487,158.106 
			372.487,150.443 372.487,148.208 372.487,140.836 		"/>
		<rect x="396.129" y="83.742" fill="#753A2E" width="11.065" height="4.317"/>
		<rect x="407.198" y="83.742" fill="#E7EFF8" width="38.521" height="4.317"/>
		<rect x="418.455" y="81.992" fill="#E7EFF8" width="15.998" height="6.067"/>
		<path fill="#E7EFF8" d="M426.453,86.617c-1.98,0-3.597-1.622-3.597-3.625s1.611-3.626,3.597-3.626"/>
		<polygon fill="#6D9ACC" points="422.073,121.776 422.073,126.198 422.073,128.438 422.073,136.046 430.842,136.046 
			430.842,128.438 430.842,126.198 430.842,121.776 		"/>
		<path fill="#E7EFF8" d="M420.011,106.191c0-3.592,2.888-6.505,6.442-6.505c3.562,0,6.446,2.913,6.446,6.505"/>
		<path fill="#6D9ACC" d="M426.453,101.768c-2.421,0-4.383,1.981-4.383,4.422v8.9h8.771v-8.9
			C430.842,103.749,428.878,101.768,426.453,101.768z"/>
		<path fill="#6D9ACC" d="M430.842,106.534"/>
		<path fill="#6D9ACC" d="M422.073,106.534"/>
		<rect x="422.073" y="115.089" fill="#E7EFF8" width="8.771" height="6.685"/>
		<polygon fill="#6D9ACC" points="436.948,121.776 436.948,126.198 436.948,128.438 436.948,136.046 445.718,136.046 
			445.718,128.438 445.718,126.198 445.718,121.776 		"/>
		<path fill="#E7EFF8" d="M434.888,106.191c0-3.592,2.889-6.505,6.447-6.505s6.441,2.913,6.441,6.505"/>
		<path fill="#6D9ACC" d="M441.335,101.768c-2.427,0-4.39,1.981-4.39,4.422v8.9h8.771v-8.9
			C445.718,103.749,443.755,101.768,441.335,101.768z"/>
		<rect x="436.948" y="115.089" fill="#E7EFF8" width="8.771" height="6.685"/>
		<polygon fill="#6D9ACC" points="456.783,121.776 456.783,126.198 456.783,128.438 456.783,136.046 465.552,136.046 
			465.552,128.438 465.552,126.198 465.552,121.776 		"/>
		<path fill="#E7EFF8" d="M454.724,106.191c0-3.592,2.886-6.505,6.445-6.505s6.443,2.913,6.443,6.505"/>
		<path fill="#6D9ACC" d="M461.169,101.768c-2.427,0-4.386,1.981-4.386,4.422v8.9h8.769v-8.9
			C465.552,103.749,463.591,101.768,461.169,101.768z"/>
		<rect x="456.783" y="115.089" fill="#E7EFF8" width="8.769" height="6.685"/>
		<polygon fill="#6D9ACC" points="456.783,140.836 456.783,148.208 456.783,150.443 456.783,158.106 465.552,158.106 
			465.552,150.443 465.552,148.208 465.552,140.836 		"/>
		<polygon fill="#6D9ACC" points="471.656,121.776 471.656,126.198 471.656,128.438 471.656,136.046 480.428,136.046 
			480.428,128.438 480.428,126.198 480.428,121.776 		"/>
		<path fill="#E7EFF8" d="M469.599,106.191c0-3.592,2.889-6.505,6.444-6.505c3.562,0,6.444,2.913,6.444,6.505"/>
		<path fill="#6D9ACC" d="M476.043,101.768c-2.423,0-4.387,1.981-4.387,4.422v8.9h8.771v-8.9
			C480.428,103.749,478.466,101.768,476.043,101.768z"/>
		<rect x="471.656" y="115.089" fill="#E7EFF8" width="8.771" height="6.685"/>
		<polygon fill="#6D9ACC" points="486.534,121.776 486.534,126.198 486.534,128.438 486.534,136.046 495.306,136.046 
			495.306,128.438 495.306,126.198 495.306,121.776 		"/>
		<path fill="#E7EFF8" d="M484.475,106.191c0-3.592,2.889-6.505,6.448-6.505c3.561,0,6.44,2.913,6.44,6.505"/>
		<path fill="#6D9ACC" d="M490.923,101.768c-2.427,0-4.389,1.981-4.389,4.422v8.9h8.771v-8.9
			C495.306,103.749,493.342,101.768,490.923,101.768z"/>
		<rect x="486.534" y="115.089" fill="#E7EFF8" width="8.771" height="6.685"/>
		<polygon fill="#6D9ACC" points="486.534,140.836 486.534,148.208 486.534,150.443 486.534,158.106 495.306,158.106 
			495.306,150.443 495.306,148.208 495.306,140.836 		"/>
		<polygon fill="#6D9ACC" points="471.656,140.836 471.656,148.208 471.656,150.443 471.656,158.106 480.428,158.106 
			480.428,150.443 480.428,148.208 480.428,140.836 		"/>
		<path fill="#E7EFF8" d="M426.453,88.059h-87.335v1.686c0,0,3.07,0.437,3.612,5.004h83.723h83.728
			c0.54-4.568,3.612-5.004,3.612-5.004v-1.686H426.453z"/>
		<rect x="445.718" y="83.742" fill="#753A2E" width="11.065" height="4.317"/>
		<path fill="#E7EFF8" d="M426.453,86.617c1.984,0,3.599-1.622,3.599-3.625s-1.608-3.626-3.599-3.626"/>
		<polygon fill="#BFCDDB" points="426.453,89.745 339.118,89.745 341.539,91.403 426.453,91.403 511.37,91.403 513.794,89.745 		"/>
		<rect x="409.065" y="140.836" opacity="0.4" enable-background="new    " width="34.782" height="9.863"/>
		<rect x="407.198" y="140.836" fill="#9B5C54" width="3.735" height="22.613"/>
		<rect x="441.98" y="140.836" fill="#9B5C54" width="3.736" height="22.613"/>
		<rect x="420.091" y="140.836" fill="#542E33" width="12.729" height="18.778"/>
		<polygon opacity="0.4" enable-background="new    " points="432.823,148.854 420.091,152.596 420.091,140.836 432.823,140.836 		
			"/>
		<polygon fill="#BFCDDB" points="410.055,88.059 407.198,88.059 407.198,83.742 408.072,83.742 		"/>
		<polygon fill="#BFCDDB" points="437.314,88.059 434.453,88.059 434.453,83.742 435.326,83.742 		"/>
		<polygon fill="#31313F" points="97.564,229.867 50.417,222.066 50.417,186.604 97.564,186.604 		"/>
		<path opacity="0.15" enable-background="new    " d="M377.89,274.198c0.916-0.052,1.815-0.415,2.521-1.119l-1.382-1.391
			c0.021-0.063,0.044-0.125,0.065-0.19c0.947-0.03,1.885-0.403,2.606-1.125l-1.563-1.581c1.029,0.032,2.072-0.333,2.856-1.125
			l-2.852-2.872v-7.52c0,0-3.062,9.983-9.792,16.773s-14.688,7.925-14.688,7.925c2.088,0.875,4.359,1.381,6.764,1.381
			C369.07,283.358,374.855,279.659,377.89,274.198z"/>
		<g>
			<g opacity="0.5">
				<path d="M361.991,101.768c-2.422,0-4.388,1.981-4.388,4.422v1.264c0-2.441,1.966-4.421,4.388-4.421
					c2.42,0,4.387,1.98,4.387,4.421v-1.264C366.378,103.749,364.411,101.768,361.991,101.768z"/>
			</g>
		</g>
		<g>
			<g opacity="0.5">
				<path d="M376.871,101.768c-2.422,0-4.388,1.981-4.388,4.422v1.264c0-2.441,1.966-4.421,4.388-4.421
					c2.421,0,4.384,1.98,4.384,4.421v-1.264C381.255,103.749,379.291,101.768,376.871,101.768z"/>
			</g>
		</g>
		<g>
			<g opacity="0.5">
				<path d="M391.745,101.768c-2.42,0-4.387,1.981-4.387,4.422v1.264c0-2.441,1.967-4.421,4.387-4.421
					c2.421,0,4.387,1.98,4.387,4.421v-1.264C396.132,103.749,394.166,101.768,391.745,101.768z"/>
			</g>
		</g>
		<g>
			<g opacity="0.5">
				<path d="M411.584,101.768c-2.426,0-4.389,1.981-4.389,4.422v1.264c0-2.441,1.963-4.421,4.389-4.421
					c2.419,0,4.383,1.98,4.383,4.421v-1.264C415.967,103.749,414.003,101.768,411.584,101.768z"/>
			</g>
		</g>
		<g>
			<g opacity="0.5">
				<path d="M426.453,101.768c-2.419,0-4.383,1.981-4.383,4.422v1.264c0-2.441,1.964-4.421,4.383-4.421
					c2.425,0,4.389,1.98,4.389,4.421v-1.264C430.842,103.749,428.878,101.768,426.453,101.768z"/>
			</g>
		</g>
		<g>
			<g opacity="0.5">
				<path d="M441.335,101.768c-2.427,0-4.39,1.981-4.39,4.422v1.264c0-2.441,1.963-4.421,4.39-4.421c2.42,0,4.383,1.98,4.383,4.421
					v-1.264C445.718,103.749,443.755,101.768,441.335,101.768z"/>
			</g>
		</g>
		<g>
			<g opacity="0.5">
				<path d="M461.171,101.768c-2.427,0-4.388,1.981-4.388,4.422v1.264c0-2.441,1.961-4.421,4.388-4.421
					c2.42,0,4.383,1.98,4.383,4.421v-1.264C465.554,103.749,463.591,101.768,461.171,101.768z"/>
			</g>
		</g>
		<g>
			<g opacity="0.5">
				<path d="M476.046,101.768c-2.421,0-4.39,1.981-4.39,4.422v1.264c0-2.441,1.968-4.421,4.39-4.421c2.42,0,4.384,1.98,4.384,4.421
					v-1.264C480.43,103.749,478.466,101.768,476.046,101.768z"/>
			</g>
		</g>
		<g>
			<g opacity="0.5">
				<path d="M490.923,101.768c-2.421,0-4.389,1.981-4.389,4.422v1.264c0-2.441,1.968-4.421,4.389-4.421
					c2.419,0,4.385,1.98,4.385,4.421v-1.264C495.308,103.749,493.342,101.768,490.923,101.768z"/>
			</g>
		</g>
		<polygon fill="#0C6B2C" points="516,177.075 336.915,194.295 336.915,159.616 338.168,158.351 401.089,159.616 451.823,159.616 
			514.744,158.351 516,159.616 		"/>
		<rect x="401.089" y="161.534" fill="#B2C5D8" width="50.734" height="1.917"/>
		<rect x="401.089" y="159.616" fill="#E7EFF8" width="50.734" height="1.921"/>
		<g>
			<path fill="#0C6B2C" d="M390.58,159.616c0-3.239-3.854-5.867-7.067-5.867c-3.212,0-4.564,2.628-4.564,5.867H390.58z"/>
			<path fill="#0C6B2C" d="M401.089,159.616c0-3.239-3.855-5.867-7.069-5.867c-3.213,0-4.562,2.628-4.562,5.867H401.089z"/>
			<path fill="#0C6B2C" d="M380.073,159.616c0-3.239-3.854-5.867-7.065-5.867s-4.562,2.628-4.562,5.867H380.073z"/>
			<path fill="#0C6B2C" d="M369.565,159.616c0-3.239-3.854-5.867-7.066-5.867s-4.564,2.628-4.564,5.867H369.565z"/>
			<path fill="#0C6B2C" d="M348.55,159.616c0-3.239-3.855-5.867-7.067-5.867c-3.214,0-4.562,2.628-4.562,5.867l0,0H348.55z"/>
			<path fill="#0C6B2C" d="M359.057,159.616c0-3.239-3.854-5.867-7.062-5.867c-3.219,0-4.565,2.628-4.565,5.867H359.057z"/>
		</g>
		<polygon fill="#31313F" points="451.823,183.19 401.089,188.091 401.089,163.451 451.823,163.451 		"/>
		<polygon fill="#E7EFF8" points="427.448,135.099 426.453,135.099 341.481,135.099 341.481,141.469 426.453,141.469 
			427.448,141.469 511.435,141.469 511.435,135.099 		"/>
		<rect x="407.198" y="135.099" fill="#F2F6F9" width="38.521" height="6.37"/>
		<polygon opacity="0.25" enable-background="new    " points="456.982,159.616 445.718,159.616 445.718,135.099 445.718,135.099 		
			"/>
		<g>
			<path fill="#0C6B2C" d="M505.49,159.616c0-3.239-1.352-5.867-4.562-5.867c-3.21,0-7.067,2.628-7.067,5.867H505.49z"/>
			<path fill="#0C6B2C" d="M516,159.616c0-3.239-1.354-5.867-4.562-5.867c-3.214,0-7.071,2.628-7.071,5.867H516z"/>
			<path fill="#0C6B2C" d="M494.983,159.616c0-3.239-1.35-5.867-4.562-5.867c-3.214,0-7.069,2.628-7.069,5.867H494.983z"/>
			<path fill="#0C6B2C" d="M484.478,159.616c0-3.239-1.351-5.867-4.562-5.867c-3.215,0-7.068,2.628-7.068,5.867H484.478z"/>
			<path fill="#0C6B2C" d="M463.459,159.616c0-3.239-1.354-5.867-4.562-5.867c-3.217,0-7.071,2.628-7.071,5.867H463.459z"/>
			<path fill="#0C6B2C" d="M473.969,159.616c0-3.239-1.354-5.867-4.562-5.867c-3.213,0-7.067,2.628-7.067,5.867H473.969z"/>
		</g>
	</g>
</g>
<g>
	<path fill="#111123" d="M257.656,11.148c-1.496-6.728-7.525-11.275-14.16-11.145L231.777,0l6.699,30.002l8.374-1.863
		C254.526,26.432,259.365,18.825,257.656,11.148z"/>
	<g>
		
			<linearGradient id="SVGID_6_" gradientUnits="userSpaceOnUse" x1="454.2578" y1="-754.1997" x2="454.2578" y2="-762.4833" gradientTransform="matrix(1 0 0 -1 -228.0254 -678.3672)">
			<stop  offset="0" style="stop-color:#EFCAA0"/>
			<stop  offset="1" style="stop-color:#F9D8A4"/>
		</linearGradient>
		<path fill="url(#SVGID_6_)" d="M236.335,66.839c0-5.539-4.522-10.032-10.104-10.032l0,0c-5.579,0-10.101,4.492-10.101,10.032
			v8.117c0,5.54,4.521,10.032,10.101,10.032l0,0c5.579,0,10.104-4.491,10.104-10.032V66.839z"/>
		<g>
			<g>
				
					<linearGradient id="SVGID_7_" gradientUnits="userSpaceOnUse" x1="454.2578" y1="-754.1997" x2="454.2578" y2="-762.4833" gradientTransform="matrix(1 0 0 -1 -228.0254 -678.3672)">
					<stop  offset="0" style="stop-color:#EFCAA0"/>
					<stop  offset="1" style="stop-color:#F9D8A4"/>
				</linearGradient>
				<path id="SVGID_2_" fill="url(#SVGID_7_)" d="M236.335,66.839c0-5.539-4.522-10.032-10.104-10.032l0,0
					c-5.579,0-10.101,4.492-10.101,10.032v8.117c0,5.54,4.521,10.032,10.101,10.032l0,0c5.579,0,10.104-4.491,10.104-10.032V66.839z
					"/>
			</g>
			<g>
				<g>
					<g>
						<g>
							<g>
								<defs>
									<path id="SVGID_8_" d="M236.335,66.839c0-5.539-4.522-10.032-10.104-10.032l0,0c-5.579,0-10.101,4.492-10.101,10.032v8.117
										c0,5.54,4.521,10.032,10.101,10.032l0,0c5.579,0,10.104-4.491,10.104-10.032V66.839z"/>
								</defs>
								<clipPath id="SVGID_9_">
									<use xlink:href="#SVGID_8_"  overflow="visible"/>
								</clipPath>
							</g>
						</g>
					</g>
				</g>
			</g>
		</g>
	</g>
	<path fill="#EFCAA0" d="M249.78,52.747c-1.771,1.763-4.646,1.763-6.423,0l0,0c-1.771-1.76-1.771-4.617,0-6.377l5.371-5.332
		c1.774-1.764,4.649-1.764,6.423,0l0,0c1.774,1.761,1.774,4.617,0,6.376L249.78,52.747z"/>
	<path fill="#F9D8A4" d="M204.154,17.457v33.051c0,12.713,10.377,23.019,23.18,23.019c12.8,0,23.176-10.307,23.176-23.019
		l-3.132-33.051H204.154z"/>
	<path fill="#111123" d="M211.565,26.418c1.539,1.528,4.034,1.528,5.573,0l-5.573-5.536
		C210.026,22.412,210.026,24.893,211.565,26.418z"/>
	<g>
		<path fill="#EFA481" d="M237.089,50.29c-0.281,0.097-0.583,0.146-0.898,0.135c-4.229-0.142-6.632-5.515-6.545-8.13
			c0.031-0.848,0.75-1.51,1.6-1.479c0.853,0.027,1.52,0.737,1.487,1.583c-0.029,0.927,2.127,3.06,3.625,3.11
			c1.367,0.047,2.438,1.183,2.396,2.543C238.713,49.093,238.027,49.964,237.089,50.29z"/>
	</g>
	<path fill="#111123" d="M240.844,24.221c0,0-17.359,0-19.934,0c-2.579,0-8.641,0-8.641,0l-2.794,19.442h-6.89
		c0,0-1.879-20.685-1.879-25.39c0-7.838,6.396-14.192,14.29-14.192c6.304,0,25.848,0,25.848,0V24.221z"/>
	<path fill="#F9D8A4" d="M210.521,46.37c1.772,1.761,1.772,4.619,0,6.377l0,0c-1.771,1.763-4.646,1.763-6.423,0l-5.371-5.333
		c-1.771-1.761-1.771-4.617,0-6.376l0,0c1.774-1.764,4.649-1.764,6.423,0L210.521,46.37z"/>
	
		<linearGradient id="SVGID_10_" gradientUnits="userSpaceOnUse" x1="92.3691" y1="-386.7646" x2="97.634" y2="-392.0295" gradientTransform="matrix(1.3283 0.3283 -0.3283 -1.3283 -51.0648 -501.4066)">
		<stop  offset="0" style="stop-color:#EFA481"/>
		<stop  offset="1" style="stop-color:#F9D8A4"/>
	</linearGradient>
	<path fill="url(#SVGID_10_)" d="M211.012,50.497c2.085,2.074,2.757,4.77,1.498,6.021l0,0c-1.262,1.25-3.975,0.583-6.063-1.49
		l-6.318-6.277c-2.086-2.073-2.757-4.769-1.5-6.02l0,0c1.263-1.252,3.974-0.586,6.062,1.487L211.012,50.497z"/>
	<ellipse cx="240.172" cy="39.074" rx="2.036" ry="2.022"/>
	<ellipse cx="221.771" cy="39.074" rx="2.036" ry="2.022"/>
	<path fill="#FFFFFF" d="M228.025,63.343c4.118,1.111,8.361-1.301,9.482-5.388l-14.906-4.031
		C221.48,58.013,223.91,62.229,228.025,63.343z"/>
	<ellipse fill="#EFA481" cx="215.028" cy="46.891" rx="1.247" ry="1.247"/>
	<ellipse fill="#EFA481" cx="220.979" cy="46.891" rx="1.248" ry="1.248"/>
	<ellipse fill="#EFA481" cx="218.16" cy="50.314" rx="1.248" ry="1.248"/>
	<path fill="#111123" d="M227.971,11.348c0,7.11,5.764,12.873,12.873,12.873s12.873-5.763,12.873-12.873H227.971z"/>
</g>
</svg>
