<svg xmlns="http://www.w3.org/2000/svg" width="16" height="15.031" viewBox="0 0 16 15.031">
  <defs>
    <style>
      .cls-1 {
        fill: #279408;
        fill-rule: evenodd;
        opacity: 0.9;
      }
    </style>
  </defs>
  <path id="star.svg" class="cls-1" d="M1002.6,514.361l1.95,3.893a0.679,0.679,0,0,0,.51.357l4.37,0.624a0.654,0.654,0,0,1,.37,1.115l-3.17,3.03a0.655,0.655,0,0,0-.19.578l0.75,4.278a0.666,0.666,0,0,1-.97.689l-3.91-2.02a0.678,0.678,0,0,0-.62,0l-3.909,2.02a0.663,0.663,0,0,1-.965-0.689l0.747-4.278a0.645,0.645,0,0,0-.192-0.578l-3.164-3.03a0.651,0.651,0,0,1,.369-1.115l4.373-.624a0.664,0.664,0,0,0,.5-0.357l1.96-3.893A0.668,0.668,0,0,1,1002.6,514.361Z" transform="translate(-994 -514)"/>
</svg>
