<svg width="172" height="24" viewBox="0 0 172 24" xmlns="http://www.w3.org/2000/svg"><title>FFD2D1B4-FDE4-437C-B5AF-24BB901AD576</title><g fill-rule="nonzero" fill="#FBFDFF"><ellipse cx="93.628" cy="10.074" rx="4.771" ry="4.866"/><path d="M41.79 3.757c-1.552-.058-2.987.524-4.108 1.807l.058-1.612-4.347-.163-.69 19.207 4.348.162.249-6.94c1.08 1.425 2.441 2.082 3.966 2.139 3.416.127 6.079-2.368 6.248-7.09.169-4.694-2.307-7.382-5.724-7.51zm-1.824 10.63c-.931-.034-2.041-.623-2.551-1.364l.152-4.233c.563-.728 1.71-1.205 2.643-1.17 1.694.064 2.947 1.408 2.871 3.481-.075 2.101-1.42 3.35-3.115 3.287zM81.596 3.506l-7.292 4.687-.144-.082c-.965-.541-2.168-.747-3.535-.608l-2.258.232-.256-2.586-4.036.415 1.32 13.37 3.759-.386.53-.1 2.002-.207c3.368-.347 5.257-2.62 4.93-5.932a7.018 7.018 0 0 0-.297-1.425l-.067-.212 2.241-1.44.818 8.271 4.036-.415-1.373-13.89-.378.308zM71.058 14.857l-1.968.203-.386-3.911 1.968-.203a2.21 2.21 0 0 1 .223-.011c.453 0 1.524.174 1.684 1.79.174 1.763-1.005 2.079-1.52 2.132zM140.183 10.265c-.41-4.159-2.555-6.356-6.205-6.356-.324 0-.664.018-1.01.053-2.645.27-4.504 1.234-5.521 2.865-.776 1.243-1.072 2.868-.88 4.83.283 2.879 1.646 6.311 6.536 6.311.393 0 .808-.022 1.236-.065.965-.1 3.083-.669 4.962-1.832l.382-.235-1.964-2.912-.323.152c-2.109.993-2.835 1.067-3.418 1.128-1.413.148-2.332-.405-2.796-1.62l-.136-.357 9.252-.789-.115-1.173zm-9.352-.481l.048-.36c.235-1.711 1.296-2.048 2.304-2.151 1.396-.142 2.3.344 2.769 1.627l.128.347-5.25.537zM114.633 7.792L108.921.975l-3.715-.169-.723 16.568 4.334.197.413-9.473 5.146 5.571 5.613-5.082-.413 9.471 4.332.198.723-16.568-3.714-.168zM171.892 16.769c-.353-1.446-.599-2.919-.672-4.042a11.248 11.248 0 0 1-.047-.615l-.17-3.2c-.134-2.5-1.367-3.759-2.378-4.375-2.096-1.281-4.751-1.086-8.837.623l-.415.174 1.446 3.021.328-.083c.467-.117.889-.23 1.275-.335l.127-.034c1.003-.272 1.729-.469 2.358-.504.075-.004.147-.006.216-.006.862 0 1.34.341 1.543 1.106l.086.321-4.286.513c-1.223.304-4.13 1.022-3.944 4.511.11 2.063 1.531 4.473 5.176 4.473h.068c1.313-.085 2.55-.726 3.698-1.905l.33-.338.553 1.829 3.652-.693-.107-.441zm-5.374-4.424c-.797 1.584-1.82 1.89-2.251 1.947l-.012.013h-.117l-.094-.007c-1.307.069-1.322-.64-1.334-.865-.05-.95.71-1.364 2.714-1.474.275-.016.557-.025.84-.03l.469-.01-.215.426zM144.686 5.792c-.188 1.087-.386 2.436-.561 3.626l-.018.12c-.285 1.94-.473 3.204-.574 3.493-.177.344-.926.792-1.57.88l-.431.06.643 3.96.405-.056c1.004-.138 4.033-.56 4.938-3.126.255-.725.478-2.478.737-4.507l.05-.383c.078-.605.157-1.213.237-1.789l.035-.257 3.192.148-.443 9.986 4.332.2.61-13.7-11.26-.52-.322 1.865zM24.18 12.894L20.494 4.4l-4.528.344 6.39 13.564-.253.766c-.182.587-.783.833-1.761.908-.336.025-.762-.028-1.081-.176l-.33 3.953c.458.11 1.47.118 1.862.088 2.568-.254 4.56-1.065 5.438-4.056l4.943-16.204-4.557.347-2.437 8.96zM9.16 8.69l.38-.176L14.86.14 9.687 0 5.112 9.104 4.317.588 0 1.008 1.675 18.94l4.317-.419-.814-8.715 6.945 8.173 4.782-1.2L9.43 8.733zM57.302 14.705c-1.78.235-3.304-.86-3.567-2.93-.263-2.07.94-3.499 2.72-3.734 1.14-.15 2.066.246 2.696.97l2.445-3.005c-.96-1.112-2.934-2.178-5.826-1.796-4.198.555-6.971 3.863-6.427 8.145.548 4.31 4.057 6.787 8.255 6.232 2.891-.382 4.529-1.954 5.184-3.251l-3.119-2.299c-.431.836-1.221 1.517-2.361 1.668z"/></g></svg>