<svg id="Layer_1" data-name="Layer 1" xmlns="http://www.w3.org/2000/svg" viewBox="0 0 14.28 24.16">
    <defs></defs>
    <title>Artboard 1</title>
    <path fill="#605353" d="M0,21.93a2.14,2.14,0,0,0,2.13,2.13h9.92a2.14,2.14,0,0,0,2.13-2.13V19.16L7.13,18.09,0,19.16Z"/>
    <path fill="#605353" d="M14.22,2.2A2.14,2.14,0,0,0,12.09.06H2.17A2.14,2.14,0,0,0,0,2.2V5L7.13,6,14.22,5Z"/>
    <circle fill="#fff" cx="7.13" cy="21.61" r="0.8"/><path fill="#fff" d="M8.81,2.92H5.45a.4.4,0,0,1,0-.8H8.81a.4.4,0,0,1,0,.8Z"/>
    <rect fill="#74cfd1" class="cls-3" x="0.03" y="4.97" width="14.19" height="14.19"/>
</svg>
