<svg width="13" height="12" viewBox="0 0 13 12" xmlns="http://www.w3.org/2000/svg"><title>B480EC22-231D-45D2-88AF-F55FD408041C</title><path d="M12.99 11.243c0-.048 0-.348-.025-.443-.413-1.74-3.666-1.668-4.82-3-.133-.156-.205-.24-.205-.456 0-.288.072-.6.133-.875.108-.565.304-.734.51-1.213.206-.49.303-1.055.388-1.585.048-.3.085-.599.085-.899C9.056 1.152 8.231 0 6.494 0c-1.735 0-2.56 1.152-2.56 2.772 0 .3.023.6.072.9.097.53.182 1.093.401 1.584.194.48.4.648.51 1.213.06.274.133.587.133.875 0 .216-.085.3-.207.456-1.152 1.332-4.418 1.26-4.83 3-.013.084-.013.395-.013.443 0 .253.012.505.012.756h12.953c.012-.25.024-.503.024-.756" fill="#221F20" fill-rule="evenodd"/></svg>