<svg width="64" height="64" viewBox="0 0 64 64" xmlns="http://www.w3.org/2000/svg"><title>4B4F0468-F2F2-4076-B42B-89D491D8FDB7</title><g fill="none" fill-rule="evenodd"><path d="M64 32c0 9.135-3.83 17.38-9.97 23.205A31.85 31.85 0 0 1 32 64a31.85 31.85 0 0 1-22.03-8.795C3.83 49.38 0 41.135 0 32 0 14.325 14.325 0 32 0s32 14.325 32 32" fill="#0777E8"/><path d="M52.11 51.945c-.24.25-.49.495-.745.735a29.47 29.47 0 0 1-2.705 2.27c-4.92 3.63-10.765 5.55-16.905 5.55-6.14 0-11.985-1.92-16.9-5.545a28.82 28.82 0 0 1-2.72-2.29 11.67 11.67 0 0 1-.24-.235l-.005-.46c2.23-7.605 15.07-6.8 15.07-10.435v-2.6c-2.01-1.5-2.69-3.965-3.375-6.525-.65.01-1.415-1.035-1.745-2.445-.36-1.505-.1-2.855.58-3.02a.75.75 0 0 1 .315.01c-.06-.86-.075-1.645-.075-2.295h.025c-.605-7.61 8.78-13.565 14.535-7.94 3.24.77 4.32 4.055 4.3 7.94 0 .645-.02 1.415-.075 2.27.045 0 .09.005.135.015.685.165.945 1.515.59 3.02-.31 1.275-.965 2.26-1.57 2.42-.705 2.64-1.435 5.18-3.55 6.67v2.48c0 3.63 12.81 2.83 15.06 10.41" fill="#FFF"/></g></svg>