<?xml version="1.0" encoding="utf-8"?>
<!-- Generator: Adobe Illustrator 16.0.0, SVG Export Plug-In . SVG Version: 6.00 Build 0)  -->
<!DOCTYPE svg PUBLIC "-//W3C//DTD SVG 1.1//EN" "http://www.w3.org/Graphics/SVG/1.1/DTD/svg11.dtd">
<svg version="1.1" id="Layer_1" xmlns="http://www.w3.org/2000/svg" xmlns:xlink="http://www.w3.org/1999/xlink" x="0px" y="0px"
	 width="13px" height="13px" viewBox="0 0 13 13" enable-background="new 0 0 13 13" xml:space="preserve">
<circle fill="#3F3F3F" cx="1" cy="4" r="1"/>
<path fill="#3F3F3F" d="M13,4c0,0.552-0.447,1-1,1H5C4.448,5,4,4.552,4,4l0,0c0-0.552,0.448-1,1-1h7C12.553,3,13,3.448,13,4L13,4z"
	/>
<circle fill="#3F3F3F" cx="1" cy="8" r="1"/>
<path fill="#3F3F3F" d="M13,8c0,0.553-0.447,1-1,1H5C4.448,9,4,8.553,4,8l0,0c0-0.553,0.448-1,1-1h7C12.553,7,13,7.447,13,8L13,8z"
	/>
<circle fill="#3F3F3F" cx="1" cy="12" r="1"/>
<path fill="#3F3F3F" d="M13,12c0,0.553-0.447,1-1,1H5c-0.552,0-1-0.447-1-1l0,0c0-0.553,0.448-1,1-1h7C12.553,11,13,11.447,13,12
	L13,12z"/>
</svg>
