<?xml version="1.0" encoding="utf-8"?>
<!-- Generator: Adobe Illustrator 16.0.0, SVG Export Plug-In . SVG Version: 6.00 Build 0)  -->
<!DOCTYPE svg PUBLIC "-//W3C//DTD SVG 1.1//EN" "http://www.w3.org/Graphics/SVG/1.1/DTD/svg11.dtd">
<svg version="1.1" id="Layer_1" xmlns="http://www.w3.org/2000/svg" xmlns:xlink="http://www.w3.org/1999/xlink" x="0px" y="0px"
	 width="13px" height="13px" viewBox="0 0 13 13" enable-background="new 0 0 13 13" xml:space="preserve">
<path fill="#7F7F7F" d="M12.994,12.244c0-0.047,0-0.348-0.023-0.443c-0.414-1.74-3.669-1.668-4.822-3.001
	C8.016,8.645,7.941,8.561,7.941,8.344c0-0.287,0.072-0.6,0.134-0.875c0.108-0.563,0.304-0.732,0.51-1.213
	c0.207-0.49,0.306-1.056,0.39-1.585c0.049-0.3,0.084-0.6,0.084-0.899C9.059,2.151,8.232,1,6.497,1C4.761,1,3.935,2.151,3.935,3.772
	c0,0.3,0.023,0.6,0.072,0.899c0.098,0.529,0.182,1.094,0.4,1.584c0.195,0.48,0.401,0.648,0.51,1.213
	c0.062,0.275,0.134,0.587,0.134,0.875c0,0.218-0.085,0.302-0.206,0.456C3.69,10.132,0.423,10.061,0.011,11.8
	C0,11.885,0,12.197,0,12.244C0,12.497,0,12.749,0,13h12.994C13.007,12.749,12.994,12.497,12.994,12.244z"/>
</svg>
