<svg width="93" height="27" viewBox="0 0 93 27" xmlns="http://www.w3.org/2000/svg"><title>83C6F49C-4096-4A06-946B-826321915A91</title><path d="M71.274.871L69.59 13.117c-.736 5.542-2 7.232-3.893 7.232V27c7.47 0 10.732-4.487 11.784-12.826l.789-6.23h6.629V27H93V.871H71.274zm-26.054 9.58c.309-1.836 1.646-4.354 5.093-4.354 3.653 0 4.94 2.57 5.146 4.355H45.22zM50.175 0C42.25 0 36.688 6.018 36.688 13.474c0 8.36 6.035 13.526 13.854 13.526 3.884 0 8.082-1.118 10.601-3.409l-3.41-5.112c-1.418 1.385-4.514 2.184-6.298 2.184-3.674 0-5.878-2.184-6.35-4.58h18.053v-1.757C63.138 5.592 57.68 0 50.175 0zm-34.39 14.99L10.54.87H0V27h7.996V11.365L13.759 27h4.102l5.764-15.635V27h7.944V.871h-10.54L15.783 14.99z" fill="#FBFDFF" fill-rule="evenodd"/></svg>