<?xml version="1.0" encoding="utf-8"?>
<!-- Generator: Adobe Illustrator 16.0.0, SVG Export Plug-In . SVG Version: 6.00 Build 0)  -->
<!DOCTYPE svg PUBLIC "-//W3C//DTD SVG 1.1//EN" "http://www.w3.org/Graphics/SVG/1.1/DTD/svg11.dtd">
<svg version="1.1" id="Layer_1" xmlns="http://www.w3.org/2000/svg" xmlns:xlink="http://www.w3.org/1999/xlink" x="0px" y="0px"
	 width="15px" height="15px" viewBox="0 0 15 15" enable-background="new 0 0 15 15" xml:space="preserve">
<path d="M15,13.586l-4.115-4.114C11.584,8.49,12,7.294,12,6c0-3.309-2.691-6-6-6S0,2.691,0,6s2.691,6,6,6
	c1.293,0,2.489-0.416,3.471-1.114L13.586,15L15,13.586z M2,6c0-2.206,1.794-4,4-4c2.206,0,4,1.794,4,4c0,2.206-1.794,4-4,4
	C3.794,10,2,8.206,2,6z"/>
</svg>
