<?xml version="1.0" encoding="utf-8"?>
<!-- Generator: Adobe Illustrator 20.1.0, SVG Export Plug-In . SVG Version: 6.00 Build 0)  -->
<svg version="1.1" id="Layer_1" xmlns="http://www.w3.org/2000/svg" xmlns:xlink="http://www.w3.org/1999/xlink" x="0px" y="0px"
     viewBox="0 0 136.8 100" style="enable-background:new 0 0 136.8 100;" xml:space="preserve">
<g>
    <path fill="#1EB912" d="M133.8,96.6H2.8c-0.3,0-0.6-0.3-0.6-0.6V82.3c0-0.3,0.3-0.6,0.6-0.6h130.9c0.3,0,0.6,0.3,0.6,0.6v13.8
        C134.3,96.4,134.1,96.6,133.8,96.6z"/>
    <path fill="#1EB912" d="M126.4,75.2H10.2c-0.3,0-0.6-0.3-0.6-0.6V6.8c0-0.3,0.3-0.6,0.6-0.6h116.2c0.3,0,0.6,0.3,0.6,0.6v67.8
        C126.9,75,126.7,75.2,126.4,75.2z"/>
</g>
</svg>
