<svg xmlns="http://www.w3.org/2000/svg" xmlns:xlink="http://www.w3.org/1999/xlink" width="14" height="12" viewBox="0 0 14 12">
    <defs>
        <path id="a" d="M0 0h4.506v12H0V0z"/>
    </defs>
    <g fill="none" fill-rule="evenodd">
        <g transform="translate(4.667)">
            <mask id="b" fill="#fff">
                <use xlink:href="#a"/>
            </mask>
            <path fill="#FFF" d="M1.416 3.754c0-.446.37-.8.837-.8.467 0 .837.354.837.8 0 .446-.37.8-.837.8-.467 0-.837-.354-.837-.8m.129 2.015v5.57c0 .369.306.661.708.661.386 0 .708-.292.708-.662V5.77c.917-.292 1.545-1.107 1.545-2.015 0-.908-.628-1.723-1.545-2.016V.662c0-.37-.306-.662-.708-.662-.386 0-.708.292-.708.662v1.076C.628 2.031 0 2.846 0 3.754c.016.908.644 1.723 1.545 2.015" mask="url(#b)"/>
        </g>
        <path fill="#FFF" d="M1.4 8.2c0-.446.37-.8.837-.8.466 0 .837.354.837.8 0 .446-.37.8-.837.8-.435 0-.837-.37-.837-.8m.145 2.015v1.123c0 .37.306.662.708.662.402 0 .708-.292.708-.662v-1.123c.917-.292 1.545-1.107 1.545-2.015 0-.908-.628-1.723-1.545-2.015V.662c0-.37-.306-.662-.708-.662-.402 0-.708.292-.708.662v5.523C.628 6.477 0 7.292 0 8.2c0 .908.628 1.723 1.545 2.015M10.75 8.2c0-.446.37-.8.836-.8.467 0 .837.354.837.8 0 .446-.37.8-.837.8-.466 0-.837-.354-.837-.8m.145 2.015v1.123c0 .37.306.662.708.662.386 0 .708-.292.708-.662v-1.123c.918-.292 1.545-1.107 1.545-2.015 0-.908-.627-1.723-1.545-2.015V.662c0-.37-.305-.662-.708-.662-.386 0-.708.292-.708.662v5.523C9.977 6.477 9.35 7.292 9.35 8.2c0 .908.628 1.723 1.545 2.015"/>
    </g>
</svg>
