<?xml version="1.0" encoding="UTF-8"?>
<svg width="64px" height="64px" viewBox="0 0 64 64" version="1.1" xmlns="http://www.w3.org/2000/svg" xmlns:xlink="http://www.w3.org/1999/xlink">
    <!-- Generator: sketchtool 42 (36781) - http://www.bohemiancoding.com/sketch -->
    <title>0F74BBC4-FA7B-44AC-8E1D-E2FB52FFE4C2</title>
    <desc>Created with sketchtool.</desc>
    <defs></defs>
    <g id="Page-1" stroke="none" stroke-width="1" fill="none" fill-rule="evenodd">
        <g id="Страница_специальности_X" transform="translate(-119.000000, -1420.000000)">
            <g id="graduate_ic" transform="translate(119.000000, 1420.000000)">
                <g>
                    <path d="M64,32 C64,41.135 60.17,49.38 54.03,55.205 C53.07,56.125 52.05,56.975 50.985,57.765 C45.675,61.685 39.11,64 32,64 C24.89,64 18.325,61.685 13.015,57.765 C11.95,56.975 10.93,56.125 9.97,55.205 C3.83,49.38 0,41.135 0,32 C0,14.325 14.325,0 32,0 C49.675,0 64,14.325 64,32" id="Fill-1" fill="#007AFF"></path>
                    <path d="M41.4998,20.06495 L41.4998,24.99995 L22.6648,24.99995 L22.6648,20.13545 L14.3248,16.68995 C13.9328,16.52795 13.9328,15.97195 14.3248,15.80995 L31.2323,9.82695 C31.7243,9.62395 32.2758,9.62395 32.7678,9.82695 L49.6748,15.80995 C50.0673,15.97195 50.0668,16.52795 49.6748,16.68995 L41.4998,20.06495 Z" id="Fill-3" fill="#FFFFFF"></path>
                    <path d="M19.50975,36.125 C19.50975,36.47 17.55525,36.75 16.38475,36.75 C15.20525,36.75 13.25475,36.47 13.25475,36.125 C13.25475,36.09 15.06025,31.625 15.63475,30.36 C15.22025,30.12 14.93975,29.685 14.93975,29.19 C14.93975,28.645 15.27975,28.17 15.77025,27.95 L15.77025,15.645 L16.99525,15.645 L16.99525,27.95 C17.49025,28.17 17.83025,28.645 17.83025,29.19 C17.83025,29.685 17.54975,30.12 17.13475,30.36 C17.70975,31.625 19.50975,36.125 19.50975,36.125 Z" id="Fill-5" fill="#FFFFFF"></path>
                    <path d="M15.77,30.06495 L15.77,30.42995 C15.725,30.40995 15.68,30.38495 15.6345,30.35995 C15.685,30.25995 15.73,30.15995 15.77,30.06495" id="Fill-7" fill="#FFFFFF"></path>
                    <path d="M17.13475,30.35985 C17.08975,30.38485 17.04475,30.41035 16.99525,30.43035 L16.99525,30.05535 C17.04025,30.15485 17.08475,30.25485 17.13475,30.35985" id="Fill-9" fill="#FFFFFF"></path>
                    <path d="M15.77,30.06495 L15.77,30.42995 C15.725,30.40995 15.68,30.38495 15.6345,30.35995 C15.685,30.25995 15.73,30.15995 15.77,30.06495" id="Fill-11" fill="#FFFFFF"></path>
                    <path d="M17.13475,30.35985 C17.08975,30.38485 17.04475,30.41035 16.99525,30.43035 L16.99525,30.05535 C17.04025,30.15485 17.08475,30.25485 17.13475,30.35985" id="Fill-13" fill="#FFFFFF"></path>
                    <path d="M52.105,51.9448 C51.8655,52.1948 51.6155,52.4398 51.36,52.6803 C50.54,53.4598 49.63,54.2253 48.6555,54.9503 C43.735,58.5803 37.89,60.4998 31.75,60.4998 C25.61,60.4998 19.765,58.5803 14.85,54.9553 C13.87,54.2253 12.96,53.4598 12.13,52.6648 C12.05,52.5898 11.97,52.5098 11.89,52.4303 L11.885,51.9703 C14.1155,44.3653 26.955,45.1698 26.955,41.5353 L26.955,38.9348 C24.945,37.4348 24.265,34.9703 23.58,32.4103 C22.93,32.4198 22.165,31.3748 21.835,29.9648 C21.475,28.4598 21.735,27.1098 22.415,26.9448 C22.515,26.9248 22.62,26.9303 22.73,26.9553 C22.67,26.0953 22.6555,25.3098 22.6555,24.6603 L22.68,24.6603 C22.075,17.0498 31.46,11.0953 37.215,16.7203 C40.455,17.4903 41.535,20.7748 41.515,24.6603 C41.515,25.3053 41.495,26.0753 41.44,26.9303 C41.485,26.9303 41.5305,26.9348 41.575,26.9448 C42.26,27.1098 42.52,28.4598 42.165,29.9648 C41.855,31.2403 41.2,32.2253 40.5945,32.3848 C39.89,35.0248 39.16,37.5648 37.045,39.0553 L37.045,41.5353 C37.045,45.1648 49.855,44.3653 52.105,51.9448" id="Fill-15" fill="#FFFFFF"></path>
                    <path d="M50.083,16.937 L32.8275,24.345 C32.344,24.539 31.804,24.5405 31.317,24.3495 L17.625,18.6875" id="Stroke-17" stroke="#007AFF" stroke-width="0.999"></path>
                </g>
            </g>
        </g>
    </g>
</svg>