<svg width="178" height="18" viewBox="0 0 178 18" xmlns="http://www.w3.org/2000/svg"><title>E38FCCAB-1F66-46F1-BC6A-28F39493F388</title><g fill-rule="nonzero" fill="#FBFDFF"><path d="M45.4 3.602c-3.185 0-6.981 1.168-6.981 6.733 0 5.564 3.796 6.732 6.981 6.732s6.982-1.168 6.982-6.732c0-5.565-3.797-6.733-6.982-6.733zm0 9.893c-2.015 0-2.729-.827-2.729-3.16s.715-3.161 2.729-3.161c2.016 0 2.73.827 2.73 3.161 0 2.333-.714 3.16-2.73 3.16zM144.078 12.368c-2.07.955-2.781 1.026-3.354 1.084-1.369.136-2.285-.39-2.738-1.557l-.135-.345 7.4-.584 1.67-.168-.113-1.133c-.4-3.997-2.504-6.109-6.082-6.109-.318 0-.65.017-.99.051-3.168.318-6.83 1.859-6.275 7.396.277 2.768 1.615 6.066 6.406 6.066.387 0 .795-.021 1.213-.063.947-.095 3.023-.643 4.865-1.76l.373-.227-1.924-2.799-.316.148zm-6.389-3.51c.229-1.646 1.27-1.969 2.256-2.068a4.71 4.71 0 0 1 .48-.025c1.121 0 1.83.505 2.236 1.59l.125.333-5.146.516.049-.346zM16.485.421l1.224 12.306-4.012.399-1.169-11.759-4.232.421 1.17 11.759-4.011.399L4.23 1.64 0 2.061l1.578 15.86 20.715-2.06L20.716 0zM55.549 12.124c-.188.326-.938.729-1.572.789l-.424.04.486 3.827.397-.038c.985-.095 3.971-.382 4.953-2.816.277-.688.561-2.36.888-4.297.119-.7.24-1.412.361-2.08l.045-.246 3.121.262-.803 9.582 4.242.287L68.34 4.361l-11.012-.924-.382 1.779c-.231 1.068-.481 2.391-.702 3.558-.339 1.793-.584 3.072-.695 3.35zM33.105 10.034l4.806-5.332-4.992-.944-4.034 5.961.403-6.134-4.243-.279-.864 13.163 4.243.278.416-6.334 3.949 6.673 4.817-.39-.422-.592zM116.162.737l-3.641-.161-.709 15.923 4.249.189.404-9.104 5.045 5.354 5.502-4.885-.405 9.104 4.248.19.709-15.924-3.642-.162-6.16 6.028zM177.234 12.033c-.02-.191-.035-.39-.045-.593l-.168-3.074c-.131-2.403-1.338-3.613-2.33-4.206-2.055-1.23-4.658-1.044-8.662.599l-.408.167 1.418 2.903.322-.08c.465-.114.885-.226 1.268-.327l.105-.028c.945-.251 1.691-.45 2.314-.484.072-.004.143-.006.209-.006.846 0 1.312.328 1.514 1.062l.084.309-4.201.494c-1.197.291-4.049.981-3.867 4.336.109 1.983 1.502 4.299 5.076 4.299h.066c1.287-.082 2.5-.697 3.625-1.831l.322-.324.543 1.758 3.58-.666-.105-.424c-.345-1.388-.587-2.805-.66-3.884zm-4.607-.368c-.861 1.678-1.99 1.865-2.316 1.884l-.105-.007c-1.291.066-1.301-.614-1.312-.831-.049-.913.697-1.311 2.662-1.417.27-.015.545-.023.822-.029l.461-.011-.212.411zM150.656 8.968c-.277 1.861-.465 3.078-.562 3.355-.174.332-.908.763-1.541.848l-.42.056.631 3.807.396-.054c.98-.132 3.951-.534 4.84-3.005.25-.696.469-2.378.723-4.327l.031-.238c.082-.626.166-1.257.25-1.853l.035-.248 3.129.142-.436 9.599 4.248.193.598-13.168-11.039-.501-.314 1.792c-.188 1.061-.385 2.375-.559 3.535l-.01.067zM87.965 2.96L80.75 7.179l-.138-.079c-.94-.539-2.068-.772-3.46-.677l-2.082.141-.168-2.492-4.243.286.887 13.161 3.832-.259.664-.089 1.827-.123c3.395-.229 5.367-2.407 5.146-5.685a6.748 6.748 0 0 0-.222-1.31l-.055-.202 1.955-1.143.531 7.888 4.243-.287-.928-13.776-.574.427zm-9.61 10.124c-.248.249-.588.39-1.013.418l-1.797.121-.236-3.495 1.797-.121c.047-.003.096-.005.145-.005.526 0 1.425.214 1.521 1.648.043.629-.097 1.112-.417 1.434zM100.986 4.558a4.407 4.407 0 0 0-4.402 4.402 4.408 4.408 0 0 0 4.402 4.403 4.41 4.41 0 0 0 4.404-4.403 4.408 4.408 0 0 0-4.404-4.402z"/></g></svg>