<?xml version="1.0" encoding="utf-8"?>
<!-- Generator: Adobe Illustrator 16.0.0, SVG Export Plug-In . SVG Version: 6.00 Build 0)  -->
<!DOCTYPE svg PUBLIC "-//W3C//DTD SVG 1.1//EN" "http://www.w3.org/Graphics/SVG/1.1/DTD/svg11.dtd">
<svg version="1.1" id="Layer_1" xmlns="http://www.w3.org/2000/svg" xmlns:xlink="http://www.w3.org/1999/xlink" x="0px" y="0px"
	 width="56px" height="56px" viewBox="0 0 56 56" enable-background="new 0 0 56 56" xml:space="preserve">
<circle cx="16" cy="19" r="2"/>
<path d="M41,19c0,1.104-0.896,2-2,2H24c-1.104,0-2-0.896-2-2l0,0c0-1.104,0.896-2,2-2h15C40.104,17,41,17.896,41,19L41,19z"/>
<circle cx="16" cy="28" r="2"/>
<path d="M41,28c0,1.104-0.896,2-2,2H24c-1.104,0-2-0.896-2-2l0,0c0-1.104,0.896-2,2-2h15C40.104,26,41,26.896,41,28L41,28z"/>
<circle cx="16" cy="37" r="2"/>
<path d="M41,37c0,1.104-0.896,2-2,2H24c-1.104,0-2-0.896-2-2l0,0c0-1.104,0.896-2,2-2h15C40.104,35,41,35.896,41,37L41,37z"/>
<path d="M52,4v48H4V4H52 M55.993,0H0v55.993h55.993V0L55.993,0z"/>
</svg>
