<?xml version="1.0" encoding="utf-8"?>
<!-- Generator: Adobe Illustrator 16.0.0, SVG Export Plug-In . SVG Version: 6.00 Build 0)  -->
<!DOCTYPE svg PUBLIC "-//W3C//DTD SVG 1.1//EN" "http://www.w3.org/Graphics/SVG/1.1/DTD/svg11.dtd">
<svg version="1.1" id="Layer_1" xmlns="http://www.w3.org/2000/svg" xmlns:xlink="http://www.w3.org/1999/xlink" x="0px" y="0px"
	 width="516px" height="299px" viewBox="0 0 516 299" enable-background="new 0 0 516 299" xml:space="preserve">
<g>
	<g>
		<g>
			<rect x="65.459" y="77.236" fill="#E2DFCF" width="93.411" height="38.909"/>
			<rect x="104.779" y="105.65" fill="#54261E" width="5.433" height="10.496"/>
			<rect x="114.12" y="105.65" fill="#54261E" width="5.43" height="10.496"/>
			<rect x="76.756" y="93.067" fill="#6D9ACC" width="5.429" height="7.362"/>
			<rect x="76.756" y="100.43" fill="#3A2729" width="5.429" height="3.133"/>
			<path fill="none" d="M79.471,100.43"/>
			<path fill="none" d="M79.471,93.067"/>
			<rect x="76.756" y="105.65" fill="#6D9ACC" width="5.429" height="7.363"/>
			<rect x="76.756" y="113.014" fill="#3A2729" width="5.429" height="3.131"/>
			<rect x="86.097" y="93.067" fill="#6D9ACC" width="5.429" height="7.362"/>
			<rect x="86.097" y="100.43" fill="#3A2729" width="5.429" height="3.133"/>
			<rect x="86.097" y="105.65" fill="#6D9ACC" width="5.429" height="7.363"/>
			<rect x="86.097" y="113.014" fill="#3A2729" width="5.429" height="3.131"/>
			<rect x="95.438" y="93.067" fill="#6D9ACC" width="5.433" height="7.362"/>
			<rect x="95.438" y="100.43" fill="#3A2729" width="5.433" height="3.133"/>
			<rect x="104.779" y="93.067" fill="#6D9ACC" width="5.433" height="7.362"/>
			<rect x="104.779" y="100.43" fill="#3A2729" width="5.433" height="3.133"/>
			<rect x="114.12" y="93.067" fill="#6D9ACC" width="5.43" height="7.362"/>
			<rect x="114.12" y="100.43" fill="#3A2729" width="5.43" height="3.133"/>
			<rect x="95.438" y="105.65" fill="#6D9ACC" width="5.433" height="7.363"/>
			<rect x="95.438" y="113.014" fill="#3A2729" width="5.433" height="3.131"/>
			<rect x="123.461" y="93.067" fill="#6D9ACC" width="5.429" height="7.362"/>
			<rect x="123.461" y="100.43" fill="#3A2729" width="5.429" height="3.133"/>
			<rect x="123.461" y="105.65" fill="#6D9ACC" width="5.429" height="7.363"/>
			<rect x="123.461" y="113.014" fill="#3A2729" width="5.429" height="3.131"/>
			<rect x="132.802" y="93.067" fill="#6D9ACC" width="5.43" height="7.362"/>
			<rect x="132.802" y="100.43" fill="#3A2729" width="5.43" height="3.133"/>
			<rect x="132.802" y="105.65" fill="#6D9ACC" width="5.43" height="7.363"/>
			<rect x="132.802" y="113.014" fill="#3A2729" width="5.43" height="3.131"/>
			<rect x="142.144" y="93.067" fill="#6D9ACC" width="5.434" height="7.362"/>
			<rect x="142.144" y="100.43" fill="#3A2729" width="5.434" height="3.133"/>
			<rect x="76.756" y="80.483" fill="#6D9ACC" width="5.429" height="7.364"/>
			<rect x="76.756" y="87.847" fill="#3A2729" width="5.429" height="3.132"/>
			<rect x="86.097" y="80.483" fill="#6D9ACC" width="5.429" height="7.364"/>
			<rect x="86.097" y="87.847" fill="#3A2729" width="5.429" height="3.132"/>
			<rect x="95.438" y="80.483" fill="#6D9ACC" width="5.433" height="7.364"/>
			<rect x="95.438" y="87.847" fill="#3A2729" width="5.433" height="3.132"/>
			<rect x="104.779" y="80.483" fill="#6D9ACC" width="5.433" height="7.364"/>
			<rect x="104.779" y="87.847" fill="#3A2729" width="5.433" height="3.132"/>
			<rect x="114.12" y="80.483" fill="#6D9ACC" width="5.43" height="7.364"/>
			<rect x="114.12" y="87.847" fill="#3A2729" width="5.43" height="3.132"/>
			<rect x="123.461" y="80.483" fill="#6D9ACC" width="5.429" height="7.364"/>
			<rect x="123.461" y="87.847" fill="#3A2729" width="5.429" height="3.132"/>
			<rect x="132.802" y="80.483" fill="#6D9ACC" width="5.43" height="7.364"/>
			<rect x="132.802" y="87.847" fill="#3A2729" width="5.43" height="3.132"/>
			<rect x="142.144" y="80.483" fill="#6D9ACC" width="5.434" height="7.364"/>
			<rect x="142.144" y="87.847" fill="#3A2729" width="5.434" height="3.132"/>
			<rect x="142.144" y="105.65" fill="#6D9ACC" width="5.434" height="7.363"/>
			<rect x="142.144" y="113.014" fill="#3A2729" width="5.434" height="3.131"/>
			<g opacity="0.5">
				<rect x="65.459" y="90.979" fill="#B2AC8A" width="93.411" height="2.09"/>
			</g>
			<g opacity="0.5">
				<rect x="65.459" y="103.561" fill="#B2AC8A" width="93.411" height="2.089"/>
			</g>
			<polyline fill="#753A2E" points="120.659,105.65 121.593,106.575 121.593,107.968 102.735,107.968 102.735,106.575 
				103.669,105.65 			"/>
			<rect x="104.779" y="113.361" fill="#8C5249" width="14.771" height="2.783"/>
			<rect x="104.779" y="114.289" fill="#753A2E" width="14.771" height="1.855"/>
			<rect x="104.779" y="115.216" fill="#54261E" width="14.771" height="0.928"/>
			<rect x="102.735" y="106.575" fill="#54261E" width="18.857" height="1.393"/>
			<polyline opacity="0.2" enable-background="new    " points="121.593,107.968 124.825,116.144 104.779,116.144 104.779,107.968 
							"/>
		</g>
		<g>
			<rect x="246.842" y="97.897" fill="#E2DFCF" width="98.913" height="46.312"/>
			<rect x="249.165" y="104.413" fill="#6D9ACC" width="9.481" height="9.422"/>
			<rect x="249.165" y="118.447" fill="#6D9ACC" width="9.481" height="9.423"/>
			<rect x="249.165" y="132.484" fill="#6D9ACC" width="9.481" height="9.419"/>
			<rect x="263.295" y="104.413" fill="#6D9ACC" width="9.481" height="9.422"/>
			<rect x="263.295" y="118.447" fill="#6D9ACC" width="9.481" height="9.423"/>
			<rect x="263.295" y="132.484" fill="#6D9ACC" width="9.481" height="9.419"/>
			<rect x="277.425" y="104.413" fill="#6D9ACC" width="9.485" height="4.712"/>
			<rect x="277.425" y="118.447" fill="#6D9ACC" width="9.485" height="4.712"/>
			<rect x="291.557" y="104.413" fill="#6D9ACC" width="9.484" height="9.422"/>
			<rect x="291.557" y="118.447" fill="#6D9ACC" width="9.484" height="9.423"/>
			<rect x="305.688" y="104.413" fill="#6D9ACC" width="9.484" height="4.712"/>
			<rect x="305.688" y="118.447" fill="#6D9ACC" width="9.484" height="4.712"/>
			<rect x="258.65" y="104.413" fill="#F7D50F" width="4.646" height="9.422"/>
			<rect x="258.65" y="118.447" fill="#F7D50F" width="4.646" height="9.423"/>
			<rect x="258.65" y="132.484" fill="#F7D50F" width="4.646" height="9.419"/>
			<rect x="319.816" y="104.413" fill="#6D9ACC" width="9.487" height="9.422"/>
			<rect x="319.816" y="118.447" fill="#6D9ACC" width="9.487" height="9.423"/>
			<rect x="319.816" y="132.484" fill="#6D9ACC" width="9.487" height="9.419"/>
			<rect x="333.947" y="104.413" fill="#6D9ACC" width="9.486" height="9.422"/>
			<rect x="333.947" y="118.447" fill="#6D9ACC" width="9.486" height="9.423"/>
			<rect x="333.947" y="132.484" fill="#6D9ACC" width="9.486" height="9.419"/>
			<rect x="329.304" y="104.413" fill="#F7D50F" width="4.644" height="9.422"/>
			<rect x="329.304" y="118.447" fill="#F7D50F" width="4.644" height="9.423"/>
			<rect x="329.304" y="132.484" fill="#F7D50F" width="4.644" height="9.419"/>
			
				<line fill="none" stroke="#C4BFA9" stroke-width="0.7056" stroke-miterlimit="10" x1="246.842" y1="116.142" x2="345.755" y2="116.142"/>
			
				<line fill="none" stroke="#C4BFA9" stroke-width="0.7056" stroke-miterlimit="10" x1="246.842" y1="130.176" x2="345.755" y2="130.176"/>
			
				<line fill="none" stroke="#C4BFA9" stroke-width="0.7056" stroke-miterlimit="10" x1="246.842" y1="102.107" x2="345.755" y2="102.107"/>
			
				<line fill="none" stroke="#C4BFA9" stroke-width="0.7056" stroke-miterlimit="10" x1="275.104" y1="102.107" x2="275.104" y2="130.176"/>
			
				<line fill="none" stroke="#C4BFA9" stroke-width="0.7056" stroke-miterlimit="10" x1="289.232" y1="102.107" x2="289.232" y2="130.176"/>
			
				<line fill="none" stroke="#C4BFA9" stroke-width="0.7056" stroke-miterlimit="10" x1="303.364" y1="102.107" x2="303.364" y2="130.176"/>
			
				<line fill="none" stroke="#C4BFA9" stroke-width="0.7056" stroke-miterlimit="10" x1="317.492" y1="102.107" x2="317.492" y2="130.176"/>
			<rect x="273.688" y="131.463" fill="#231F20" width="45.218" height="12.747"/>
			<g>
				<path fill="#EDEBE4" d="M305.688,129.722h-0.911h-13.22h-0.909h-15.544v4.486h3.483c0.853-1.035,2.131-1.708,3.582-1.708
					c1.449,0,2.729,0.674,3.579,1.708h4.896h0.909h1.162c0.85-1.035,2.13-1.708,3.579-1.708c1.451,0,2.729,0.674,3.579,1.708h4.896
					h0.911h1.161c0.852-1.035,2.13-1.708,3.58-1.708s2.729,0.674,3.58,1.708h3.48v-4.486H305.688L305.688,129.722z"/>
				<rect x="316.079" y="129.722" fill="#F4F2E9" width="3.733" height="14.487"/>
				<rect x="272.78" y="129.722" fill="#F4F2E9" width="3.736" height="14.487"/>
				<rect x="287.82" y="129.722" fill="#F4F2E9" width="2.827" height="14.487"/>
				<rect x="301.948" y="129.722" fill="#F4F2E9" width="2.825" height="14.487"/>
			</g>
			
				<line fill="none" stroke="#C4BFA9" stroke-width="0.7056" stroke-miterlimit="10" x1="246.842" y1="116.142" x2="345.755" y2="116.142"/>
			<polygon opacity="0.25" enable-background="new    " points="328.104,144.209 319.816,144.209 319.816,129.722 321.345,129.722 
							"/>
		</g>
		<polygon fill="#287846" points="224.495,116.144 31.396,116.144 31.396,154.001 346.692,182.355 346.692,143.898 224.495,143.898 
					"/>
		<g>
			<path fill="#BC0C0C" d="M212.856,280.945c-10.023,0-18.15,8.072-18.15,18.031h36.309
				C231.011,289.018,222.884,280.945,212.856,280.945z"/>
			<polygon fill="#BC0C0C" points="212.543,280.945 197.724,280.945 194.389,298.979 212.543,298.979 			"/>
		</g>
		<g>
			<path fill="#BC0C0C" d="M255.767,280.945c-10.028,0-18.157,8.072-18.157,18.031h36.312
				C273.919,289.018,265.793,280.945,255.767,280.945z"/>
			<polygon fill="#BC0C0C" points="255.453,280.945 240.631,280.945 237.297,298.979 255.453,298.979 			"/>
		</g>
		<path fill="#111123" d="M231.598,24.27c6.068,6.029,15.903,6.029,21.967,0c6.072-6.026,6.072-15.048,0-21.077L237.5,3.473"/>
		<g>
			<path fill="#F9D8A4" d="M214.584,284.752l-14.924-1.802c5-40.851,7.181-58.597,0.217-79.117
				c-2.317-6.825-1.528-12.685-0.896-17.394c0.261-1.906,0.5-3.707,0.5-5.314h15.033c0,2.604-0.321,4.988-0.631,7.293
				c-0.536,3.977-0.959,7.118,0.238,10.645C222.736,224.447,219.325,246.014,214.584,284.752z"/>
		</g>
		<g>
			<path fill="#F9D8A4" d="M257.631,284.646l-14.948-1.586c4.479-41.562,3.419-63.985-3.671-84.875
				c-2.641-7.777-2.561-14.263-2.489-19.984c0.015-0.906,0.022-1.809,0.022-2.719h15.034c0,0.973-0.015,1.937-0.024,2.9
				c-0.062,5.188-0.119,9.666,1.702,15.036C260.98,216.165,262.397,240.387,257.631,284.646z"/>
		</g>
		<g>
			<path fill="#4A639D" d="M220.684,278.732l-21.188-2.147c2.916-28.362,6.189-51.422-0.708-71.756
				c-2.554-7.515-1.671-14.037-1.03-18.802c0.254-1.875,0.472-3.5,0.472-4.9h21.297c0,2.811-0.35,5.412-0.655,7.705
				c-0.555,4.086-0.818,6.531,0.102,9.238C227.095,222.016,223.881,247.632,220.684,278.732z"/>
		</g>
		<g>
			<path fill="#4A639D" d="M263.539,278.443l-21.239-1.572c2.345-31.245,2.764-56.657-4.378-77.691
				c-2.812-8.279-2.729-15.043-2.653-21.019c0.012-0.892,0.023-1.783,0.023-2.681h21.297c0,0.983-0.012,1.963-0.024,2.94
				c-0.062,5.104-0.109,9.136,1.539,14C266.172,216.188,266.1,244.326,263.539,278.443z"/>
		</g>
		<path fill="#1F3B68" d="M262.521,164.568c0.48,6.826-4.749,12.803-11.622,13.284l-49.044,3.417
			c-6.873,0.477-12.895-4.715-13.374-11.543l-5.041-71.369c-0.481-6.826,4.749-12.805,11.622-13.283l49.045-3.417
			c6.873-0.479,12.89,4.714,13.373,11.541L262.521,164.568z"/>
		<polygon fill="#4A639D" points="209.506,202.986 252.078,197.257 246.254,178.934 209.506,178.934 		"/>
		<path fill="#111123" d="M227.92,79.178c-26.463,0-29.032,4.005-29.032,21.992l-4.496,88.231L258,185.625l1.146-84.455
			C259.146,83.183,254.385,79.178,227.92,79.178z"/>
		<g>
			<path fill="#191438" d="M186.803,190.256c-4.214,0-8.046-2.838-9.11-7.081c-8.995-35.894-14.259-70.255,19.678-96.13
				c4.113-3.137,10.015-2.369,13.175,1.719c3.16,4.089,2.385,9.946-1.73,13.086c-22.938,17.494-22.433,38.71-12.883,76.817
				c1.253,5.002-1.812,10.067-6.849,11.313C188.318,190.165,187.554,190.256,186.803,190.256z"/>
		</g>
		<g>
			<path d="M198.167,173.221l-0.006-12.441c6.51-0.174,40.809-26.408,42.317-73.925l12.522,0.395
				c-0.92,28.9-12.521,49.795-22.087,62.232C220.163,163.455,206.696,173.221,198.167,173.221z"/>
		</g>
		<g>
			<path fill="#355797" d="M194.993,170.031v-12.442c2.677-0.002,13.6-5.856,24.75-20.351c9.087-11.813,20.104-31.672,20.979-59.188
				l12.522,0.394c-0.98,30.816-13.351,53.092-23.553,66.356C218.264,159.654,203.994,170.031,194.993,170.031z"/>
		</g>
		<g>
			
				<linearGradient id="SVGID_1_" gradientUnits="userSpaceOnUse" x1="176.2581" y1="686.875" x2="176.2581" y2="695.4525" gradientTransform="matrix(1 0 0 1 49.9746 -610.3672)">
				<stop  offset="0" style="stop-color:#EFCAA0"/>
				<stop  offset="1" style="stop-color:#F9D8A4"/>
			</linearGradient>
			<path fill="url(#SVGID_1_)" d="M236.335,66.839c0-5.539-4.522-10.032-10.104-10.032l0,0c-5.579,0-10.101,4.492-10.101,10.032
				v9.117c0,5.54,4.521,10.032,10.101,10.032l0,0c5.579,0,10.104-4.491,10.104-10.032V66.839z"/>
			<g>
				<g>
					
						<linearGradient id="SVGID_3_" gradientUnits="userSpaceOnUse" x1="176.2581" y1="686.875" x2="176.2581" y2="695.4525" gradientTransform="matrix(1 0 0 1 49.9746 -610.3672)">
						<stop  offset="0" style="stop-color:#EFCAA0"/>
						<stop  offset="1" style="stop-color:#F9D8A4"/>
					</linearGradient>
					<path id="SVGID_2_" fill="url(#SVGID_3_)" d="M236.335,66.839c0-5.539-4.522-10.032-10.104-10.032l0,0
						c-5.579,0-10.101,4.492-10.101,10.032v9.117c0,5.54,4.521,10.032,10.101,10.032l0,0c5.579,0,10.104-4.491,10.104-10.032V66.839
						z"/>
				</g>
				<g>
					<g>
						<g>
							<g>
								<defs>
									<path id="SVGID_4_" d="M236.335,66.839c0-5.539-4.522-10.032-10.104-10.032l0,0c-5.579,0-10.101,4.492-10.101,10.032v9.117
										c0,5.54,4.521,10.032,10.101,10.032l0,0c5.579,0,10.104-4.491,10.104-10.032V66.839z"/>
								</defs>
								<clipPath id="SVGID_5_">
									<use xlink:href="#SVGID_4_"  overflow="visible"/>
								</clipPath>
								
									<linearGradient id="SVGID_6_" gradientUnits="userSpaceOnUse" x1="176.26" y1="686.874" x2="176.26" y2="695.453" gradientTransform="matrix(1 0 0 1 49.9746 -610.3672)">
									<stop  offset="0" style="stop-color:#EFCAA0"/>
									<stop  offset="1" style="stop-color:#F9D8A4"/>
								</linearGradient>
								<path clip-path="url(#SVGID_5_)" fill="url(#SVGID_6_)" d="M229.785,78.76c2.317,0,4.528,0.362,6.55,1.009V69.623h-20.201
									v14.423C219.253,80.841,224.199,78.76,229.785,78.76z"/>
							</g>
						</g>
					</g>
				</g>
			</g>
		</g>
		<path fill="#EFCAA0" d="M249.78,52.747c-1.771,1.763-4.646,1.763-6.423,0l0,0c-1.771-1.76-1.771-4.617,0-6.377l5.371-5.332
			c1.774-1.764,4.649-1.764,6.423,0l0,0c1.774,1.761,1.774,4.617,0,6.376L249.78,52.747z"/>
		<path fill="#F9D8A4" d="M204.154,17.457v33.051c0,12.713,10.377,23.019,23.18,23.019c12.8,0,23.176-10.307,23.176-23.019
			l-3.132-33.051H204.154z"/>
		<path fill="#111123" d="M211.565,26.418c1.539,1.528,4.034,1.528,5.573,0l-5.573-5.536
			C210.026,22.412,210.026,24.893,211.565,26.418z"/>
		<g>
			<path fill="#EFA481" d="M237.089,50.29c-0.281,0.097-0.583,0.146-0.898,0.135c-4.229-0.142-6.632-5.515-6.545-8.13
				c0.031-0.848,0.75-1.51,1.6-1.479c0.853,0.027,1.52,0.737,1.487,1.583c-0.029,0.927,2.127,3.06,3.625,3.11
				c1.367,0.047,2.438,1.183,2.396,2.543C238.713,49.093,238.027,49.964,237.089,50.29z"/>
		</g>
		<path fill="#111123" d="M250.506,19.713l-8.299,4.508c0,0-18.722,0-21.297,0c-2.579,0-8.641,0-8.641,0l-2.794,19.442h-6.89
			c0,0-1.879-20.685-1.879-25.39c0-7.838,6.396-14.192,14.29-14.192c6.304,0,33.194,0,33.194,0"/>
		<g>
			<path fill="#0D685F" d="M218.273,215.521l-2.131-5.047l-6.925-29.342c-0.084-0.354-0.321-0.654-0.65-0.818
				c-0.329-0.17-0.713-0.188-1.054-0.039l-37.938,15.791c-3.205,1.334-4.724,5.011-3.381,8.192l11.825,28.021
				c0.128,0.305,0.374,0.547,0.685,0.67c0.148,0.062,0.312,0.095,0.475,0.095c0.165,0,0.33-0.032,0.484-0.101l7.856-3.271
				l30.078-12.52c0.31-0.133,0.549-0.371,0.675-0.68C218.403,216.167,218.401,215.826,218.273,215.521z"/>
			<g>
				<path fill="#C5E3EA" d="M217.572,217.162l-12.276-29.182c-1.079-2.556,0.132-5.492,2.705-6.563l0,0
					c2.568-1.071,5.527,0.131,6.605,2.687l12.417,29.121"/>
				<path fill="#08514A" d="M216.447,217.63l-12.311-29.165c-0.65-1.544-0.658-3.246-0.021-4.792
					c0.637-1.55,1.843-2.755,3.396-3.399c1.553-0.646,3.266-0.653,4.823-0.022c1.558,0.636,2.771,1.834,3.425,3.373l12.311,29.167
					l-2.311,0.964l-12.313-29.166c-0.393-0.932-1.123-1.647-2.062-2.03s-1.969-0.379-2.906,0.012
					c-0.936,0.393-1.662,1.117-2.046,2.051c-0.384,0.936-0.38,1.959,0.012,2.885l12.312,29.168L216.447,217.63z"/>
			</g>
		</g>
		<path fill="#F9D8A4" d="M196.221,180.143l-18.488,4.028l2.057,9.3c1.185,5.055,6.271,8.199,11.36,7.024
			c5.015-1.159,8.147-6.075,7.115-11.052l0.01-0.002L196.221,180.143z"/>
		<path fill="#F9D8A4" d="M210.521,46.37c1.772,1.761,1.772,4.619,0,6.377l0,0c-1.771,1.763-4.646,1.763-6.423,0l-5.371-5.333
			c-1.771-1.761-1.771-4.617,0-6.376l0,0c1.774-1.764,4.649-1.764,6.423,0L210.521,46.37z"/>
		
			<linearGradient id="SVGID_7_" gradientUnits="userSpaceOnUse" x1="-127.4661" y1="376.9297" x2="-122.201" y2="382.1948" gradientTransform="matrix(1.3283 0.3283 0.3283 1.3283 244.1708 -416.171)">
			<stop  offset="0" style="stop-color:#EFA481"/>
			<stop  offset="1" style="stop-color:#F9D8A4"/>
		</linearGradient>
		<path fill="url(#SVGID_7_)" d="M211.012,50.497c2.085,2.074,2.757,4.77,1.498,6.021l0,0c-1.262,1.25-3.975,0.583-6.063-1.49
			l-6.318-6.277c-2.086-2.073-2.757-4.769-1.5-6.02l0,0c1.263-1.252,3.974-0.586,6.062,1.487L211.012,50.497z"/>
		<path fill="#111123" d="M231.598,20.453c5.063,5.028,13.264,5.028,18.322,0c5.062-5.027,5.062-12.427,0-17.456L236.677,2.27"/>
		<ellipse cx="240.172" cy="39.074" rx="2.036" ry="2.022"/>
		<ellipse cx="221.771" cy="39.074" rx="2.036" ry="2.022"/>
		<g>
			<path fill="#191438" d="M264.389,152.094c-2.558,0-5.084-1.033-6.917-3.01l-17.297-18.663c-3.514-3.792-3.27-9.697,0.549-13.188
				c1.363-1.245,2.997-2.013,4.693-2.318c-2.144-7.33-4.145-14.946-5.439-21.595c-0.983-5.06,2.341-9.957,7.438-10.938
				c5.095-0.97,10.021,2.326,11.014,7.385c3.809,19.5,14.688,49.526,14.796,49.829c1.521,4.179-0.139,8.844-3.966,11.146
				C267.746,151.65,266.061,152.094,264.389,152.094z"/>
		</g>
		<g>
			<path fill="#355797" d="M246.436,114.169l-11.792-4.204c3.688-10.188,5.729-20.928,6.078-31.915l12.522,0.391
				C252.854,90.732,250.563,102.753,246.436,114.169z"/>
		</g>
		<g>
			<g>
				<path fill="#DBDAD5" d="M254.95,99.604c0.558,2.266-0.843,4.55-3.122,5.103c-2.278,0.554-4.579-0.833-5.14-3.1
					c-0.558-2.262,0.845-4.549,3.12-5.102C252.095,95.951,254.395,97.341,254.95,99.604z"/>
				<g>
					<g>
						<g>
							<g>
								<g>
									<defs>
										<path id="SVGID_8_" d="M254.95,99.604c0.558,2.266-0.843,4.55-3.122,5.103c-2.278,0.554-4.579-0.833-5.14-3.1
											c-0.558-2.262,0.845-4.549,3.12-5.102C252.095,95.951,254.395,97.341,254.95,99.604z"/>
									</defs>
									<clipPath id="SVGID_9_">
										<use xlink:href="#SVGID_8_"  overflow="visible"/>
									</clipPath>
									<polygon clip-path="url(#SVGID_9_)" points="253.734,99.899 250.24,98.354 250.6,99.818 244.243,98.311 246.049,105.655 
										250.989,101.408 251.351,102.873 									"/>
								</g>
							</g>
						</g>
					</g>
				</g>
			</g>
			<circle fill="#FFFFFF" cx="248.744" cy="98.543" r="0.917"/>
		</g>
		<g>
			<path fill="#F8DA02" d="M243.856,90.146c-0.479,2.283-2.73,3.747-5.034,3.269c-2.295-0.476-3.771-2.713-3.285-4.996
				c0.479-2.282,2.729-3.747,5.025-3.27C242.862,85.628,244.335,87.866,243.856,90.146z"/>
			<polygon fill="#D92355" points="240.237,86.703 240.655,88.315 242.229,88.883 240.814,89.777 240.753,91.441 239.463,90.381 
				237.854,90.837 238.468,89.292 237.533,87.909 239.204,88.013 			"/>
			<path fill="#FFFFFF" d="M238.526,87.219c0,0.506-0.412,0.916-0.92,0.916c-0.512,0-0.923-0.41-0.923-0.916
				c0-0.506,0.411-0.916,0.923-0.916C238.115,86.305,238.526,86.714,238.526,87.219z"/>
		</g>
		<g>
			<path d="M231.603,128.104c0.573,2.261-0.81,4.555-3.088,5.125c-2.276,0.567-4.585-0.807-5.158-3.067
				c-0.566-2.263,0.813-4.554,3.088-5.123C228.723,124.469,231.033,125.841,231.603,128.104z"/>
			<polygon fill="#D92355" points="227.82,126.091 225.605,130.526 227.514,129.671 227.113,132.182 229.361,127.763 
				227.453,128.547 			"/>
			<path fill="#FFFFFF" d="M226.337,127.068c0,0.506-0.411,0.916-0.919,0.916c-0.516,0-0.923-0.41-0.923-0.916
				c0-0.506,0.407-0.916,0.923-0.916C225.926,126.153,226.337,126.562,226.337,127.068z"/>
		</g>
		<polygon fill="#0D685F" points="203.334,195.711 196.623,198.516 193.588,186.117 198.419,184.102 		"/>
		<polygon fill="#324977" points="221.319,271.75 200.133,269.885 199.395,276.623 220.64,278.749 		"/>
		<polygon fill="#324977" points="264.257,271.438 242.721,269.885 242.332,276.828 263.579,278.438 		"/>
		<polygon fill="#BC0C0C" points="221.319,291.036 199.395,291.036 204.301,286.525 214.957,281.068 		"/>
		<polygon fill="#BC0C0C" points="264.384,291.036 242.459,291.036 247.365,286.525 258.021,281.068 		"/>
		<polyline fill="#355797" points="239.977,102.61 235.442,107.548 246.983,113.108 249.333,105.333 		"/>
		<path fill="#F9D8A4" d="M250.69,115.473l-6.929-8.021c-2.107-2.385-5.865-2.532-8.393-0.329l-4.151,3.614
			c-2.529,2.204-2.872,5.922-0.764,8.309l6.927,8.023"/>
		<g>
			<polygon points="239.751,130.012 237.25,127.223 250.664,115.352 253.165,118.139 			"/>
		</g>
		<path fill="#FFFFFF" d="M251.128,120.496c-0.484-2.049-2.552-3.316-4.615-2.834c-2.062,0.483-3.34,2.536-2.853,4.584
			c0.483,2.049,2.554,3.317,4.613,2.834C250.338,124.598,251.615,122.544,251.128,120.496z"/>
		<path fill="#FFFFFF" d="M228.025,63.343c4.118,1.111,8.361-1.301,9.482-5.388l-14.906-4.031
			C221.48,58.013,223.91,62.229,228.025,63.343z"/>
		<ellipse fill="#EFA481" cx="215.028" cy="46.891" rx="1.247" ry="1.247"/>
		<ellipse fill="#EFA481" cx="220.979" cy="46.891" rx="1.248" ry="1.248"/>
		<ellipse fill="#EFA481" cx="218.16" cy="50.314" rx="1.248" ry="1.248"/>
		<path fill="#753A2E" d="M365.798,266c2.296,0,4.153,1.848,4.153,4.125v21.756c2.465,1.426,4.126,4.072,4.126,7.105h-8.15
			c-0.044,0.002-0.085,0.014-0.129,0.014c-2.293,0-4.151-1.846-4.151-4.126l-3.32-24.747C358.323,267.848,363.505,266,365.798,266z"
			/>
		<path fill="#592B26" d="M343.761,267.244c0,8.906-6.271,16.349-14.663,18.229l-2.494,6.411c2.462,1.425,4.121,4.07,4.121,7.101
			h-8.145c-0.044,0-0.087,0.014-0.131,0.014c-2.296,0-4.15-1.846-4.15-4.125l2.491-27.628
			C322.305,267.244,343.761,267.244,343.761,267.244z"/>
		<path fill="#592B26" d="M365.798,266c2.292,0,4.153,1.848,4.153,4.125v21.756c2.465,1.426,4.126,4.072,4.126,7.105h-8.152
			c-0.042,0.002-0.083,0.014-0.127,0.014c-2.293,0-4.151-1.846-4.151-4.126l-3.323-24.747C358.323,267.848,363.505,266,365.798,266z
			"/>
		<path fill="#753A2E" d="M344.705,266c0-9.719,7.934-17.598,17.721-17.598l0,0c9.785,0,17.721,7.879,17.721,17.598l0,0
			c0,9.717-7.936,17.6-17.721,17.6l0,0C352.639,283.6,344.705,275.717,344.705,266L344.705,266z"/>
		<path fill="#753A2E" d="M306.314,267.018c0.32-3.557,1.186-13.117,1.186-13.117l54.93-5.496V283.6l-37.477-7.945
			c-2.498,4.906-7.103,8.58-12.641,9.818l-2.492,6.41c2.461,1.424,4.12,4.07,4.12,7.102h-8.144c-0.045,0-0.085,0.013-0.13,0.013
			c-2.295,0-4.153-1.845-4.153-4.125l1.953-21.653C303.467,273.219,305.991,270.572,306.314,267.018z"/>
		<path fill="#753A2E" d="M356.936,223.619c-3.822-3.795-3.822-9.952,0-13.752l13.85,13.752
			C366.96,227.417,360.76,227.417,356.936,223.619z"/>
		<path fill="#753A2E" d="M343.646,227.469c-3.824-3.798-3.824-9.953,0-13.75l13.849,13.75
			C353.669,231.266,347.469,231.266,343.646,227.469z"/>
		<path fill="#753A2E" d="M374.943,273.479c-1.507-1.496-1.51-3.926,0-5.422l5.463,5.422
			C378.896,274.979,376.45,274.979,374.943,273.479z"/>
		<path fill="#753A2E" d="M376.238,270.814c-1.507-1.5-1.507-3.926,0-5.426l5.466,5.426
			C380.191,272.312,377.745,272.312,376.238,270.814z"/>
		<path fill="#753A2E" d="M377.532,268.152c-1.511-1.502-1.511-3.926,0-5.424l5.461,5.424
			C381.486,269.648,379.041,269.648,377.532,268.152z"/>
		<polygon fill="#753A2E" points="323.11,267.244 380.146,267.244 380.146,248.402 323.11,261.738 		"/>
		<path fill="#753A2E" d="M386.092,257.051c-15.523,2.268-29.959-8.386-32.242-23.802l56.21-8.222
			C412.341,240.441,401.612,254.781,386.092,257.051z"/>
		<polygon fill="#753A2E" points="386.092,257.051 357.986,261.161 353.85,233.247 381.953,229.139 		"/>
		<path fill="#FFFFFF" d="M370.647,254.141c-5.52-1.088-9.104-6.414-8.009-11.896l19.984,3.94
			C381.528,251.668,376.164,255.229,370.647,254.141z"/>
		
			<ellipse transform="matrix(-0.9878 0.1556 -0.1556 -0.9878 785.4449 397.6916)" cx="377.162" cy="229.578" rx="2.285" ry="2.268"/>
		<ellipse cx="360.834" cy="232.177" rx="2.283" ry="2.274"/>
		<path d="M398.897,226.661l11.162-1.634c0.569,3.852,0.327,7.641-0.604,11.184C404.055,235.934,399.664,231.887,398.897,226.661z"
			/>
		<path fill="#753A2E" d="M357.077,298.984c0-3.033-1.665-5.682-4.13-7.105v-21.756c0-2.277-1.857-4.125-4.151-4.125
			s-7.478,1.848-7.478,4.125l3.322,24.747c0,2.278,1.856,4.125,4.151,4.125c0.044,0,0.086-0.013,0.13-0.013L357.077,298.984
			L357.077,298.984z"/>
		<g>
			<path fill="#753A2E" d="M293.238,255.223c-6.92-6.869-6.92-18.017,0-24.888l25.063,24.888
				C311.379,262.098,300.159,262.098,293.238,255.223z"/>
			<g>
				<g>
					<g>
						<g>
							<g>
								<defs>
									<path id="SVGID_10_" d="M293.238,255.223c-6.92-6.869-6.92-18.017,0-24.888l25.063,24.888
										C311.379,262.098,300.159,262.098,293.238,255.223z"/>
								</defs>
								<clipPath id="SVGID_11_">
									<use xlink:href="#SVGID_10_"  overflow="visible"/>
								</clipPath>
								<g clip-path="url(#SVGID_11_)">
									<g>
										<path d="M294.899,263.887c-0.039,0-0.078-0.007-0.117-0.017c-0.221-0.065-0.348-0.298-0.278-0.519l3.812-12.861
											c0.066-0.219,0.298-0.34,0.52-0.278c0.221,0.063,0.347,0.296,0.278,0.515L295.3,263.59
											C295.244,263.77,295.08,263.887,294.899,263.887z"/>
									</g>
									<g>
										<path d="M299.052,268.009c-0.039,0-0.078-0.006-0.117-0.018c-0.22-0.063-0.345-0.294-0.28-0.515l3.813-12.857
											c0.063-0.221,0.297-0.344,0.516-0.278c0.224,0.063,0.35,0.294,0.281,0.513l-3.812,12.858
											C299.398,267.895,299.233,268.009,299.052,268.009z"/>
									</g>
									<g>
										<path d="M290.747,259.764c-0.039,0-0.078-0.008-0.117-0.02c-0.221-0.062-0.347-0.295-0.281-0.516l3.813-12.859
											c0.062-0.223,0.296-0.342,0.518-0.28c0.22,0.063,0.346,0.294,0.28,0.515l-3.813,12.861
											C291.092,259.645,290.927,259.764,290.747,259.764z"/>
									</g>
								</g>
							</g>
						</g>
					</g>
				</g>
			</g>
		</g>
		<path opacity="0.2" enable-background="new    " d="M320.79,267.244"/>
		<path opacity="0.2" enable-background="new    " d="M320.79,267.244"/>
		<g>
			<polygon fill="#D99177" points="0,144.683 0,188.338 147.982,188.338 147.982,182.104 147.982,172.748 147.982,163.395 
				147.982,154.038 147.982,144.683 			"/>
			<rect x="16.991" y="144.683" fill="#D3DFEA" width="100.847" height="43.655"/>
			<polygon fill="#BF7E6A" points="15.698,144.683 15.698,154.038 15.698,163.395 15.698,172.748 15.698,182.104 15.698,188.338 
				31.396,188.338 31.396,182.104 31.396,172.748 31.396,163.395 31.396,154.038 31.396,144.683 			"/>
			<polygon fill="#D99177" points="0,144.683 0,154.038 0,163.395 0,172.748 0,182.104 0,188.338 15.698,188.338 15.698,182.104 
				15.698,172.748 15.698,163.395 15.698,154.038 15.698,144.683 			"/>
			<polygon fill="#E7EFF8" points="47.095,154.038 47.095,163.395 47.095,188.338 100.887,188.338 100.887,163.395 100.887,154.038 
							"/>
			<rect x="47.095" y="144.683" fill="#6D9ACC" width="53.792" height="9.355"/>
			<rect x="47.095" y="136.108" fill="#ACCDEA" width="53.792" height="8.576"/>
			<rect x="50.417" y="157.156" fill="#6D9ACC" width="13.501" height="12.473"/>
			<rect x="67.241" y="157.156" fill="#6D9ACC" width="13.501" height="12.473"/>
			<g>
				<rect x="50.417" y="162.77" fill="#E7EFF8" width="13.501" height="1.246"/>
			</g>
			<rect x="84.064" y="157.156" fill="#6D9ACC" width="13.5" height="12.473"/>
			<g>
				<rect x="84.064" y="162.77" fill="#E7EFF8" width="13.5" height="1.246"/>
			</g>
			<rect x="34.536" y="157.156" fill="#6D9ACC" width="9.419" height="3.121"/>
			<rect x="34.536" y="166.514" fill="#6D9ACC" width="9.419" height="3.115"/>
			<rect x="34.536" y="175.865" fill="#6D9ACC" width="9.419" height="3.119"/>
			<g>
				<rect x="18.838" y="152.479" fill="#6D9ACC" width="9.419" height="26.508"/>
			</g>
			<rect x="18.838" y="150.92" fill="#E7EFF8" width="9.419" height="3.118"/>
			<rect x="18.838" y="160.275" fill="#E7EFF8" width="9.419" height="3.119"/>
			<rect x="18.838" y="169.629" fill="#E7EFF8" width="9.419" height="3.119"/>
			<rect x="0" y="147.803" fill="#FFE690" width="12.562" height="6.235"/>
			<rect x="0" y="150.92" fill="#F7F7F7" width="9.423" height="3.118"/>
			<rect x="84.064" y="172.748" opacity="0.25" enable-background="new    " width="13.5" height="15.59"/>
			<polygon opacity="0.75" enable-background="new    " points="97.564,178.1 84.064,182.697 84.064,172.748 97.564,172.748 			"/>
			<rect x="67.241" y="172.748" opacity="0.25" enable-background="new    " width="13.501" height="15.59"/>
			<polygon opacity="0.75" enable-background="new    " points="80.742,178.1 67.241,182.697 67.241,172.748 80.742,172.748 			"/>
			<rect x="100.887" y="144.683" fill="#D3DFEA" width="15.698" height="43.655"/>
			<polygon fill="#BF7E6A" points="116.585,144.683 116.585,154.038 116.585,163.395 116.585,172.748 116.585,182.104 
				116.585,188.338 132.284,188.338 132.284,182.104 132.284,172.748 132.284,163.395 132.284,154.038 132.284,144.683 			"/>
			<rect x="104.027" y="157.156" fill="#6D9ACC" width="9.419" height="3.121"/>
			<rect x="104.027" y="166.514" fill="#6D9ACC" width="9.419" height="3.115"/>
			<rect x="104.027" y="175.865" fill="#6D9ACC" width="9.419" height="3.119"/>
			<g>
				<rect x="119.725" y="152.479" fill="#6D9ACC" width="9.419" height="26.508"/>
			</g>
			<rect x="119.725" y="150.92" fill="#E7EFF8" width="9.419" height="3.118"/>
			<rect x="119.725" y="160.275" fill="#E7EFF8" width="9.419" height="3.119"/>
			<rect x="119.725" y="169.629" fill="#E7EFF8" width="9.419" height="3.119"/>
			<rect x="135.424" y="147.803" fill="#FFE690" width="12.558" height="6.235"/>
			<rect x="138.563" y="150.92" fill="#F7F7F7" width="9.419" height="3.118"/>
			<polygon opacity="0.25" enable-background="new    " points="100.887,144.683 112.816,188.338 100.887,188.338 			"/>
			<polygon opacity="0.25" enable-background="new    " points="116.585,144.683 128.514,188.338 116.585,188.338 			"/>
			<polygon opacity="0.25" enable-background="new    " points="15.698,144.683 27.626,188.338 15.698,188.338 			"/>
			<rect x="55.013" y="136.108" fill="#5487B2" width="1.256" height="17.93"/>
			<rect x="64.189" y="136.108" fill="#5487B2" width="1.255" height="17.93"/>
			<rect x="73.363" y="136.108" fill="#5487B2" width="1.26" height="17.93"/>
			<rect x="82.538" y="136.108" fill="#5487B2" width="1.255" height="17.93"/>
			<rect x="91.712" y="136.108" fill="#5487B2" width="1.255" height="17.93"/>
			<rect x="0" y="157.156" fill="#FFE690" width="12.562" height="6.24"/>
			<rect x="0" y="160.275" fill="#F7F7F7" width="9.423" height="3.119"/>
			<rect x="0" y="166.514" fill="#FFE690" width="12.562" height="6.234"/>
			<rect x="0" y="169.629" fill="#F7F7F7" width="9.423" height="3.119"/>
			<rect x="0" y="175.865" fill="#FFE690" width="12.562" height="6.236"/>
			<rect x="0" y="178.984" fill="#F7F7F7" width="9.423" height="3.117"/>
			<rect x="135.424" y="157.156" fill="#FFE690" width="12.558" height="6.24"/>
			<rect x="138.563" y="160.275" fill="#F7F7F7" width="9.419" height="3.119"/>
			<rect x="135.424" y="166.514" fill="#FFE690" width="12.558" height="6.234"/>
			<rect x="138.563" y="169.629" fill="#F7F7F7" width="9.419" height="3.119"/>
			<rect x="135.424" y="175.865" fill="#FFE690" width="12.558" height="6.236"/>
			<rect x="138.563" y="178.984" fill="#F7F7F7" width="9.419" height="3.117"/>
			<rect x="50.417" y="172.748" opacity="0.25" enable-background="new    " width="13.501" height="15.59"/>
			<polygon opacity="0.75" enable-background="new    " points="63.918,178.1 50.417,182.697 50.417,172.748 63.918,172.748 			"/>
		</g>
		<polygon fill="#0C6B2C" points="147.982,239.146 0,215.04 0,188.338 147.982,188.338 		"/>
		<polygon fill="#753A2E" points="426.453,91.813 342.734,91.813 342.734,161.766 510.181,161.766 510.181,91.813 		"/>
		<polygon fill="#6D9ACC" points="415.963,124.509 415.963,128.863 415.963,131.068 415.963,138.559 407.198,138.559 
			407.198,131.068 407.198,128.863 407.198,124.509 		"/>
		<path fill="#E7EFF8" d="M418.026,109.164c0-3.537-2.886-6.405-6.444-6.405c-3.56,0-6.444,2.868-6.444,6.405"/>
		<path fill="#6D9ACC" d="M411.578,104.809c2.425,0,4.385,1.951,4.385,4.354v8.763h-8.769v-8.763
			C407.198,106.76,409.156,104.809,411.578,104.809z"/>
		<path fill="#6D9ACC" d="M407.198,109.502"/>
		<path fill="#6D9ACC" d="M415.963,109.502"/>
		<rect x="407.198" y="117.925" fill="#E7EFF8" width="8.769" height="6.582"/>
		<polygon fill="#6D9ACC" points="396.129,124.509 396.129,128.863 396.129,131.068 396.129,138.559 387.362,138.559 
			387.362,131.068 387.362,128.863 387.362,124.509 		"/>
		<path fill="#E7EFF8" d="M398.191,109.164c0-3.537-2.885-6.405-6.444-6.405c-3.562,0-6.443,2.868-6.443,6.405"/>
		<path fill="#6D9ACC" d="M391.743,104.809c2.423,0,4.386,1.951,4.386,4.354v8.763h-8.771v-8.763
			C387.362,106.76,389.323,104.809,391.743,104.809z"/>
		<path fill="#6D9ACC" d="M387.362,109.502"/>
		<path fill="#6D9ACC" d="M396.129,109.502"/>
		<rect x="387.362" y="117.925" fill="#E7EFF8" width="8.771" height="6.582"/>
		<polygon fill="#6D9ACC" points="396.129,143.275 396.129,150.533 396.129,152.734 396.129,160.279 387.362,160.279 
			387.362,152.734 387.362,150.533 387.362,143.275 		"/>
		<polygon fill="#6D9ACC" points="381.252,124.509 381.252,128.863 381.252,131.068 381.252,138.559 372.487,138.559 
			372.487,131.068 372.487,128.863 372.487,124.509 		"/>
		<path fill="#E7EFF8" d="M383.318,109.164c0-3.537-2.889-6.405-6.446-6.405c-3.562,0-6.446,2.868-6.446,6.405"/>
		<path fill="#6D9ACC" d="M376.868,104.809c2.423,0,4.384,1.951,4.384,4.354v8.763h-8.769v-8.763
			C372.487,106.76,374.447,104.809,376.868,104.809z"/>
		<path fill="#6D9ACC" d="M372.487,109.502"/>
		<path fill="#6D9ACC" d="M381.252,109.502"/>
		<rect x="372.487" y="117.925" fill="#E7EFF8" width="8.769" height="6.582"/>
		<polygon fill="#6D9ACC" points="366.378,124.509 366.378,128.863 366.378,131.068 366.378,138.559 357.608,138.559 
			357.608,131.068 357.608,128.863 357.608,124.509 		"/>
		<path fill="#E7EFF8" d="M368.44,109.164c0-3.537-2.888-6.405-6.445-6.405c-3.562,0-6.442,2.868-6.442,6.405"/>
		<path fill="#6D9ACC" d="M361.991,104.809c2.42,0,4.387,1.951,4.387,4.354v8.763h-8.771v-8.763
			C357.608,106.76,359.573,104.809,361.991,104.809z"/>
		<path fill="#6D9ACC" d="M357.608,109.502"/>
		<path fill="#6D9ACC" d="M366.378,109.502"/>
		<path fill="#6D9ACC" d="M361.991,109.502"/>
		<path fill="#6D9ACC" d="M361.991,117.925"/>
		<rect x="357.608" y="117.925" fill="#E7EFF8" width="8.771" height="6.582"/>
		<polygon fill="#6D9ACC" points="366.378,143.275 366.378,150.533 366.378,152.734 366.378,160.279 357.608,160.279 
			357.608,152.734 357.608,150.533 357.608,143.275 		"/>
		<polygon fill="#6D9ACC" points="381.252,143.275 381.252,150.533 381.252,152.734 381.252,160.279 372.487,160.279 
			372.487,152.734 372.487,150.533 372.487,143.275 		"/>
		<rect x="396.129" y="87.061" fill="#753A2E" width="11.065" height="4.251"/>
		<rect x="407.198" y="87.061" fill="#E7EFF8" width="38.521" height="4.251"/>
		<rect x="418.455" y="85.338" fill="#E7EFF8" width="15.998" height="5.974"/>
		<path fill="#E7EFF8" d="M426.453,89.892c-1.98,0-3.597-1.597-3.597-3.569c0-1.972,1.612-3.57,3.597-3.57"/>
		<polygon fill="#6D9ACC" points="422.073,124.509 422.073,128.863 422.073,131.068 422.073,138.559 430.842,138.559 
			430.842,131.068 430.842,128.863 430.842,124.509 		"/>
		<path fill="#E7EFF8" d="M420.011,109.164c0-3.537,2.887-6.405,6.442-6.405c3.563,0,6.446,2.868,6.446,6.405"/>
		<path fill="#6D9ACC" d="M426.453,104.809c-2.421,0-4.383,1.951-4.383,4.354v8.763h8.771v-8.763
			C430.842,106.76,428.878,104.809,426.453,104.809z"/>
		<path fill="#6D9ACC" d="M430.842,109.502"/>
		<path fill="#6D9ACC" d="M422.073,109.502"/>
		<rect x="422.073" y="117.925" fill="#E7EFF8" width="8.771" height="6.582"/>
		<polygon fill="#6D9ACC" points="436.948,124.509 436.948,128.863 436.948,131.068 436.948,138.559 445.718,138.559 
			445.718,131.068 445.718,128.863 445.718,124.509 		"/>
		<path fill="#E7EFF8" d="M434.888,109.164c0-3.537,2.888-6.405,6.447-6.405c3.559,0,6.441,2.868,6.441,6.405"/>
		<path fill="#6D9ACC" d="M441.335,104.809c-2.427,0-4.39,1.951-4.39,4.354v8.763h8.771v-8.763
			C445.718,106.76,443.755,104.809,441.335,104.809z"/>
		<rect x="436.948" y="117.925" fill="#E7EFF8" width="8.771" height="6.582"/>
		<polygon fill="#6D9ACC" points="456.783,124.509 456.783,128.863 456.783,131.068 456.783,138.559 465.552,138.559 
			465.552,131.068 465.552,128.863 465.552,124.509 		"/>
		<path fill="#E7EFF8" d="M454.724,109.164c0-3.537,2.885-6.405,6.445-6.405c3.56,0,6.443,2.868,6.443,6.405"/>
		<path fill="#6D9ACC" d="M461.169,104.809c-2.427,0-4.386,1.951-4.386,4.354v8.763h8.769v-8.763
			C465.552,106.76,463.591,104.809,461.169,104.809z"/>
		<rect x="456.783" y="117.925" fill="#E7EFF8" width="8.769" height="6.582"/>
		<polygon fill="#6D9ACC" points="456.783,143.275 456.783,150.533 456.783,152.734 456.783,160.279 465.552,160.279 
			465.552,152.734 465.552,150.533 465.552,143.275 		"/>
		<polygon fill="#6D9ACC" points="471.656,124.509 471.656,128.863 471.656,131.068 471.656,138.559 480.428,138.559 
			480.428,131.068 480.428,128.863 480.428,124.509 		"/>
		<path fill="#E7EFF8" d="M469.599,109.164c0-3.537,2.888-6.405,6.444-6.405c3.562,0,6.444,2.868,6.444,6.405"/>
		<path fill="#6D9ACC" d="M476.043,104.809c-2.423,0-4.387,1.951-4.387,4.354v8.763h8.771v-8.763
			C480.428,106.76,478.466,104.809,476.043,104.809z"/>
		<rect x="471.656" y="117.925" fill="#E7EFF8" width="8.771" height="6.582"/>
		<polygon fill="#6D9ACC" points="486.534,124.509 486.534,128.863 486.534,131.068 486.534,138.559 495.306,138.559 
			495.306,131.068 495.306,128.863 495.306,124.509 		"/>
		<path fill="#E7EFF8" d="M484.475,109.164c0-3.537,2.888-6.405,6.448-6.405c3.56,0,6.44,2.868,6.44,6.405"/>
		<path fill="#6D9ACC" d="M490.923,104.809c-2.427,0-4.389,1.951-4.389,4.354v8.763h8.771v-8.763
			C495.306,106.76,493.342,104.809,490.923,104.809z"/>
		<rect x="486.534" y="117.925" fill="#E7EFF8" width="8.771" height="6.582"/>
		<polygon fill="#6D9ACC" points="486.534,143.275 486.534,150.533 486.534,152.734 486.534,160.279 495.306,160.279 
			495.306,152.734 495.306,150.533 495.306,143.275 		"/>
		<polygon fill="#6D9ACC" points="471.656,143.275 471.656,150.533 471.656,152.734 471.656,160.279 480.428,160.279 
			480.428,152.734 480.428,150.533 480.428,143.275 		"/>
		<path fill="#E7EFF8" d="M426.453,91.312h-87.335v1.659c0,0,3.07,0.431,3.612,4.927h83.723h83.728
			c0.54-4.497,3.612-4.927,3.612-4.927v-1.659H426.453z"/>
		<rect x="445.718" y="87.061" fill="#753A2E" width="11.065" height="4.251"/>
		<path fill="#E7EFF8" d="M426.453,89.892c1.985,0,3.599-1.597,3.599-3.569c0-1.972-1.609-3.57-3.599-3.57"/>
		<polygon fill="#BFCDDB" points="426.453,92.971 339.118,92.971 341.539,94.604 426.453,94.604 511.37,94.604 513.794,92.971 		"/>
		<rect x="409.065" y="143.275" opacity="0.4" enable-background="new    " width="34.783" height="9.711"/>
		<rect x="407.198" y="143.275" fill="#9B5C54" width="3.736" height="22.264"/>
		<rect x="441.98" y="143.275" fill="#9B5C54" width="3.737" height="22.264"/>
		<rect x="420.091" y="143.275" fill="#542E33" width="12.729" height="18.489"/>
		<polygon opacity="0.4" enable-background="new    " points="432.823,151.17 420.091,154.854 420.091,143.275 432.823,143.275 		
			"/>
		<polygon fill="#BFCDDB" points="410.055,91.312 407.198,91.312 407.198,87.061 408.072,87.061 		"/>
		<polygon fill="#BFCDDB" points="437.314,91.312 434.453,91.312 434.453,87.061 435.326,87.061 		"/>
		<polygon fill="#31313F" points="97.564,230.934 50.417,223.253 50.417,188.338 97.564,188.338 		"/>
		<path opacity="0.15" enable-background="new    " d="M377.89,274.581c0.916-0.052,1.815-0.409,2.52-1.103l-1.382-1.369
			c0.022-0.062,0.044-0.123,0.066-0.187c0.947-0.03,1.884-0.396,2.606-1.108l-1.563-1.556c1.029,0.031,2.072-0.329,2.856-1.108
			l-2.851-2.828v-7.403l-24.48,24.317c2.088,0.861,4.359,1.359,6.764,1.359C369.07,283.6,374.855,279.957,377.89,274.581z"/>
		<g>
			<g opacity="0.5">
				<path d="M361.991,104.809c-2.422,0-4.387,1.951-4.387,4.354v1.244c0-2.403,1.965-4.353,4.387-4.353
					c2.42,0,4.387,1.95,4.387,4.353v-1.244C366.378,106.76,364.411,104.809,361.991,104.809z"/>
			</g>
		</g>
		<g>
			<g opacity="0.5">
				<path d="M376.871,104.809c-2.422,0-4.388,1.951-4.388,4.354v1.244c0-2.403,1.966-4.353,4.388-4.353
					c2.421,0,4.384,1.95,4.384,4.353v-1.244C381.255,106.76,379.291,104.809,376.871,104.809z"/>
			</g>
		</g>
		<g>
			<g opacity="0.5">
				<path d="M391.745,104.809c-2.42,0-4.387,1.951-4.387,4.354v1.244c0-2.403,1.967-4.353,4.387-4.353
					c2.421,0,4.387,1.95,4.387,4.353v-1.244C396.132,106.76,394.166,104.809,391.745,104.809z"/>
			</g>
		</g>
		<g>
			<g opacity="0.5">
				<path d="M411.584,104.809c-2.426,0-4.389,1.951-4.389,4.354v1.244c0-2.403,1.963-4.353,4.389-4.353
					c2.419,0,4.383,1.95,4.383,4.353v-1.244C415.967,106.76,414.003,104.809,411.584,104.809z"/>
			</g>
		</g>
		<g>
			<g opacity="0.5">
				<path d="M426.453,104.809c-2.419,0-4.383,1.951-4.383,4.354v1.244c0-2.403,1.964-4.353,4.383-4.353
					c2.425,0,4.389,1.95,4.389,4.353v-1.244C430.842,106.76,428.878,104.809,426.453,104.809z"/>
			</g>
		</g>
		<g>
			<g opacity="0.5">
				<path d="M441.335,104.809c-2.427,0-4.39,1.951-4.39,4.354v1.244c0-2.403,1.963-4.353,4.39-4.353c2.42,0,4.383,1.95,4.383,4.353
					v-1.244C445.718,106.76,443.755,104.809,441.335,104.809z"/>
			</g>
		</g>
		<g>
			<g opacity="0.5">
				<path d="M461.171,104.809c-2.427,0-4.388,1.951-4.388,4.354v1.244c0-2.403,1.961-4.353,4.388-4.353
					c2.42,0,4.383,1.95,4.383,4.353v-1.244C465.554,106.76,463.591,104.809,461.171,104.809z"/>
			</g>
		</g>
		<g>
			<g opacity="0.5">
				<path d="M476.046,104.809c-2.421,0-4.39,1.951-4.39,4.354v1.244c0-2.403,1.968-4.353,4.39-4.353c2.42,0,4.384,1.95,4.384,4.353
					v-1.244C480.43,106.76,478.466,104.809,476.046,104.809z"/>
			</g>
		</g>
		<g>
			<g opacity="0.5">
				<path d="M490.923,104.809c-2.421,0-4.389,1.951-4.389,4.354v1.244c0-2.403,1.968-4.353,4.389-4.353
					c2.419,0,4.385,1.95,4.385,4.353v-1.244C495.308,106.76,493.342,104.809,490.923,104.809z"/>
			</g>
		</g>
		<polygon fill="#0C6B2C" points="516,178.955 336.915,195.909 336.915,161.766 338.168,160.52 401.089,161.766 451.823,161.766 
			514.744,160.52 516,161.766 		"/>
		<rect x="401.089" y="163.654" fill="#B2C5D8" width="50.734" height="1.887"/>
		<rect x="401.089" y="161.766" fill="#E7EFF8" width="50.734" height="1.891"/>
		<g>
			<path fill="#0C6B2C" d="M390.58,161.766c0-3.19-3.854-5.777-7.067-5.777c-3.212,0-4.565,2.587-4.565,5.777H390.58z"/>
			<path fill="#0C6B2C" d="M401.089,161.766c0-3.19-3.856-5.777-7.069-5.777s-4.562,2.587-4.562,5.777H401.089z"/>
			<path fill="#0C6B2C" d="M380.073,161.766c0-3.19-3.854-5.777-7.065-5.777s-4.563,2.587-4.563,5.777H380.073z"/>
			<path fill="#0C6B2C" d="M369.565,161.766c0-3.19-3.854-5.777-7.066-5.777c-3.212,0-4.564,2.587-4.564,5.777H369.565z"/>
			<path fill="#0C6B2C" d="M348.55,161.766c0-3.19-3.856-5.777-7.068-5.777c-3.213,0-4.562,2.587-4.562,5.777l0,0H348.55z"/>
			<path fill="#0C6B2C" d="M359.057,161.766c0-3.19-3.854-5.777-7.063-5.777c-3.219,0-4.565,2.587-4.565,5.777H359.057z"/>
		</g>
		<polygon fill="#31313F" points="451.823,184.977 401.089,189.801 401.089,165.541 451.823,165.541 		"/>
		<polygon fill="#E7EFF8" points="427.448,137.626 426.453,137.626 341.481,137.626 341.481,143.898 426.453,143.898 
			427.448,143.898 511.435,143.898 511.435,137.626 		"/>
		<rect x="407.198" y="137.626" fill="#F2F6F9" width="38.521" height="6.272"/>
		<polygon opacity="0.25" enable-background="new    " points="456.982,161.766 445.718,161.766 445.718,137.626 445.718,137.626 		
			"/>
		<g>
			<path fill="#0C6B2C" d="M505.49,161.766c0-3.19-1.351-5.777-4.562-5.777c-3.21,0-7.068,2.587-7.068,5.777H505.49z"/>
			<path fill="#0C6B2C" d="M516,161.766c0-3.19-1.354-5.777-4.563-5.777c-3.213,0-7.071,2.587-7.071,5.777H516z"/>
			<path fill="#0C6B2C" d="M494.983,161.766c0-3.19-1.349-5.777-4.562-5.777c-3.214,0-7.069,2.587-7.069,5.777H494.983z"/>
			<path fill="#0C6B2C" d="M484.478,161.766c0-3.19-1.351-5.777-4.563-5.777c-3.215,0-7.068,2.587-7.068,5.777H484.478z"/>
			<path fill="#0C6B2C" d="M463.459,161.766c0-3.19-1.354-5.777-4.563-5.777c-3.216,0-7.071,2.587-7.071,5.777H463.459z"/>
			<path fill="#0C6B2C" d="M473.969,161.766c0-3.19-1.354-5.777-4.563-5.777c-3.213,0-7.067,2.587-7.067,5.777H473.969z"/>
		</g>
	</g>
	<polygon fill="#111123" points="236.209,7.083 241.731,2.446 232.25,0.278 233.688,5.941 	"/>
	<path fill="#111123" d="M236.459,4.344l-4.208-4.066c13.5-0.913,19.045,0.519,21.312,2.915"/>
</g>
</svg>
