<?xml version="1.0" encoding="utf-8"?>
<!-- Generator: Adobe Illustrator 16.0.0, SVG Export Plug-In . SVG Version: 6.00 Build 0)  -->
<!DOCTYPE svg PUBLIC "-//W3C//DTD SVG 1.1//EN" "http://www.w3.org/Graphics/SVG/1.1/DTD/svg11.dtd">
<svg version="1.1" id="Layer_1" xmlns="http://www.w3.org/2000/svg" xmlns:xlink="http://www.w3.org/1999/xlink" x="0px" y="0px"
	 width="516px" height="299px" viewBox="0 0 516 299" enable-background="new 0 0 516 299" xml:space="preserve">
<g>
	<g>
		<rect x="65.459" y="76.288" fill="#E2DFCF" width="93.411" height="39.075"/>
		<rect x="104.779" y="104.823" fill="#54261E" width="5.43" height="10.54"/>
		<rect x="114.12" y="104.823" fill="#54261E" width="5.43" height="10.54"/>
		<rect x="76.756" y="92.186" fill="#6D9ACC" width="5.429" height="7.395"/>
		<rect x="76.756" y="99.581" fill="#3A2729" width="5.429" height="3.146"/>
		<path fill="none" d="M79.471,99.581"/>
		<path fill="none" d="M79.471,92.186"/>
		<rect x="76.756" y="104.823" fill="#6D9ACC" width="5.429" height="7.395"/>
		<rect x="76.756" y="112.219" fill="#3A2729" width="5.429" height="3.145"/>
		<rect x="86.097" y="92.186" fill="#6D9ACC" width="5.429" height="7.395"/>
		<rect x="86.097" y="99.581" fill="#3A2729" width="5.429" height="3.146"/>
		<rect x="86.097" y="104.823" fill="#6D9ACC" width="5.429" height="7.395"/>
		<rect x="86.097" y="112.219" fill="#3A2729" width="5.429" height="3.145"/>
		<rect x="95.438" y="92.186" fill="#6D9ACC" width="5.43" height="7.395"/>
		<rect x="95.438" y="99.581" fill="#3A2729" width="5.43" height="3.146"/>
		<rect x="104.779" y="92.186" fill="#6D9ACC" width="5.43" height="7.395"/>
		<rect x="104.779" y="99.581" fill="#3A2729" width="5.43" height="3.146"/>
		<rect x="114.12" y="92.186" fill="#6D9ACC" width="5.43" height="7.395"/>
		<rect x="114.12" y="99.581" fill="#3A2729" width="5.43" height="3.146"/>
		<rect x="95.438" y="104.823" fill="#6D9ACC" width="5.43" height="7.395"/>
		<rect x="95.438" y="112.219" fill="#3A2729" width="5.43" height="3.145"/>
		<rect x="123.461" y="92.186" fill="#6D9ACC" width="5.429" height="7.395"/>
		<rect x="123.461" y="99.581" fill="#3A2729" width="5.429" height="3.146"/>
		<rect x="123.461" y="104.823" fill="#6D9ACC" width="5.429" height="7.395"/>
		<rect x="123.461" y="112.219" fill="#3A2729" width="5.429" height="3.145"/>
		<rect x="132.802" y="92.186" fill="#6D9ACC" width="5.43" height="7.395"/>
		<rect x="132.802" y="99.581" fill="#3A2729" width="5.43" height="3.146"/>
		<rect x="132.802" y="104.823" fill="#6D9ACC" width="5.43" height="7.395"/>
		<rect x="132.802" y="112.219" fill="#3A2729" width="5.43" height="3.145"/>
		<rect x="142.144" y="92.186" fill="#6D9ACC" width="5.431" height="7.395"/>
		<rect x="142.144" y="99.581" fill="#3A2729" width="5.431" height="3.146"/>
		<rect x="76.756" y="79.549" fill="#6D9ACC" width="5.429" height="7.396"/>
		<rect x="76.756" y="86.944" fill="#3A2729" width="5.429" height="3.145"/>
		<rect x="86.097" y="79.549" fill="#6D9ACC" width="5.429" height="7.396"/>
		<rect x="86.097" y="86.944" fill="#3A2729" width="5.429" height="3.145"/>
		<rect x="95.438" y="79.549" fill="#6D9ACC" width="5.43" height="7.396"/>
		<rect x="95.438" y="86.944" fill="#3A2729" width="5.43" height="3.145"/>
		<rect x="104.779" y="79.549" fill="#6D9ACC" width="5.43" height="7.396"/>
		<rect x="104.779" y="86.944" fill="#3A2729" width="5.43" height="3.145"/>
		<rect x="114.12" y="79.549" fill="#6D9ACC" width="5.43" height="7.396"/>
		<rect x="114.12" y="86.944" fill="#3A2729" width="5.43" height="3.145"/>
		<rect x="123.461" y="79.549" fill="#6D9ACC" width="5.429" height="7.396"/>
		<rect x="123.461" y="86.944" fill="#3A2729" width="5.429" height="3.145"/>
		<rect x="132.802" y="79.549" fill="#6D9ACC" width="5.43" height="7.396"/>
		<rect x="132.802" y="86.944" fill="#3A2729" width="5.43" height="3.145"/>
		<rect x="142.144" y="79.549" fill="#6D9ACC" width="5.431" height="7.396"/>
		<rect x="142.144" y="86.944" fill="#3A2729" width="5.431" height="3.145"/>
		<rect x="142.144" y="104.823" fill="#6D9ACC" width="5.431" height="7.395"/>
		<rect x="142.144" y="112.219" fill="#3A2729" width="5.431" height="3.145"/>
		<g opacity="0.5">
			<rect x="65.459" y="90.089" fill="#B2AC8A" width="93.411" height="2.098"/>
		</g>
		<g opacity="0.5">
			<rect x="65.459" y="102.725" fill="#B2AC8A" width="93.411" height="2.098"/>
		</g>
		<polyline fill="#753A2E" points="120.659,104.823 121.593,105.752 121.593,107.151 102.735,107.151 102.735,105.752 
			103.669,104.823 		"/>
		<rect x="104.779" y="112.567" fill="#8C5249" width="14.771" height="2.795"/>
		<rect x="104.779" y="113.499" fill="#753A2E" width="14.771" height="1.863"/>
		<rect x="104.779" y="114.43" fill="#54261E" width="14.771" height="0.932"/>
		<rect x="102.735" y="105.752" fill="#54261E" width="18.857" height="1.398"/>
		<polyline opacity="0.2" enable-background="new    " points="121.593,107.151 129.825,115.362 104.779,115.362 104.779,107.151 		
			"/>
	</g>
	<g>
		<rect x="246.842" y="97.037" fill="#E2DFCF" width="98.913" height="46.51"/>
		<rect x="249.165" y="103.581" fill="#6D9ACC" width="9.484" height="9.462"/>
		<rect x="249.165" y="117.675" fill="#6D9ACC" width="9.484" height="9.463"/>
		<rect x="249.165" y="131.771" fill="#6D9ACC" width="9.484" height="9.461"/>
		<rect x="263.295" y="103.581" fill="#6D9ACC" width="9.484" height="9.462"/>
		<rect x="263.295" y="117.675" fill="#6D9ACC" width="9.484" height="9.463"/>
		<rect x="263.295" y="131.771" fill="#6D9ACC" width="9.484" height="9.461"/>
		<rect x="277.425" y="103.581" fill="#6D9ACC" width="9.485" height="4.732"/>
		<rect x="277.425" y="117.675" fill="#6D9ACC" width="9.485" height="4.731"/>
		<rect x="291.557" y="103.581" fill="#6D9ACC" width="9.484" height="9.462"/>
		<rect x="291.557" y="117.675" fill="#6D9ACC" width="9.484" height="9.463"/>
		<rect x="305.688" y="103.581" fill="#6D9ACC" width="9.484" height="4.732"/>
		<rect x="305.688" y="117.675" fill="#6D9ACC" width="9.484" height="4.731"/>
		<rect x="258.65" y="103.581" fill="#F7D50F" width="4.646" height="9.462"/>
		<rect x="258.65" y="117.675" fill="#F7D50F" width="4.646" height="9.463"/>
		<rect x="258.65" y="131.771" fill="#F7D50F" width="4.646" height="9.461"/>
		<rect x="319.816" y="103.581" fill="#6D9ACC" width="9.487" height="9.462"/>
		<rect x="319.816" y="117.675" fill="#6D9ACC" width="9.487" height="9.463"/>
		<rect x="319.816" y="131.771" fill="#6D9ACC" width="9.487" height="9.461"/>
		<rect x="333.947" y="103.581" fill="#6D9ACC" width="9.486" height="9.462"/>
		<rect x="333.947" y="117.675" fill="#6D9ACC" width="9.486" height="9.463"/>
		<rect x="333.947" y="131.771" fill="#6D9ACC" width="9.486" height="9.461"/>
		<rect x="329.304" y="103.581" fill="#F7D50F" width="4.644" height="9.462"/>
		<rect x="329.304" y="117.675" fill="#F7D50F" width="4.644" height="9.463"/>
		<rect x="329.304" y="131.771" fill="#F7D50F" width="4.644" height="9.461"/>
		
			<line fill="none" stroke="#C4BFA9" stroke-width="0.7056" stroke-miterlimit="10" x1="246.842" y1="115.359" x2="345.755" y2="115.359"/>
		
			<line fill="none" stroke="#C4BFA9" stroke-width="0.7056" stroke-miterlimit="10" x1="246.842" y1="129.454" x2="345.755" y2="129.454"/>
		
			<line fill="none" stroke="#C4BFA9" stroke-width="0.7056" stroke-miterlimit="10" x1="246.842" y1="101.265" x2="345.755" y2="101.265"/>
		
			<line fill="none" stroke="#C4BFA9" stroke-width="0.7056" stroke-miterlimit="10" x1="275.104" y1="101.265" x2="275.104" y2="129.454"/>
		
			<line fill="none" stroke="#C4BFA9" stroke-width="0.7056" stroke-miterlimit="10" x1="289.232" y1="101.265" x2="289.232" y2="129.454"/>
		
			<line fill="none" stroke="#C4BFA9" stroke-width="0.7056" stroke-miterlimit="10" x1="303.364" y1="101.265" x2="303.364" y2="129.454"/>
		
			<line fill="none" stroke="#C4BFA9" stroke-width="0.7056" stroke-miterlimit="10" x1="317.493" y1="101.265" x2="317.493" y2="129.454"/>
		<rect x="273.688" y="130.746" fill="#231F20" width="45.218" height="12.802"/>
		<g>
			<path fill="#EDEBE4" d="M305.688,128.998h-0.911h-13.22h-0.909h-15.544v4.506h3.483c0.853-1.039,2.131-1.717,3.582-1.717
				c1.449,0,2.729,0.678,3.579,1.717h4.898h0.909h1.162c0.85-1.039,2.13-1.717,3.579-1.717c1.451,0,2.729,0.678,3.58,1.717h4.897
				h0.911h1.161c0.852-1.039,2.13-1.717,3.58-1.717c1.451,0,2.729,0.678,3.58,1.717h3.483v-4.506H305.688z"/>
			<rect x="316.08" y="128.998" fill="#F4F2E9" width="3.735" height="14.549"/>
			<rect x="272.78" y="128.998" fill="#F4F2E9" width="3.736" height="14.549"/>
			<rect x="287.82" y="128.998" fill="#F4F2E9" width="2.827" height="14.549"/>
			<rect x="301.949" y="128.998" fill="#F4F2E9" width="2.826" height="14.549"/>
		</g>
		
			<line fill="none" stroke="#C4BFA9" stroke-width="0.7056" stroke-miterlimit="10" x1="246.842" y1="115.359" x2="345.755" y2="115.359"/>
		<polygon opacity="0.25" enable-background="new    " points="328.104,143.547 319.816,143.547 319.816,128.998 321.345,128.998 		
			"/>
	</g>
	<polygon fill="#287846" points="224.495,115.362 31.396,115.362 31.396,158.403 346.692,186.879 346.692,143.235 224.495,143.235 	
		"/>
	<g>
		<path fill="#BC0C0C" d="M215.606,280.871c-10.026,0-18.153,8.107-18.153,18.109h36.309
			C233.761,288.979,225.634,280.871,215.606,280.871z"/>
		<polygon fill="#BC0C0C" points="215.293,280.871 200.474,280.871 197.139,298.98 215.293,298.98 		"/>
	</g>
	<g>
		<path fill="#BC0C0C" d="M258.517,280.871c-10.028,0-18.157,8.107-18.157,18.109h36.31
			C276.669,288.979,268.543,280.871,258.517,280.871z"/>
		<polygon fill="#BC0C0C" points="258.203,280.871 243.381,280.871 240.047,298.98 258.203,298.98 		"/>
	</g>
	<path fill="#111123" d="M231.598,23.094c6.068,6.054,15.903,6.054,21.967,0c6.072-6.052,6.072-15.862,0-21.917L237.687,0"/>
	<g>
		<path fill="#F9D8A4" d="M217.334,284.694l-14.924-1.809c5-41.025,4.431-58.849-2.533-79.458
			c-2.317-6.854-1.528-12.739-0.894-17.468c0.258-1.913,0.5-3.721,0.5-5.336h15.033c0,2.615-0.321,5.009-0.631,7.325
			c-0.536,3.992-0.959,7.146,0.238,10.688C222.736,224.129,222.075,245.787,217.334,284.694z"/>
	</g>
	<g>
		<path fill="#F9D8A4" d="M260.381,284.587l-14.948-1.594c4.476-41.736,0.669-64.259-6.421-85.237
			c-2.641-7.811-2.561-14.323-2.489-20.071c0.012-0.909,0.022-1.816,0.022-2.73h15.034c0,0.976-0.012,1.944-0.024,2.915
			c-0.063,5.209-0.119,9.707,1.702,15.098C260.98,215.813,265.147,240.138,260.381,284.587z"/>
	</g>
	<g>
		<path fill="#4A639D" d="M223.434,278.649l-21.188-2.157c2.916-28.485,3.442-51.642-3.458-72.065
			c-2.551-7.545-1.671-14.097-1.03-18.881c0.254-1.885,0.472-3.515,0.472-4.921h21.297c0,2.822-0.35,5.436-0.658,7.738
			c-0.552,4.104-0.818,6.559,0.102,9.277C227.095,221.687,226.631,247.415,223.434,278.649z"/>
	</g>
	<g>
		<path fill="#4A639D" d="M266.289,278.358l-21.239-1.579c2.345-31.378,0.014-56.9-7.128-78.024
			c-2.811-8.315-2.727-15.111-2.653-21.108c0.012-0.896,0.023-1.792,0.023-2.692h21.297c0,0.988-0.012,1.971-0.024,2.954
			c-0.062,5.125-0.112,9.174,1.539,14.06C266.172,215.834,268.85,244.094,266.289,278.358z"/>
	</g>
	<path fill="#1F3B68" d="M262.035,155.32c0.483,6.856-4.749,12.859-11.622,13.341l-49.044,3.433
		c-6.873,0.479-12.892-4.735-13.374-11.592l-5.041-71.677c-0.481-6.854,4.749-12.859,11.622-13.34l49.045-3.431
		c6.873-0.481,12.89,4.734,13.373,11.59L262.035,155.32z"/>
	<polygon fill="#4A639D" points="209.506,202.579 252.078,196.823 246.254,178.421 209.506,178.421 	"/>
	<path fill="#111123" d="M227.92,78.238c-26.463,0-29.032,4.022-29.032,22.086l-1.253,80.483h59.006l2.505-80.483
		C259.146,82.26,254.385,78.238,227.92,78.238z"/>
	<g>
		<path fill="#191438" d="M186.803,189.791c-4.214,0-8.046-2.848-9.11-7.109c-8.995-36.049-14.259-70.558,19.675-96.544
			c4.116-3.15,10.015-2.379,13.175,1.727s2.385,9.988-1.73,13.141c-22.94,17.569-22.433,38.876-12.883,77.149
			c1.253,5.023-1.812,10.108-6.849,11.358C188.318,189.701,187.554,189.791,186.803,189.791z"/>
	</g>
	<g>
		<path d="M198.167,172.683l-0.006-12.495c6.51-0.172,40.809-26.523,42.32-74.243l12.522,0.396
			c-0.92,29.024-12.521,50.008-22.087,62.5C220.163,162.878,206.696,172.683,198.167,172.683z"/>
	</g>
	<g>
		<path fill="#355797" d="M194.993,169.482v-12.496c2.677-0.001,13.6-5.884,24.75-20.439c9.087-11.864,20.104-31.808,20.979-59.443
			l12.522,0.396c-0.98,30.948-13.348,53.32-23.55,66.64C218.264,159.06,203.994,169.482,194.993,169.482z"/>
	</g>
	<g>
		
			<linearGradient id="SVGID_1_" gradientUnits="userSpaceOnUse" x1="226.2898" y1="223.3025" x2="226.2898" y2="214.6879" gradientTransform="matrix(1 0 0 -1 -0.0552 298.8589)">
			<stop  offset="0" style="stop-color:#EFCAA0"/>
			<stop  offset="1" style="stop-color:#F9D8A4"/>
		</linearGradient>
		<path fill="url(#SVGID_1_)" d="M236.335,65.846c0-5.563-4.522-10.075-10.102-10.075l0,0c-5.579,0-10.101,4.511-10.101,10.075
			v9.156c0,5.564,4.521,10.075,10.101,10.075l0,0c5.579,0,10.102-4.51,10.102-10.075V65.846z"/>
		<g>
			<g>
				
					<linearGradient id="SVGID_3_" gradientUnits="userSpaceOnUse" x1="226.2898" y1="223.3025" x2="226.2898" y2="214.6879" gradientTransform="matrix(1 0 0 -1 -0.0552 298.8589)">
					<stop  offset="0" style="stop-color:#EFCAA0"/>
					<stop  offset="1" style="stop-color:#F9D8A4"/>
				</linearGradient>
				<path id="SVGID_2_" fill="url(#SVGID_3_)" d="M236.335,65.846c0-5.563-4.522-10.075-10.102-10.075l0,0
					c-5.579,0-10.101,4.511-10.101,10.075v9.156c0,5.564,4.521,10.075,10.101,10.075l0,0c5.579,0,10.102-4.51,10.102-10.075V65.846z
					"/>
			</g>
			<g>
				<defs>
					<path id="SVGID_4_" d="M236.335,65.846c0-5.563-4.522-10.075-10.102-10.075l0,0c-5.579,0-10.101,4.511-10.101,10.075v9.156
						c0,5.564,4.521,10.075,10.101,10.075l0,0c5.579,0,10.102-4.51,10.102-10.075V65.846z"/>
				</defs>
				<clipPath id="SVGID_5_">
					<use xlink:href="#SVGID_4_"  overflow="visible"/>
				</clipPath>
				
					<linearGradient id="SVGID_6_" gradientUnits="userSpaceOnUse" x1="226.2903" y1="223.3035" x2="226.2903" y2="214.6897" gradientTransform="matrix(1 0 0 -1 -0.0552 298.8589)">
					<stop  offset="0" style="stop-color:#EFCAA0"/>
					<stop  offset="1" style="stop-color:#F9D8A4"/>
				</linearGradient>
				<path clip-path="url(#SVGID_5_)" fill="url(#SVGID_6_)" d="M229.785,77.818c2.32,0,4.531,0.364,6.55,1.014v-10.19h-20.201
					v14.484C219.253,79.908,224.199,77.818,229.785,77.818z"/>
			</g>
		</g>
	</g>
	<path fill="#EFCAA0" d="M249.78,51.694c-1.773,1.77-4.648,1.77-6.423,0l0,0c-1.771-1.768-1.771-4.637,0-6.405l5.371-5.355
		c1.774-1.771,4.649-1.771,6.423,0l0,0c1.774,1.768,1.774,4.637,0,6.404L249.78,51.694z"/>
	<path fill="#F9D8A4" d="M204.154,16.253v33.192c0,12.768,10.377,23.117,23.177,23.117s23.176-10.35,23.176-23.117l-3.132-33.192
		H204.154z"/>
	<path fill="#111123" d="M211.565,25.252c1.539,1.534,4.034,1.534,5.573,0l-5.573-5.56
		C210.026,21.228,210.026,23.719,211.565,25.252z"/>
	<g>
		<path fill="#EFA481" d="M237.089,49.225c-0.281,0.098-0.583,0.146-0.898,0.136c-4.229-0.143-6.632-5.538-6.545-8.164
			c0.031-0.852,0.75-1.517,1.597-1.487c0.853,0.028,1.52,0.741,1.49,1.59c-0.032,0.931,2.127,3.073,3.625,3.124
			c1.367,0.047,2.438,1.188,2.393,2.554C238.713,48.024,238.027,48.899,237.089,49.225z"/>
	</g>
	<path fill="#111123" d="M250.506,18.518l-8.299,4.528c0,0-18.719,0-21.297,0c-2.579,0-8.638,0-8.638,0l-2.794,19.525h-6.89
		c0,0-1.879-20.774-1.879-25.499c0-7.872,6.397-14.253,14.29-14.253c6.304,0,33.197,0,33.197,0"/>
	<g>
		<path fill="#0D685F" d="M218.273,215.166l-2.131-5.068l-6.925-29.466c-0.084-0.356-0.321-0.659-0.65-0.826
			c-0.329-0.168-0.713-0.184-1.054-0.039l-37.938,15.86c-3.205,1.34-4.721,5.031-3.378,8.229l11.825,28.139
			c0.128,0.305,0.374,0.548,0.682,0.674c0.151,0.062,0.312,0.094,0.475,0.094c0.165,0,0.33-0.033,0.484-0.099l7.859-3.287
			l30.078-12.573c0.307-0.13,0.549-0.373,0.675-0.68C218.403,215.815,218.401,215.472,218.273,215.166z"/>
		<g>
			<path fill="#C5E3EA" d="M217.572,216.814l-12.279-29.306c-1.079-2.564,0.132-5.516,2.705-6.592l0,0
				c2.571-1.077,5.53,0.132,6.608,2.696l12.417,29.248"/>
			<path fill="#08514A" d="M216.447,217.284l-12.311-29.291c-0.65-1.549-0.658-3.258-0.021-4.811
				c0.637-1.556,1.843-2.769,3.396-3.417c1.553-0.648,3.266-0.655,4.823-0.022c1.558,0.636,2.774,1.84,3.425,3.388l12.311,29.292
				l-2.311,0.968l-12.312-29.292c-0.393-0.935-1.124-1.657-2.063-2.04c-0.937-0.382-1.969-0.379-2.906,0.012
				c-0.936,0.392-1.662,1.123-2.046,2.059c-0.384,0.938-0.38,1.967,0.012,2.898l12.311,29.293L216.447,217.284z"/>
		</g>
	</g>
	<path fill="#F9D8A4" d="M196.221,179.637l-18.488,4.044l2.054,9.339c1.185,5.077,6.271,8.234,11.363,7.054
		c5.012-1.164,8.147-6.099,7.115-11.096l0.01-0.001L196.221,179.637z"/>
	<path fill="#F9D8A4" d="M210.521,45.289c1.772,1.769,1.772,4.638,0,6.405l0,0c-1.773,1.77-4.648,1.77-6.423,0l-5.371-5.356
		c-1.772-1.768-1.772-4.637,0-6.404l0,0c1.774-1.771,4.649-1.771,6.423,0L210.521,45.289z"/>
	
		<linearGradient id="SVGID_7_" gradientUnits="userSpaceOnUse" x1="101.0642" y1="354.8591" x2="106.3402" y2="349.5831" gradientTransform="matrix(1.3283 0.3283 -0.3283 -1.3283 180.8458 479.7584)">
		<stop  offset="0" style="stop-color:#EFA481"/>
		<stop  offset="1" style="stop-color:#F9D8A4"/>
	</linearGradient>
	<path fill="url(#SVGID_7_)" d="M211.012,49.434c2.085,2.083,2.757,4.79,1.498,6.047l0,0c-1.262,1.255-3.975,0.586-6.062-1.496
		l-6.321-6.304c-2.086-2.082-2.757-4.789-1.5-6.046l0,0c1.263-1.257,3.974-0.588,6.062,1.494L211.012,49.434z"/>
	<path fill="#111123" d="M231.598,19.261c5.062,5.049,13.264,5.049,18.322,0c5.062-5.048,5.062-13.23,0-18.28L236.677,0"/>
	<ellipse cx="240.172" cy="37.962" rx="2.036" ry="2.03"/>
	<ellipse cx="221.771" cy="37.962" rx="2.036" ry="2.03"/>
	<g>
		<path fill="#191438" d="M264.389,151.467c-2.558,0-5.084-1.038-6.917-3.024L240.175,129.7c-3.514-3.808-3.268-9.737,0.549-13.243
			c1.363-1.251,2.997-2.022,4.693-2.328c-2.141-7.362-4.142-15.01-5.439-21.688c-0.986-5.082,2.341-9.999,7.436-10.985
			c5.095-0.975,10.024,2.336,11.014,7.417c3.809,19.583,14.688,49.739,14.796,50.042c1.521,4.197-0.139,8.881-3.966,11.195
			C267.746,151.022,266.061,151.467,264.389,151.467z"/>
	</g>
	<g>
		<path fill="#355797" d="M246.436,113.379l-11.792-4.222c3.685-10.233,5.729-21.018,6.078-32.053l12.522,0.393
			C252.854,89.841,250.563,101.914,246.436,113.379z"/>
	</g>
	<g>
		<g>
			<path fill="#DBDAD5" d="M254.95,98.752c0.558,2.276-0.84,4.569-3.122,5.125c-2.278,0.556-4.579-0.838-5.137-3.113
				c-0.558-2.273,0.842-4.568,3.12-5.124C252.095,95.083,254.395,96.479,254.95,98.752z"/>
			<g>
				<g>
					<defs>
						<path id="SVGID_8_" d="M254.95,98.752c0.558,2.276-0.84,4.569-3.122,5.125c-2.278,0.556-4.579-0.838-5.137-3.113
							c-0.558-2.273,0.842-4.568,3.12-5.124C252.095,95.083,254.395,96.479,254.95,98.752z"/>
					</defs>
					<clipPath id="SVGID_9_">
						<use xlink:href="#SVGID_8_"  overflow="visible"/>
					</clipPath>
					<polygon clip-path="url(#SVGID_9_)" points="253.734,99.048 250.24,97.496 250.6,98.967 244.243,97.452 246.049,104.828 
						250.989,100.562 251.351,102.033 					"/>
				</g>
			</g>
		</g>
		<circle fill="#FFFFFF" cx="248.744" cy="97.686" r="0.921"/>
	</g>
	<g>
		<path fill="#F8DA02" d="M243.856,89.253c-0.481,2.293-2.733,3.763-5.034,3.283c-2.295-0.479-3.771-2.725-3.288-5.018
			c0.479-2.291,2.732-3.762,5.028-3.283C242.862,84.715,244.335,86.963,243.856,89.253z"/>
		<polygon fill="#D92355" points="240.237,85.795 240.655,87.414 242.229,87.985 240.814,88.883 240.753,90.553 239.463,89.489 
			237.854,89.947 238.468,88.394 237.533,87.006 239.204,87.111 		"/>
		<path fill="#FFFFFF" d="M238.526,86.313c0,0.509-0.412,0.92-0.92,0.92c-0.512,0-0.923-0.411-0.923-0.92
			c0-0.508,0.411-0.919,0.923-0.919C238.115,85.395,238.526,85.806,238.526,86.313z"/>
	</g>
	<g>
		<path d="M231.603,127.373c0.573,2.272-0.81,4.575-3.088,5.146c-2.276,0.57-4.585-0.809-5.158-3.08
			c-0.569-2.271,0.813-4.573,3.088-5.144C228.723,123.723,231.033,125.102,231.603,127.373z"/>
		<polygon fill="#D92355" points="227.82,125.352 225.605,129.806 227.514,128.948 227.113,131.469 229.361,127.031 
			227.453,127.818 		"/>
		<path fill="#FFFFFF" d="M226.337,126.333c0,0.509-0.411,0.92-0.919,0.92c-0.513,0-0.923-0.411-0.923-0.92
			c0-0.508,0.41-0.919,0.923-0.919C225.926,125.414,226.337,125.825,226.337,126.333z"/>
	</g>
	<polygon fill="#0D685F" points="203.334,195.271 196.623,198.087 193.588,185.635 198.419,183.609 	"/>
	<polygon fill="#111123" points="234.69,295.533 197.139,295.533 196.199,298.98 234.69,298.98 	"/>
	<polygon fill="#111123" points="277.6,295.533 240.047,295.533 239.107,298.98 277.6,298.98 	"/>
	<polygon fill="#324977" points="224.069,271.635 202.883,269.762 202.145,276.529 223.39,278.664 	"/>
	<polygon fill="#324977" points="267.007,271.322 245.471,269.762 245.082,276.737 266.329,278.352 	"/>
	<polygon fill="#BC0C0C" points="224.069,291.004 202.145,291.004 207.051,286.474 217.707,280.993 	"/>
	<polygon fill="#BC0C0C" points="267.134,291.004 245.209,291.004 250.115,286.474 260.771,280.993 	"/>
	<polyline fill="#355797" points="239.977,101.771 235.442,106.729 246.983,112.314 249.333,104.504 	"/>
	<path fill="#F9D8A4" d="M250.69,114.689l-6.929-8.056c-2.107-2.396-5.865-2.544-8.393-0.331l-4.151,3.629
		c-2.529,2.214-2.872,5.949-0.764,8.345l6.927,8.057"/>
	<g>
		<polygon points="239.751,129.289 237.25,126.489 250.664,114.567 253.165,117.366 		"/>
	</g>
	<path fill="#FFFFFF" d="M251.128,119.732c-0.484-2.057-2.552-3.33-4.615-2.845c-2.062,0.485-3.34,2.547-2.853,4.603
		c0.486,2.058,2.554,3.332,4.616,2.846C250.338,123.851,251.615,121.789,251.128,119.732z"/>
	<path fill="#FFFFFF" d="M228.025,62.335c4.118,1.115,8.361-1.306,9.482-5.411l-14.906-4.049
		C221.48,56.982,223.91,61.217,228.025,62.335z"/>
	<circle fill="#EFA481" cx="215.028" cy="45.813" r="1.252"/>
	<circle fill="#EFA481" cx="220.979" cy="45.813" r="1.253"/>
	<circle fill="#EFA481" cx="218.16" cy="49.25" r="1.253"/>
	<path fill="#753A2E" d="M365.798,265.861c2.296,0,4.154,1.854,4.154,4.143v21.848c2.465,1.431,4.126,4.089,4.126,7.138h-8.151
		c-0.044,0.001-0.085,0.013-0.129,0.013c-2.293,0-4.151-1.854-4.151-4.143l-3.322-24.854
		C358.323,267.716,363.505,265.861,365.798,265.861z"/>
	<path fill="#592B26" d="M343.761,267.112c0,8.942-6.271,16.418-14.663,18.305l-2.494,6.438c2.462,1.431,4.121,4.088,4.121,7.133
		h-8.144c-0.044,0.001-0.087,0.012-0.131,0.012c-2.294,0-4.151-1.854-4.151-4.142l2.492-27.746
		C322.305,267.112,343.761,267.112,343.761,267.112z"/>
	<path fill="#592B26" d="M365.798,265.861c2.292,0,4.154,1.854,4.154,4.143v21.848c2.465,1.431,4.126,4.089,4.126,7.138h-8.153
		c-0.042,0.001-0.083,0.013-0.127,0.013c-2.293,0-4.151-1.854-4.151-4.143l-3.323-24.854
		C358.323,267.716,363.505,265.861,365.798,265.861z"/>
	<path fill="#753A2E" d="M344.706,265.861c0-9.761,7.933-17.674,17.72-17.674l0,0c9.785,0,17.721,7.913,17.721,17.674l0,0
		c0,9.759-7.936,17.674-17.721,17.674l0,0C352.639,283.535,344.706,275.62,344.706,265.861L344.706,265.861z"/>
	<path fill="#753A2E" d="M306.314,266.881c0.32-3.571,1.184-13.173,1.184-13.173l54.929-5.521v35.348l-37.476-7.979
		c-2.498,4.929-7.101,8.616-12.639,9.859l-2.492,6.438c2.461,1.431,4.12,4.088,4.12,7.133h-8.144
		c-0.044,0.001-0.085,0.012-0.129,0.012c-2.295,0-4.154-1.854-4.154-4.142l1.953-21.748
		C303.467,273.11,305.992,270.452,306.314,266.881z"/>
	<path fill="#753A2E" d="M356.936,223.3c-3.822-3.812-3.822-9.996,0-13.811l13.848,13.811
		C366.96,227.113,360.76,227.113,356.936,223.3z"/>
	<path fill="#753A2E" d="M343.646,227.164c-3.824-3.812-3.824-9.995,0-13.809l13.847,13.809
		C353.669,230.979,347.469,230.979,343.646,227.164z"/>
	<path fill="#753A2E" d="M374.943,273.371c-1.507-1.503-1.51-3.941,0-5.445l5.463,5.445
		C378.896,274.876,376.451,274.876,374.943,273.371z"/>
	<path fill="#753A2E" d="M376.238,270.695c-1.507-1.505-1.507-3.941,0-5.446l5.464,5.446
		C380.191,272.199,377.746,272.199,376.238,270.695z"/>
	<path fill="#753A2E" d="M377.533,268.021c-1.509-1.505-1.509-3.94,0-5.445l5.461,5.445
		C381.486,269.525,379.042,269.525,377.533,268.021z"/>
	<polygon fill="#753A2E" points="323.11,267.112 380.146,267.112 380.146,248.188 323.11,261.581 	"/>
	<path fill="#753A2E" d="M386.092,256.873c-15.523,2.278-29.959-8.422-32.242-23.903l56.21-8.257
		C412.341,240.194,401.612,254.594,386.092,256.873z"/>
	<polygon fill="#753A2E" points="386.092,256.873 357.986,261.001 353.85,232.969 381.954,228.842 	"/>
	<path fill="#FFFFFF" d="M370.647,253.949c-5.52-1.092-9.104-6.44-8.009-11.946l19.985,3.96
		C381.528,251.469,376.165,255.044,370.647,253.949z"/>
	<ellipse transform="matrix(0.156 0.9878 -0.9878 0.156 544.8367 -179.1096)" cx="377.229" cy="229.27" rx="2.278" ry="2.284"/>
	<circle cx="360.834" cy="231.894" r="2.284"/>
	<path d="M398.897,226.353l11.162-1.641c0.569,3.87,0.327,7.674-0.601,11.233C404.055,235.665,399.667,231.601,398.897,226.353z"/>
	<path fill="#753A2E" d="M357.078,298.988c0-3.049-1.665-5.707-4.129-7.138v-21.848c0-2.288-1.859-4.143-4.153-4.143
		s-7.475,1.854-7.475,4.143l3.322,24.854c0,2.287,1.857,4.142,4.151,4.142c0.044,0,0.086-0.011,0.13-0.012L357.078,298.988
		L357.078,298.988z"/>
	<g>
		<path fill="#753A2E" d="M293.238,255.037c-6.92-6.9-6.92-18.093,0-24.993l25.062,24.993
			C311.379,261.941,300.16,261.941,293.238,255.037z"/>
		<g>
			<g>
				<defs>
					<path id="SVGID_10_" d="M293.238,255.037c-6.92-6.9-6.92-18.093,0-24.993l25.062,24.993
						C311.379,261.941,300.16,261.941,293.238,255.037z"/>
				</defs>
				<clipPath id="SVGID_11_">
					<use xlink:href="#SVGID_10_"  overflow="visible"/>
				</clipPath>
				<g clip-path="url(#SVGID_11_)">
					<g>
						<path d="M294.899,263.737c-0.039,0-0.078-0.006-0.117-0.017c-0.221-0.065-0.348-0.297-0.281-0.517l3.812-12.917
							c0.066-0.219,0.298-0.343,0.518-0.28c0.22,0.064,0.346,0.296,0.28,0.516l-3.812,12.917
							C295.244,263.62,295.08,263.737,294.899,263.737z"/>
					</g>
					<g>
						<path d="M299.052,267.879c-0.039,0-0.078-0.006-0.117-0.017c-0.22-0.065-0.345-0.296-0.28-0.516l3.813-12.914
							c0.065-0.221,0.297-0.345,0.516-0.28c0.222,0.063,0.348,0.295,0.281,0.515l-3.812,12.914
							C299.398,267.762,299.233,267.879,299.052,267.879z"/>
					</g>
					<g>
						<path d="M290.747,259.596c-0.039,0-0.078-0.007-0.117-0.019c-0.221-0.063-0.347-0.295-0.281-0.515l3.812-12.917
							c0.065-0.221,0.296-0.342,0.518-0.28c0.22,0.064,0.346,0.295,0.28,0.515l-3.813,12.917
							C291.092,259.479,290.927,259.596,290.747,259.596z"/>
					</g>
				</g>
			</g>
		</g>
	</g>
	<path opacity="0.2" enable-background="new    " d="M320.791,267.112"/>
	<path opacity="0.2" enable-background="new    " d="M320.791,267.112"/>
	<g>
		<rect x="16.991" y="144.024" fill="#D3DFEA" width="100.847" height="43.843"/>
		<polygon fill="#BF7E6A" points="15.698,144.024 15.698,153.418 15.698,162.814 15.698,172.208 15.698,181.603 15.698,187.867 
			31.396,187.867 31.396,181.603 31.396,172.208 31.396,162.814 31.396,153.418 31.396,144.024 		"/>
		<polygon fill="#D99177" points="0,144.024 0,153.418 0,162.814 0,172.208 0,181.603 0,187.867 15.698,187.867 15.698,181.603 
			15.698,172.208 15.698,162.814 15.698,153.418 15.698,144.024 		"/>
		<polygon fill="#E7EFF8" points="47.095,153.418 47.095,162.814 47.095,187.867 100.887,187.867 100.887,162.814 100.887,153.418 
					"/>
		<rect x="47.095" y="144.024" fill="#6D9ACC" width="53.792" height="9.394"/>
		<rect x="47.095" y="135.412" fill="#ACCDEA" width="53.792" height="8.613"/>
		<rect x="50.417" y="156.551" fill="#6D9ACC" width="13.501" height="12.526"/>
		<rect x="67.241" y="156.551" fill="#6D9ACC" width="13.501" height="12.526"/>
		<g>
			<rect x="50.417" y="162.188" fill="#E7EFF8" width="13.501" height="1.252"/>
		</g>
		<rect x="84.064" y="156.551" fill="#6D9ACC" width="13.5" height="12.526"/>
		<g>
			<rect x="84.064" y="162.188" fill="#E7EFF8" width="13.5" height="1.252"/>
		</g>
		<rect x="34.536" y="156.551" fill="#6D9ACC" width="9.419" height="3.134"/>
		<rect x="34.536" y="165.947" fill="#6D9ACC" width="9.419" height="3.13"/>
		<rect x="34.536" y="175.341" fill="#6D9ACC" width="9.419" height="3.134"/>
		<g>
			<rect x="18.838" y="151.853" fill="#6D9ACC" width="9.419" height="26.621"/>
		</g>
		<rect x="18.838" y="150.288" fill="#E7EFF8" width="9.419" height="3.13"/>
		<rect x="18.838" y="159.684" fill="#E7EFF8" width="9.419" height="3.131"/>
		<rect x="18.838" y="169.077" fill="#E7EFF8" width="9.419" height="3.131"/>
		<rect x="3.139" y="147.157" fill="#FFE690" width="12.561" height="6.261"/>
		<rect x="6.279" y="150.288" fill="#F7F7F7" width="9.42" height="3.13"/>
		<rect x="84.064" y="172.208" opacity="0.25" enable-background="new    " width="13.5" height="15.659"/>
		<polygon opacity="0.75" enable-background="new    " points="97.564,177.585 84.064,182.201 84.064,172.208 97.564,172.208 		"/>
		<rect x="67.241" y="172.208" opacity="0.25" enable-background="new    " width="13.501" height="15.659"/>
		<polygon opacity="0.75" enable-background="new    " points="80.742,177.585 67.241,182.201 67.241,172.208 80.742,172.208 		"/>
		<polygon opacity="0.25" enable-background="new    " points="22.116,144.024 27.627,187.867 15.698,187.867 15.698,144.024 		"/>
		<rect x="100.887" y="144.024" fill="#D3DFEA" width="15.698" height="43.843"/>
		<polygon fill="#BF7E6A" points="116.585,144.024 116.585,153.418 116.585,162.814 116.585,172.208 116.585,181.603 
			116.585,187.867 132.284,187.867 132.284,181.603 132.284,172.208 132.284,162.814 132.284,153.418 132.284,144.024 		"/>
		<polygon fill="#D99177" points="132.284,144.024 132.284,153.418 132.284,162.814 132.284,172.208 132.284,181.603 
			132.284,187.867 147.982,187.867 147.982,181.603 147.982,172.208 147.982,162.814 147.982,153.418 147.982,144.024 		"/>
		<rect x="104.027" y="156.551" fill="#6D9ACC" width="9.419" height="3.134"/>
		<rect x="104.027" y="165.947" fill="#6D9ACC" width="9.419" height="3.13"/>
		<rect x="104.027" y="175.341" fill="#6D9ACC" width="9.419" height="3.134"/>
		<g>
			<rect x="119.725" y="151.853" fill="#6D9ACC" width="9.419" height="26.621"/>
		</g>
		<rect x="119.725" y="150.288" fill="#E7EFF8" width="9.419" height="3.13"/>
		<rect x="119.725" y="159.684" fill="#E7EFF8" width="9.419" height="3.131"/>
		<rect x="119.725" y="169.077" fill="#E7EFF8" width="9.419" height="3.131"/>
		<rect x="135.424" y="147.157" fill="#FFE690" width="12.558" height="6.261"/>
		<rect x="138.563" y="150.288" fill="#F7F7F7" width="9.419" height="3.13"/>
		<polygon opacity="0.25" enable-background="new    " points="123.004,144.024 128.513,187.867 116.585,187.867 116.585,144.024 		
			"/>
		<polygon opacity="0.25" enable-background="new    " points="107.306,144.024 112.816,187.867 100.887,187.867 100.887,144.024 		
			"/>
		<rect x="55.013" y="135.412" fill="#5487B2" width="1.256" height="18.006"/>
		<rect x="64.189" y="135.412" fill="#5487B2" width="1.255" height="18.006"/>
		<rect x="73.363" y="135.412" fill="#5487B2" width="1.257" height="18.006"/>
		<rect x="82.538" y="135.412" fill="#5487B2" width="1.255" height="18.006"/>
		<rect x="91.712" y="135.412" fill="#5487B2" width="1.255" height="18.006"/>
		<rect x="3.139" y="156.551" fill="#FFE690" width="12.561" height="6.265"/>
		<rect x="6.279" y="159.684" fill="#F7F7F7" width="9.42" height="3.131"/>
		<rect x="3.139" y="165.947" fill="#FFE690" width="12.561" height="6.261"/>
		<rect x="6.279" y="169.077" fill="#F7F7F7" width="9.42" height="3.131"/>
		<rect x="3.139" y="175.341" fill="#FFE690" width="12.561" height="6.263"/>
		<rect x="6.279" y="178.474" fill="#F7F7F7" width="9.42" height="3.129"/>
		<rect x="135.424" y="156.551" fill="#FFE690" width="12.558" height="6.265"/>
		<rect x="138.563" y="159.684" fill="#F7F7F7" width="9.419" height="3.131"/>
		<rect x="135.424" y="165.947" fill="#FFE690" width="12.558" height="6.261"/>
		<rect x="138.563" y="169.077" fill="#F7F7F7" width="9.419" height="3.131"/>
		<rect x="135.424" y="175.341" fill="#FFE690" width="12.558" height="6.263"/>
		<rect x="138.563" y="178.474" fill="#F7F7F7" width="9.419" height="3.129"/>
		<rect x="50.417" y="172.208" opacity="0.25" enable-background="new    " width="13.501" height="15.659"/>
		<polygon opacity="0.75" enable-background="new    " points="63.918,177.585 50.417,182.201 50.417,172.208 63.918,172.208 		"/>
	</g>
	<polygon fill="#0C6B2C" points="147.982,238.893 0,214.682 0,187.867 147.982,187.867 	"/>
	<polygon fill="#753A2E" points="426.456,90.927 342.734,90.927 342.734,161.18 510.181,161.18 510.181,90.927 	"/>
	<polygon fill="#6D9ACC" points="415.963,123.763 415.963,128.135 415.963,130.35 415.963,137.873 407.198,137.873 407.198,130.35 
		407.198,128.135 407.198,123.763 	"/>
	<path fill="#E7EFF8" d="M418.026,108.351c0-3.551-2.886-6.431-6.444-6.431c-3.56,0-6.447,2.88-6.447,6.431"/>
	<path fill="#6D9ACC" d="M411.581,103.979c2.422,0,4.382,1.959,4.382,4.372v8.801h-8.766v-8.801
		C407.198,105.938,409.158,103.979,411.581,103.979z"/>
	<path fill="#6D9ACC" d="M407.198,108.692"/>
	<path fill="#6D9ACC" d="M415.963,108.692"/>
	<rect x="407.198" y="117.151" fill="#E7EFF8" width="8.766" height="6.611"/>
	<polygon fill="#6D9ACC" points="396.129,123.763 396.129,128.135 396.129,130.35 396.129,137.873 387.362,137.873 387.362,130.35 
		387.362,128.135 387.362,123.763 	"/>
	<path fill="#E7EFF8" d="M398.191,108.351c0-3.551-2.885-6.431-6.446-6.431s-6.444,2.88-6.444,6.431"/>
	<path fill="#6D9ACC" d="M391.744,103.979c2.423,0,4.385,1.959,4.385,4.372v8.801h-8.768v-8.801
		C387.362,105.938,389.324,103.979,391.744,103.979z"/>
	<path fill="#6D9ACC" d="M387.362,108.692"/>
	<path fill="#6D9ACC" d="M396.129,108.692"/>
	<rect x="387.362" y="117.151" fill="#E7EFF8" width="8.768" height="6.611"/>
	<polygon fill="#6D9ACC" points="396.129,142.61 396.129,149.898 396.129,152.112 396.129,159.688 387.362,159.688 387.362,152.112 
		387.362,149.898 387.362,142.61 	"/>
	<polygon fill="#6D9ACC" points="381.252,123.763 381.252,128.135 381.252,130.35 381.252,137.873 372.487,137.873 372.487,130.35 
		372.487,128.135 372.487,123.763 	"/>
	<path fill="#E7EFF8" d="M383.318,108.351c0-3.551-2.889-6.431-6.448-6.431c-3.561,0-6.447,2.88-6.447,6.431"/>
	<path fill="#6D9ACC" d="M376.869,103.979c2.423,0,4.383,1.959,4.383,4.372v8.801h-8.766v-8.801
		C372.487,105.938,374.447,103.979,376.869,103.979z"/>
	<path fill="#6D9ACC" d="M372.487,108.692"/>
	<path fill="#6D9ACC" d="M381.252,108.692"/>
	<rect x="372.487" y="117.151" fill="#E7EFF8" width="8.766" height="6.611"/>
	<polygon fill="#6D9ACC" points="366.378,123.763 366.378,128.135 366.378,130.35 366.378,137.873 357.608,137.873 357.608,130.35 
		357.608,128.135 357.608,123.763 	"/>
	<path fill="#E7EFF8" d="M368.44,108.351c0-3.551-2.888-6.431-6.447-6.431c-3.561,0-6.443,2.88-6.443,6.431"/>
	<path fill="#6D9ACC" d="M361.992,103.979c2.42,0,4.386,1.959,4.386,4.372v8.801h-8.771v-8.801
		C357.608,105.938,359.573,103.979,361.992,103.979z"/>
	<path fill="#6D9ACC" d="M357.608,108.692"/>
	<path fill="#6D9ACC" d="M366.378,108.692"/>
	<path fill="#6D9ACC" d="M361.992,108.692"/>
	<path fill="#6D9ACC" d="M361.992,117.151"/>
	<rect x="357.608" y="117.151" fill="#E7EFF8" width="8.771" height="6.611"/>
	<polygon fill="#6D9ACC" points="366.378,142.61 366.378,149.898 366.378,152.112 366.378,159.688 357.608,159.688 357.608,152.112 
		357.608,149.898 357.608,142.61 	"/>
	<polygon fill="#6D9ACC" points="381.252,142.61 381.252,149.898 381.252,152.112 381.252,159.688 372.487,159.688 372.487,152.112 
		372.487,149.898 372.487,142.61 	"/>
	<rect x="396.129" y="86.155" fill="#753A2E" width="11.068" height="4.269"/>
	<rect x="407.198" y="86.155" fill="#E7EFF8" width="38.521" height="4.269"/>
	<rect x="418.458" y="84.424" fill="#E7EFF8" width="15.998" height="5.999"/>
	<path fill="#E7EFF8" d="M426.456,88.998c-1.983,0-3.597-1.604-3.597-3.585c0-1.98,1.612-3.585,3.597-3.585"/>
	<polygon fill="#6D9ACC" points="422.073,123.763 422.073,128.135 422.073,130.35 422.073,137.873 430.842,137.873 430.842,130.35 
		430.842,128.135 430.842,123.763 	"/>
	<path fill="#E7EFF8" d="M420.011,108.351c0-3.551,2.887-6.431,6.445-6.431c3.562,0,6.446,2.88,6.446,6.431"/>
	<path fill="#6D9ACC" d="M426.456,103.979c-2.421,0-4.383,1.959-4.383,4.372v8.801h8.769v-8.801
		C430.842,105.938,428.878,103.979,426.456,103.979z"/>
	<path fill="#6D9ACC" d="M430.842,108.692"/>
	<path fill="#6D9ACC" d="M422.073,108.692"/>
	<rect x="422.073" y="117.151" fill="#E7EFF8" width="8.769" height="6.611"/>
	<polygon fill="#6D9ACC" points="436.948,123.763 436.948,128.135 436.948,130.35 436.948,137.873 445.718,137.873 445.718,130.35 
		445.718,128.135 445.718,123.763 	"/>
	<path fill="#E7EFF8" d="M434.888,108.351c0-3.551,2.888-6.431,6.447-6.431c3.559,0,6.444,2.88,6.444,6.431"/>
	<path fill="#6D9ACC" d="M441.335,103.979c-2.424,0-4.387,1.959-4.387,4.372v8.801h8.77v-8.801
		C445.718,105.938,443.755,103.979,441.335,103.979z"/>
	<rect x="436.948" y="117.151" fill="#E7EFF8" width="8.77" height="6.611"/>
	<polygon fill="#6D9ACC" points="456.786,123.763 456.786,128.135 456.786,130.35 456.786,137.873 465.552,137.873 465.552,130.35 
		465.552,128.135 465.552,123.763 	"/>
	<path fill="#E7EFF8" d="M454.724,108.351c0-3.551,2.885-6.431,6.445-6.431c3.56,0,6.446,2.88,6.446,6.431"/>
	<path fill="#6D9ACC" d="M461.169,103.979c-2.424,0-4.383,1.959-4.383,4.372v8.801h8.766v-8.801
		C465.552,105.938,463.591,103.979,461.169,103.979z"/>
	<rect x="456.786" y="117.151" fill="#E7EFF8" width="8.766" height="6.611"/>
	<polygon fill="#6D9ACC" points="456.786,142.61 456.786,149.898 456.786,152.112 456.786,159.688 465.552,159.688 465.552,152.112 
		465.552,149.898 465.552,142.61 	"/>
	<polygon fill="#6D9ACC" points="471.659,123.763 471.659,128.135 471.659,130.35 471.659,137.873 480.428,137.873 480.428,130.35 
		480.428,128.135 480.428,123.763 	"/>
	<path fill="#E7EFF8" d="M469.599,108.351c0-3.551,2.888-6.431,6.444-6.431c3.562,0,6.447,2.88,6.447,6.431"/>
	<path fill="#6D9ACC" d="M476.043,103.979c-2.42,0-4.384,1.959-4.384,4.372v8.801h8.769v-8.801
		C480.428,105.938,478.466,103.979,476.043,103.979z"/>
	<rect x="471.659" y="117.151" fill="#E7EFF8" width="8.769" height="6.611"/>
	<polygon fill="#6D9ACC" points="486.537,123.763 486.537,128.135 486.537,130.35 486.537,137.873 495.306,137.873 495.306,130.35 
		495.306,128.135 495.306,123.763 	"/>
	<path fill="#E7EFF8" d="M484.475,108.351c0-3.551,2.888-6.431,6.448-6.431c3.56,0,6.443,2.88,6.443,6.431"/>
	<path fill="#6D9ACC" d="M490.923,103.979c-2.425,0-4.386,1.959-4.386,4.372v8.801h8.769v-8.801
		C495.306,105.938,493.342,103.979,490.923,103.979z"/>
	<rect x="486.537" y="117.151" fill="#E7EFF8" width="8.769" height="6.611"/>
	<polygon fill="#6D9ACC" points="486.537,142.61 486.537,149.898 486.537,152.112 486.537,159.688 495.306,159.688 495.306,152.112 
		495.306,149.898 495.306,142.61 	"/>
	<polygon fill="#6D9ACC" points="471.659,142.61 471.659,149.898 471.659,152.112 471.659,159.688 480.428,159.688 480.428,152.112 
		480.428,149.898 480.428,142.61 	"/>
	<path fill="#E7EFF8" d="M426.456,90.423h-87.337v1.667c0,0,3.072,0.433,3.614,4.947h83.723h83.725
		c0.54-4.515,3.613-4.947,3.613-4.947v-1.667H426.456z"/>
	<rect x="445.718" y="86.155" fill="#753A2E" width="11.068" height="4.269"/>
	<path fill="#E7EFF8" d="M426.456,88.998c1.985,0,3.596-1.604,3.596-3.585c0-1.98-1.609-3.585-3.596-3.585"/>
	<polygon fill="#BFCDDB" points="426.456,92.09 339.119,92.09 341.54,93.73 426.456,93.73 511.373,93.73 513.794,92.09 	"/>
	<rect x="409.065" y="142.61" opacity="0.4" enable-background="new    " width="34.783" height="9.753"/>
	<rect x="407.198" y="142.61" fill="#9B5C54" width="3.736" height="22.361"/>
	<rect x="441.98" y="142.61" fill="#9B5C54" width="3.737" height="22.361"/>
	<rect x="420.091" y="142.61" fill="#542E33" width="12.732" height="18.569"/>
	<polygon opacity="0.4" enable-background="new    " points="432.823,150.54 420.091,154.239 420.091,142.61 432.823,142.61 	"/>
	<polygon fill="#BFCDDB" points="410.055,90.423 407.198,90.423 407.198,86.155 408.072,86.155 	"/>
	<polygon fill="#BFCDDB" points="437.314,90.423 434.456,90.423 434.456,86.155 435.329,86.155 	"/>
	<polygon fill="#31313F" points="97.564,230.644 50.417,222.93 50.417,187.867 97.564,187.867 	"/>
	<path opacity="0.15" enable-background="new    " d="M377.89,274.479c0.916-0.051,1.816-0.41,2.518-1.108l-1.38-1.374
		c0.022-0.062,0.044-0.124,0.066-0.187c0.947-0.03,1.884-0.396,2.607-1.115l-1.564-1.559c1.029,0.032,2.072-0.332,2.857-1.116
		l-2.849-2.84v-7.435l-24.482,24.422c2.087,0.865,4.361,1.366,6.763,1.366C369.07,283.535,374.855,279.879,377.89,274.479z"/>
	<g>
		<g opacity="0.5">
			<path d="M361.992,103.979c-2.42,0-4.385,1.959-4.385,4.372v1.25c0-2.413,1.965-4.372,4.385-4.372s4.386,1.959,4.386,4.372v-1.25
				C366.378,105.938,364.412,103.979,361.992,103.979z"/>
		</g>
	</g>
	<g>
		<g opacity="0.5">
			<path d="M376.872,103.979c-2.422,0-4.386,1.959-4.386,4.372v1.25c0-2.413,1.964-4.372,4.386-4.372
				c2.42,0,4.383,1.959,4.383,4.372v-1.25C381.255,105.938,379.292,103.979,376.872,103.979z"/>
		</g>
	</g>
	<g>
		<g opacity="0.5">
			<path d="M391.746,103.979c-2.42,0-4.385,1.959-4.385,4.372v1.25c0-2.413,1.965-4.372,4.385-4.372
				c2.421,0,4.386,1.959,4.386,4.372v-1.25C396.132,105.938,394.167,103.979,391.746,103.979z"/>
		</g>
	</g>
	<g>
		<g opacity="0.5">
			<path d="M411.584,103.979c-2.423,0-4.386,1.959-4.386,4.372v1.25c0-2.413,1.963-4.372,4.386-4.372
				c2.419,0,4.383,1.959,4.383,4.372v-1.25C415.967,105.938,414.003,103.979,411.584,103.979z"/>
		</g>
	</g>
	<g>
		<g opacity="0.5">
			<path d="M426.456,103.979c-2.419,0-4.383,1.959-4.383,4.372v1.25c0-2.413,1.964-4.372,4.383-4.372
				c2.422,0,4.386,1.959,4.386,4.372v-1.25C430.842,105.938,428.878,103.979,426.456,103.979z"/>
		</g>
	</g>
	<g>
		<g opacity="0.5">
			<path d="M441.335,103.979c-2.424,0-4.387,1.959-4.387,4.372v1.25c0-2.413,1.963-4.372,4.387-4.372
				c2.42,0,4.383,1.959,4.383,4.372v-1.25C445.718,105.938,443.755,103.979,441.335,103.979z"/>
		</g>
	</g>
	<g>
		<g opacity="0.5">
			<path d="M461.171,103.979c-2.424,0-4.385,1.959-4.385,4.372v1.25c0-2.413,1.961-4.372,4.385-4.372
				c2.42,0,4.383,1.959,4.383,4.372v-1.25C465.554,105.938,463.591,103.979,461.171,103.979z"/>
		</g>
	</g>
	<g>
		<g opacity="0.5">
			<path d="M476.046,103.979c-2.421,0-4.387,1.959-4.387,4.372v1.25c0-2.413,1.967-4.372,4.387-4.372s4.384,1.959,4.384,4.372v-1.25
				C480.43,105.938,478.466,103.979,476.046,103.979z"/>
		</g>
	</g>
	<g>
		<g opacity="0.5">
			<path d="M490.923,103.979c-2.421,0-4.386,1.959-4.386,4.372v1.25c0-2.413,1.965-4.372,4.386-4.372
				c2.419,0,4.385,1.959,4.385,4.372v-1.25C495.308,105.938,493.342,103.979,490.923,103.979z"/>
		</g>
	</g>
	<polygon fill="#0C6B2C" points="516,178.444 336.916,195.47 336.916,161.18 338.168,159.93 401.089,161.18 451.826,161.18 
		514.747,159.93 516,161.18 	"/>
	<rect x="401.089" y="163.077" fill="#B2C5D8" width="50.737" height="1.896"/>
	<rect x="401.089" y="161.18" fill="#E7EFF8" width="50.737" height="1.896"/>
	<g>
		<path fill="#0C6B2C" d="M390.581,161.18c0-3.205-3.855-5.803-7.068-5.803c-3.212,0-4.565,2.598-4.565,5.803H390.581z"/>
		<path fill="#0C6B2C" d="M401.089,161.18c0-3.205-3.856-5.803-7.069-5.803s-4.562,2.598-4.562,5.803H401.089z"/>
		<path fill="#0C6B2C" d="M380.073,161.18c0-3.205-3.855-5.803-7.068-5.803s-4.563,2.598-4.563,5.803H380.073z"/>
		<path fill="#0C6B2C" d="M369.565,161.18c0-3.205-3.854-5.803-7.068-5.803c-3.212,0-4.565,2.598-4.565,5.803H369.565z"/>
		<path fill="#0C6B2C" d="M348.55,161.18c0-3.205-3.856-5.803-7.068-5.803c-3.213,0-4.564,2.598-4.564,5.803l0,0H348.55z"/>
		<path fill="#0C6B2C" d="M359.057,161.18c0-3.205-3.854-5.803-7.065-5.803c-3.217,0-4.566,2.598-4.566,5.803H359.057z"/>
	</g>
	<polygon fill="#31313F" points="451.826,184.489 401.089,189.336 401.089,164.972 451.826,164.972 	"/>
	<polygon fill="#E7EFF8" points="427.448,136.936 426.456,136.936 341.481,136.936 341.481,143.235 426.456,143.235 
		427.448,143.235 511.435,143.235 511.435,136.936 	"/>
	<rect x="407.198" y="136.936" fill="#F2F6F9" width="38.521" height="6.299"/>
	<polygon opacity="0.25" enable-background="new    " points="461.948,161.18 445.718,161.18 445.718,136.936 450.684,136.936 	"/>
	<g>
		<path fill="#0C6B2C" d="M505.49,161.18c0-3.205-1.351-5.803-4.562-5.803c-3.21,0-7.068,2.598-7.068,5.803H505.49z"/>
		<path fill="#0C6B2C" d="M516,161.18c0-3.205-1.352-5.803-4.563-5.803c-3.213,0-7.071,2.598-7.071,5.803H516z"/>
		<path fill="#0C6B2C" d="M494.983,161.18c0-3.205-1.349-5.803-4.563-5.803c-3.212,0-7.069,2.598-7.069,5.803H494.983z"/>
		<path fill="#0C6B2C" d="M484.478,161.18c0-3.205-1.351-5.803-4.563-5.803c-3.215,0-7.071,2.598-7.071,5.803H484.478z"/>
		<path fill="#0C6B2C" d="M463.459,161.18c0-3.205-1.352-5.803-4.562-5.803c-3.216,0-7.071,2.598-7.071,5.803H463.459z"/>
		<path fill="#0C6B2C" d="M473.969,161.18c0-3.205-1.353-5.803-4.563-5.803c-3.213,0-7.07,2.598-7.07,5.803H473.969z"/>
	</g>
</g>
</svg>
