<svg width="32" height="32" viewBox="0 0 32 32" xmlns="http://www.w3.org/2000/svg"><title>74FED678-93E8-4764-A776-BA2D637112B7</title><g fill="none" fill-rule="evenodd"><path d="M32 16c0 4.567-1.915 8.69-4.985 11.602A15.925 15.925 0 0 1 16 32a15.925 15.925 0 0 1-11.015-4.398A15.948 15.948 0 0 1 0 16C0 7.162 7.162 0 16 0c8.837 0 16 7.162 16 16" fill="#187AE4"/><path d="M26.055 25.973a14.735 14.735 0 0 1-1.725 1.502 14.138 14.138 0 0 1-8.453 2.775 14.14 14.14 0 0 1-9.93-4.035l-.002-.23c1.115-3.802 7.535-3.4 7.535-5.217v-1.3c-1.005-.75-1.345-1.983-1.688-3.263-.325.005-.707-.517-.872-1.222-.18-.753-.05-1.428.29-1.51a.375.375 0 0 1 .157.005c-.03-.43-.037-.823-.037-1.148h.012c-.302-3.805 4.39-6.782 7.268-3.97 1.62.385 2.16 2.028 2.15 3.97 0 .323-.01.708-.038 1.135.023 0 .046.003.068.008.343.082.472.757.295 1.51-.155.637-.483 1.13-.785 1.21-.353 1.32-.718 2.59-1.775 3.335v1.24c0 1.815 6.405 1.415 7.53 5.205" fill="#FFF"/></g></svg>