<?xml version="1.0" encoding="utf-8"?>
<!-- Generator: Adobe Illustrator 16.0.0, SVG Export Plug-In . SVG Version: 6.00 Build 0)  -->
<!DOCTYPE svg PUBLIC "-//W3C//DTD SVG 1.1//EN" "http://www.w3.org/Graphics/SVG/1.1/DTD/svg11.dtd">
<svg version="1.1" id="Layer_1" xmlns="http://www.w3.org/2000/svg" xmlns:xlink="http://www.w3.org/1999/xlink" x="0px" y="0px"
	 width="300px" height="42px" viewBox="0 0 300 42" enable-background="new 0 0 300 42" xml:space="preserve">
<g>
	<circle fill="#F9ED32" cx="163.304" cy="17.227" r="8.322"/>
	<g>
		<path d="M72.89,6.425c-2.708-0.099-5.21,0.895-7.165,3.089l0.101-2.756l-7.583-0.278L57.04,39.325l7.583,0.277l0.435-11.868
			c1.884,2.437,4.258,3.56,6.917,3.657c5.958,0.218,10.603-4.049,10.899-12.125C83.168,11.24,78.849,6.643,72.89,6.425z
			 M69.709,24.604c-1.625-0.059-3.561-1.067-4.451-2.334l0.265-7.238c0.982-1.246,2.985-2.061,4.61-2
			c2.955,0.108,5.14,2.406,5.009,5.952C75.011,22.577,72.664,24.713,69.709,24.604z"/>
		<path d="M142.318,5.995L129.6,14.01l-0.252-0.139c-1.683-0.926-3.781-1.278-6.165-1.04l-3.938,0.396l-0.446-4.422l-7.041,0.709
			l2.304,22.865l6.555-0.66l0.925-0.173l3.491-0.353c5.875-0.594,9.17-4.479,8.599-10.144c-0.083-0.815-0.257-1.635-0.517-2.437
			l-0.118-0.362l3.91-2.462l1.426,14.144l7.04-0.71L142.978,5.47L142.318,5.995z M123.939,25.407l-3.433,0.346l-0.674-6.688
			l3.433-0.346c0.121-0.012,0.251-0.02,0.389-0.02c0.79,0,2.659,0.298,2.937,3.062C126.895,24.776,124.838,25.315,123.939,25.407z"
			/>
		<path d="M244.505,17.553c-0.714-7.111-4.456-10.869-10.822-10.869c-0.566,0-1.159,0.031-1.761,0.091
			c-4.615,0.463-7.857,2.111-9.631,4.899c-1.354,2.126-1.869,4.905-1.533,8.26c0.492,4.923,2.87,10.793,11.398,10.793
			c0.686,0,1.41-0.038,2.157-0.112c1.683-0.17,5.376-1.143,8.653-3.133l0.668-0.402l-3.426-4.979l-0.563,0.259
			c-3.679,1.698-4.946,1.826-5.963,1.93c-2.464,0.253-4.067-0.693-4.876-2.771l-0.238-0.61l16.137-1.349L244.505,17.553z
			 M228.193,16.731l0.085-0.616c0.409-2.926,2.259-3.501,4.018-3.678c2.435-0.242,4.011,0.588,4.829,2.782l0.223,0.594
			L228.193,16.731z"/>
		<polygon points="199.942,13.324 189.979,1.667 183.499,1.379 182.238,29.71 189.797,30.047 190.518,13.848 199.493,23.375 
			209.284,14.684 208.562,30.881 216.119,31.219 217.38,2.887 210.902,2.599 		"/>
		<path d="M299.811,28.676c-0.615-2.473-1.044-4.991-1.171-6.912c-0.037-0.337-0.064-0.693-0.083-1.052l-0.296-5.471
			c-0.233-4.276-2.384-6.429-4.147-7.483c-3.657-2.19-8.288-1.856-15.414,1.066l-0.723,0.298l2.521,5.166l0.573-0.142
			c0.814-0.2,1.55-0.395,2.224-0.573l0.221-0.059c1.749-0.465,3.015-0.801,4.113-0.861c0.131-0.007,0.256-0.01,0.376-0.01
			c1.504,0,2.336,0.583,2.691,1.891l0.151,0.549l-7.476,0.877c-2.134,0.519-7.203,1.748-6.88,7.714
			c0.193,3.528,2.672,7.649,9.029,7.649h0.118c2.291-0.146,4.449-1.241,6.451-3.258l0.574-0.577l0.965,3.127l6.37-1.185
			L299.811,28.676z M290.439,21.11c-1.39,2.71-3.176,3.234-3.927,3.331l-0.021,0.021l-0.204,0.001l-0.164-0.013
			c-2.28,0.118-2.306-1.094-2.326-1.479c-0.089-1.625,1.239-2.332,4.734-2.52c0.479-0.027,0.97-0.043,1.464-0.053l0.818-0.016
			L290.439,21.11z"/>
		<path d="M252.359,9.904c-0.327,1.86-0.673,4.167-0.979,6.202l-0.031,0.205c-0.496,3.317-0.825,5.479-1,5.972
			c-0.31,0.589-1.615,1.356-2.74,1.507l-0.751,0.102l1.122,6.771l0.706-0.095c1.751-0.236,7.034-0.957,8.612-5.347
			c0.446-1.239,0.835-4.236,1.287-7.706l0.087-0.655c0.136-1.035,0.274-2.074,0.413-3.059l0.061-0.44l5.567,0.252l-0.772,17.078
			l7.555,0.343l1.064-23.428L252.92,6.715L252.359,9.904z"/>
		<path d="M42.175,22.049L35.746,7.524l-7.899,0.589l11.145,23.195l-0.441,1.309c-0.317,1.005-1.365,1.426-3.071,1.553
			c-0.585,0.044-1.328-0.048-1.886-0.3L33.02,40.63c0.798,0.186,2.564,0.201,3.247,0.149c4.479-0.434,7.955-1.82,9.484-6.935
			l8.622-27.71l-7.948,0.593L42.175,22.049z"/>
		<polygon points="15.976,14.859 16.638,14.559 25.917,0.239 16.898,0 8.917,15.568 7.53,1.006 0,1.724 2.921,32.389 10.452,31.672 
			9.032,16.769 21.144,30.746 29.485,28.694 16.448,14.933 		"/>
		<path d="M99.945,25.146c-3.103,0.402-5.762-1.471-6.221-5.011c-0.459-3.54,1.64-5.982,4.744-6.384
			c1.988-0.258,3.604,0.42,4.702,1.658l4.265-5.138c-1.676-1.902-5.118-3.725-10.161-3.071c-7.322,0.949-12.16,6.605-11.211,13.928
			c0.956,7.37,7.076,11.606,14.398,10.657c5.043-0.653,7.9-3.341,9.042-5.56l-5.439-3.931
			C103.311,23.724,101.933,24.889,99.945,25.146z"/>
	</g>
</g>
</svg>
