<?xml version="1.0" encoding="utf-8"?>
<!-- Generator: Adobe Illustrator 16.0.0, SVG Export Plug-In . SVG Version: 6.00 Build 0)  -->
<!DOCTYPE svg PUBLIC "-//W3C//DTD SVG 1.1//EN" "http://www.w3.org/Graphics/SVG/1.1/DTD/svg11.dtd">
<svg version="1.1" id="Layer_1" xmlns="http://www.w3.org/2000/svg" xmlns:xlink="http://www.w3.org/1999/xlink" x="0px" y="0px"
	 width="178px" height="18px" viewBox="0 0 178 18" enable-background="new 0 0 178 18" xml:space="preserve">
<g>
	<path d="M45.4,3.602c-3.185,0-6.981,1.168-6.981,6.733c0,5.564,3.796,6.732,6.981,6.732c3.185,0,6.982-1.168,6.982-6.732
		C52.382,4.77,48.585,3.602,45.4,3.602z M45.4,13.495c-2.015,0-2.729-0.827-2.729-3.16c0-2.333,0.715-3.161,2.729-3.161
		c2.016,0,2.73,0.827,2.73,3.161C48.13,12.668,47.416,13.495,45.4,13.495z"/>
	<path d="M144.078,12.368c-2.07,0.955-2.781,1.026-3.354,1.084c-1.369,0.136-2.285-0.39-2.738-1.557l-0.135-0.345l7.4-0.584
		l1.67-0.168l-0.113-1.133c-0.4-3.997-2.504-6.109-6.082-6.109c-0.318,0-0.65,0.017-0.99,0.051c-3.168,0.318-6.83,1.859-6.275,7.396
		c0.277,2.768,1.615,6.066,6.406,6.066c0.387,0,0.795-0.021,1.213-0.063c0.947-0.095,3.023-0.643,4.865-1.76l0.373-0.227
		l-1.924-2.799L144.078,12.368z M137.689,8.858c0.229-1.646,1.27-1.969,2.256-2.068c0.166-0.017,0.326-0.025,0.48-0.025
		c1.121,0,1.83,0.505,2.236,1.59l0.125,0.333l-5.146,0.516L137.689,8.858z"/>
	<polygon points="16.485,0.421 17.709,12.727 13.697,13.126 12.528,1.367 8.296,1.788 9.466,13.547 5.455,13.946 4.23,1.64 0,2.061 
		1.578,17.921 22.293,15.861 20.716,0 	"/>
	<path d="M55.549,12.124c-0.188,0.326-0.938,0.729-1.572,0.789l-0.424,0.04l0.486,3.827l0.397-0.038
		c0.985-0.095,3.971-0.382,4.953-2.816c0.277-0.688,0.561-2.36,0.888-4.297c0.119-0.7,0.24-1.412,0.361-2.08l0.045-0.246
		l3.121,0.262l-0.803,9.582l4.242,0.287L68.34,4.361L57.328,3.437l-0.382,1.779c-0.231,1.068-0.481,2.391-0.702,3.558
		C55.905,10.567,55.66,11.846,55.549,12.124z"/>
	<polygon points="33.105,10.034 37.911,4.702 32.919,3.758 28.885,9.719 29.288,3.585 25.045,3.306 24.181,16.469 28.424,16.747 
		28.84,10.413 32.789,17.086 37.606,16.696 37.184,16.104 	"/>
	<polygon points="116.162,0.737 112.521,0.576 111.812,16.499 116.061,16.688 116.465,7.584 121.51,12.938 127.012,8.053 
		126.607,17.157 130.855,17.347 131.564,1.423 127.922,1.261 121.762,7.289 	"/>
	<path d="M177.234,12.033c-0.02-0.191-0.035-0.39-0.045-0.593l-0.168-3.074c-0.131-2.403-1.338-3.613-2.33-4.206
		c-2.055-1.23-4.658-1.044-8.662,0.599l-0.408,0.167l1.418,2.903l0.322-0.08c0.465-0.114,0.885-0.226,1.268-0.327l0.105-0.028
		c0.945-0.251,1.691-0.45,2.314-0.484c0.072-0.004,0.143-0.006,0.209-0.006c0.846,0,1.312,0.328,1.514,1.062l0.084,0.309
		l-4.201,0.494c-1.197,0.291-4.049,0.981-3.867,4.336c0.109,1.983,1.502,4.299,5.076,4.299h0.066c1.287-0.082,2.5-0.697,3.625-1.831
		l0.322-0.324l0.543,1.758l3.58-0.666l-0.105-0.424C177.549,14.529,177.307,13.112,177.234,12.033z M172.627,11.665
		c-0.861,1.678-1.99,1.865-2.316,1.884l-0.105-0.007c-1.291,0.066-1.301-0.614-1.312-0.831c-0.049-0.913,0.697-1.311,2.662-1.417
		c0.27-0.015,0.545-0.023,0.822-0.029l0.461-0.011L172.627,11.665z"/>
	<path d="M150.656,8.968c-0.277,1.861-0.465,3.078-0.562,3.355c-0.174,0.332-0.908,0.763-1.541,0.848l-0.42,0.056l0.631,3.807
		l0.396-0.054c0.98-0.132,3.951-0.534,4.84-3.005c0.25-0.696,0.469-2.378,0.723-4.327l0.031-0.238
		c0.082-0.626,0.166-1.257,0.25-1.853l0.035-0.248l3.129,0.142l-0.436,9.599l4.248,0.193l0.598-13.168l-11.039-0.501l-0.314,1.792
		c-0.188,1.061-0.385,2.375-0.559,3.535L150.656,8.968z"/>
	<path d="M87.965,2.96L80.75,7.179l-0.138-0.079c-0.94-0.539-2.068-0.772-3.46-0.677L75.07,6.564l-0.168-2.492l-4.243,0.286
		l0.887,13.161l3.832-0.259l0.664-0.089l1.827-0.123c3.395-0.229,5.367-2.407,5.146-5.685c-0.03-0.437-0.102-0.865-0.222-1.31
		l-0.055-0.202l1.955-1.143l0.531,7.888l4.243-0.287L88.539,2.533L87.965,2.96z M78.355,13.084c-0.248,0.249-0.588,0.39-1.013,0.418
		l-1.797,0.121l-0.236-3.495l1.797-0.121c0.047-0.003,0.096-0.005,0.145-0.005c0.526,0,1.425,0.214,1.521,1.648
		C78.815,12.279,78.675,12.762,78.355,13.084z"/>
	<path fill="#00AA00" d="M100.986,4.558c-2.428,0-4.402,1.975-4.402,4.402s1.975,4.403,4.402,4.403s4.404-1.976,4.404-4.403
		S103.414,4.558,100.986,4.558z"/>
</g>
</svg>
