<?xml version="1.0" encoding="UTF-8"?>
<svg width="281px" height="39px" viewBox="0 0 281 39" version="1.1" xmlns="http://www.w3.org/2000/svg" xmlns:xlink="http://www.w3.org/1999/xlink">
    <!-- Generator: Sketch 42 (36781) - http://www.bohemiancoding.com/sketch -->
    <title>logo_ic</title>
    <desc>Created with Sketch.</desc>
    <defs></defs>
    <g id="Symbols" stroke="none" stroke-width="1" fill="none" fill-rule="evenodd">
        <g id="logo_ic">
            <g transform="translate(0.327778, 0.000000)">
                <path d="M139.727156,8.0484 C135.013097,8.0484 131.193517,11.8584 131.193517,16.5584 C131.193517,21.2584 135.013097,25.0694 139.727156,25.0694 C144.439209,25.0694 148.260795,21.2584 148.260795,16.5584 C148.260795,11.8584 144.439209,8.0484 139.727156,8.0484" id="Fill-1" fill="#007AFF"></path>
                <path d="M98.2254928,25.5714 L95.0246261,25.8924 L94.3968872,19.6754 L97.5967511,19.3544 C97.7090622,19.3424 97.8303983,19.3364 97.9587539,19.3364 C98.6947928,19.3364 100.437621,19.6134 100.69734,22.1814 C100.981126,24.9854 99.0628122,25.4864 98.2254928,25.5714 L98.2254928,25.5714 Z M115.359957,7.5244 L103.503112,14.9754 L103.267459,14.8464 C101.698112,13.9854 99.7426956,13.6584 97.5195372,13.8794 L93.8483678,14.2484 L93.432215,10.1364 L86.8680317,10.7964 L89.0159817,32.0544 L95.1269094,31.4404 L95.9903011,31.2794 L99.244315,30.9524 C104.721487,30.4004 107.792996,26.7874 107.260521,21.5214 C107.184309,20.7634 107.020857,20.0014 106.778184,19.2564 L106.668882,18.9194 L110.314982,16.6304 L111.642659,29.7804 L118.206843,29.1204 L115.974659,7.0354 L115.359957,7.5244 Z" id="Fill-3" fill="#000000"></path>
                <path d="M206.265974,16.0519 L206.354218,15.4219 C206.773379,12.4289 208.670635,11.8409 210.472627,11.6599 C212.971549,11.4129 214.587024,12.2609 215.427352,14.5059 L215.653979,15.1129 L206.265974,16.0519 Z M222.994313,16.8929 C222.262285,9.6209 218.424654,5.7779 211.895568,5.7779 C211.315963,5.7779 210.709282,5.8089 210.090568,5.8709 C205.357457,6.3439 202.034252,8.0299 200.21421,10.8819 C198.826366,13.0559 198.296899,15.8979 198.640852,19.3279 C199.147254,24.3629 201.58601,30.3649 210.330232,30.3649 C211.034182,30.3649 211.778243,30.3259 212.543363,30.2499 C214.268141,30.0759 218.056635,29.0809 221.417946,27.0459 L222.100838,26.6349 L218.58911,21.5439 L218.012513,21.8089 C214.238057,23.5449 212.93946,23.6759 211.895568,23.7809 C209.371577,24.0399 207.725016,23.0729 206.896721,20.9479 L206.653046,20.3239 L223.200885,18.9449 L222.994313,16.8929 Z" id="Fill-5" fill="#000000"></path>
                <polygon id="Fill-7" fill="#000000" points="177.297027 12.568 167.080727 0.648 160.436322 0.353 159.142739 29.324 166.893208 29.669 167.632255 13.104 176.837755 22.846 186.876564 13.958 186.136514 30.522 193.88598 30.866 195.179564 1.895 188.535158 1.6"></polygon>
                <path d="M270.098094,20.5304 C268.672144,23.3014 266.840069,23.8384 266.069936,23.9364 L266.04988,23.9574 L265.8403,23.9584 L265.671833,23.9454 C263.333355,24.0664 263.307283,22.8274 263.285222,22.4324 C263.195975,20.7704 264.557747,20.0484 268.141675,19.8554 C268.632033,19.8274 269.13643,19.8114 269.64183,19.8014 L270.481155,19.7854 L270.098094,20.5304 Z M279.707714,28.2664 C279.074961,25.7384 278.63775,23.1624 278.505383,21.1984 C278.469283,20.8534 278.440202,20.4894 278.42115,20.1224 L278.117308,14.5274 C277.878647,10.1554 275.673539,7.9524 273.86553,6.8754 C270.116144,4.6354 265.364983,4.9764 258.058744,7.9664 L257.317691,8.2704 L259.902852,13.5524 L260.49048,13.4074 C261.326797,13.2034 262.080886,13.0044 262.770797,12.8214 L262.997425,12.7614 C264.792397,12.2854 266.088989,11.9424 267.217114,11.8814 C267.350483,11.8744 267.478839,11.8704 267.601177,11.8704 C269.14345,11.8704 269.994808,12.4674 270.362827,13.8034 L270.516252,14.3654 L262.851019,15.2624 C260.663961,15.7934 255.463555,17.0504 255.795475,23.1514 C255.994025,26.7594 258.537069,30.9734 265.055125,30.9734 L265.176461,30.9734 C267.526972,30.8254 269.738097,29.7054 271.790783,27.6424 L272.379414,27.0514 L273.370158,30.2504 L279.90125,29.0384 L279.707714,28.2664 Z" id="Fill-9" fill="#000000"></path>
                <path d="M231.048423,9.0709 C230.712493,10.9729 230.358512,13.3319 230.045646,15.4129 L230.014559,15.6219 C229.505148,19.0139 229.166209,21.2239 228.986712,21.7289 C228.669834,22.3309 227.331126,23.1149 226.177932,23.2699 L225.407798,23.3719 L226.558987,30.2969 L227.28199,30.1999 C229.077965,29.9569 234.495973,29.2219 236.113454,24.7329 C236.570721,23.4649 236.969826,20.4009 237.433109,16.8529 L237.522357,16.1829 C237.662746,15.1239 237.802132,14.0619 237.945529,13.0539 L238.008704,12.6049 L243.717518,12.8629 L242.924321,30.3269 L250.672784,30.6779 L251.762804,6.7199 L231.624018,5.8089 L231.048423,9.0709 Z" id="Fill-11" fill="#000000"></path>
                <path d="M43.7042644,17.6456 L36.5293894,1.5896 L27.7641089,2.2636 L40.1985533,27.9016 L39.7122061,29.3506 C39.3622367,30.4636 38.2020228,30.9316 36.3087783,31.0786 C35.6589783,31.1276 34.834695,31.0286 34.2139756,30.7506 L33.5962644,38.2356 C34.4837228,38.4376 36.4431506,38.4506 37.2002478,38.3906 C42.1700144,37.8986 46.0236894,36.3546 47.7063506,30.6896 L57.1976422,-0.0004 L48.3782117,0.6786 L43.7042644,17.6456 Z" id="Fill-13" fill="#000000"></path>
                <path d="M18.8890242,22.1446 C18.9511964,20.6626 17.9233492,19.4056 16.0311075,19.3266 L8.23952417,19.0036 L8.01590472,24.3916 L15.8074881,24.7146 C17.6515964,24.7906 18.8218381,23.7606 18.8890242,22.1446 L18.8890242,22.1446 Z M18.7967686,10.3536 C18.8569353,8.9166 17.8180575,7.8396 16.2416908,7.7736 L8.7208575,7.4616 L8.5132825,12.4476 L16.0331131,12.7596 C17.6104825,12.8246 18.7355992,11.8366 18.7967686,10.3536 L18.7967686,10.3536 Z M0.000701944446,30.5826 L1.24916028,0.6306 L18.2693075,1.3366 C24.2127714,1.5826 26.8901881,5.5616 26.7327519,9.3336 C26.5773214,13.0616 24.1766714,15.4816 21.3127381,15.9916 C24.4895381,16.6196 26.8851742,19.7766 26.7277381,23.5486 C26.5462353,27.9056 23.4596853,31.5556 17.5633519,31.3106 L0.000701944446,30.5826 Z" id="Fill-16" fill="#000000"></path>
                <path d="M55.6127519,25.7198 L60.4591769,20.9388 C62.3443992,23.4398 66.2050936,25.1108 68.8845158,25.5178 C72.5346269,26.0718 74.7216853,25.0848 74.9824075,23.3788 C75.2501492,21.6268 73.8492686,20.5658 69.4119769,19.8918 L63.1275686,18.9378 L64.1905131,11.9788 L70.4739186,12.9328 C73.7560103,13.4308 76.0463547,12.9778 76.2930381,11.3648 C76.5878547,9.4278 74.2754492,8.1828 71.0846103,7.6988 C68.2668047,7.2708 64.9245464,7.7998 62.4537019,9.4058 L59.3791853,3.8458 C62.4115853,1.3348 67.3041381,-0.0442 72.9858769,0.8188 C80.8436436,2.0118 85.2287908,6.1188 84.4546464,11.1888 C83.9061269,14.7838 80.3943992,17.0318 76.6530353,17.0768 C79.8849881,17.8978 83.4719242,21.0358 82.7960519,25.4598 C81.9727714,30.8528 75.8117047,33.7378 68.0933242,32.5658 C62.2230631,31.6748 57.5952436,28.8488 55.6127519,25.7198" id="Fill-18" fill="#000000"></path>
            </g>
        </g>
    </g>
</svg>