<svg width="271" height="39" viewBox="0 0 271 39" xmlns="http://www.w3.org/2000/svg"><title>5662FE2C-089E-433C-AF00-0E8458F5462C</title><g fill="none" fill-rule="evenodd"><path d="M131.055 8.048c-4.714 0-8.534 3.81-8.534 8.51 0 4.7 3.82 8.511 8.534 8.511 4.712 0 8.534-3.81 8.534-8.51 0-4.7-3.822-8.51-8.534-8.51" fill="#0777E8"/><path d="M91.176 25.216l-3.376.338-.663-6.557 3.376-.34c.118-.012.246-.018.382-.018.776 0 2.614.292 2.888 3 .3 2.958-1.724 3.487-2.607 3.577zM109.25 6.18l-12.507 7.859-.249-.136c-1.655-.908-3.718-1.253-6.063-1.02l-3.872.39-.44-4.338-6.923.696 2.266 22.423 6.445-.648.911-.17 3.433-.345c5.777-.582 9.017-4.393 8.455-9.947-.08-.8-.253-1.604-.509-2.39l-.115-.355 3.846-2.414 1.4 13.87 6.925-.696-2.355-23.295-.648.516zM196.594 16.052l.088-.63c.42-2.993 2.316-3.581 4.118-3.762 2.5-.247 4.115.6 4.955 2.846l.227.607-9.388.939zm16.728.84c-.732-7.271-4.57-11.114-11.099-11.114-.58 0-1.186.03-1.805.093-4.733.473-8.056 2.159-9.876 5.01-1.388 2.175-1.917 5.017-1.573 8.447.506 5.035 2.945 11.037 11.689 11.037.704 0 1.448-.04 2.213-.115 1.725-.174 5.513-1.17 8.875-3.204l.683-.411-3.512-5.091-.577.265c-3.774 1.736-5.073 1.867-6.117 1.972-2.524.259-4.17-.708-4.999-2.833l-.243-.624 16.548-1.38-.207-2.051zM167.625 12.568L157.409.648l-6.645-.295-1.293 28.971 7.75.345.739-16.565 9.206 9.742 10.038-8.888-.74 16.564 7.75.344 1.293-28.971-6.644-.295zM260.426 20.53c-1.426 2.771-3.258 3.308-4.028 3.406l-.02.021-.21.001-.168-.013c-2.339.121-2.365-1.118-2.387-1.513-.09-1.662 1.273-2.384 4.856-2.577.49-.028.995-.044 1.5-.054l.84-.016-.383.745zm9.61 7.736c-.633-2.528-1.07-5.104-1.203-7.068a20.75 20.75 0 0 1-.084-1.076l-.304-5.595c-.239-4.372-2.444-6.575-4.252-7.652-3.75-2.24-8.5-1.899-15.806 1.091l-.742.304 2.586 5.282.587-.145c.837-.204 1.59-.403 2.28-.586l.227-.06c1.795-.476 3.092-.819 4.22-.88.133-.007.262-.01.384-.01 1.542 0 2.394.596 2.762 1.932l.153.562-7.665.897c-2.187.531-7.388 1.788-7.056 7.89.199 3.607 2.742 7.821 9.26 7.821h.121c2.35-.148 4.562-1.268 6.615-3.33l.588-.592.99 3.2 6.532-1.213-.194-.772zM221.376 9.07c-.336 1.903-.69 4.262-1.003 6.343l-.03.209c-.51 3.392-.849 5.602-1.029 6.107-.316.602-1.655 1.386-2.808 1.54l-.77.103 1.15 6.925.724-.097c1.796-.243 7.214-.978 8.831-5.467.457-1.268.857-4.332 1.32-7.88l.09-.67c.14-1.06.279-2.121.422-3.13l.063-.448 5.71.258-.794 17.464 7.749.35 1.09-23.957-20.14-.911-.575 3.262zM41.676 22.02L36.012 9.345l-6.92.532 9.816 20.24-.384 1.144c-.276.878-1.192 1.248-2.687 1.364-.513.039-1.163-.04-1.653-.26l-.488 5.91c.7.16 2.247.17 2.845.122 3.923-.388 6.966-1.607 8.294-6.08L52.328 8.09l-6.963.536-3.69 13.394zM19.217 22.145c.062-1.482-.966-2.74-2.858-2.818l-7.792-.323-.223 5.388 7.791.323c1.844.076 3.015-.954 3.082-2.57zm-.092-11.791c.06-1.437-.98-2.514-2.556-2.58l-7.52-.312-.208 4.986 7.52.312c1.577.065 2.702-.923 2.764-2.406zM.328 30.583L1.577.63l17.02.706c5.944.246 8.621 4.225 8.464 7.997-.156 3.728-2.557 6.148-5.42 6.658 3.176.628 5.572 3.785 5.415 7.557-.182 4.357-3.269 8.007-9.165 7.762L.328 30.583zM51.94 27.138l3.88-3.827c1.509 2.002 4.599 3.34 6.744 3.665 2.921.443 4.672-.347 4.88-1.712.215-1.402-.906-2.252-4.458-2.791l-5.03-.764.85-5.57 5.03.764c2.627.398 4.46.036 4.658-1.255.236-1.55-1.615-2.547-4.17-2.935-2.255-.342-4.93.081-6.908 1.367l-2.46-4.45c2.427-2.01 6.343-3.115 10.89-2.424 6.29.955 9.8 4.243 9.18 8.3-.439 2.878-3.25 4.678-6.244 4.714 2.587.657 5.458 3.169 4.917 6.71-.66 4.316-5.59 6.626-11.769 5.687-4.698-.713-8.403-2.975-9.99-5.48" fill="#000"/></g></svg>