<svg xmlns="http://www.w3.org/2000/svg" width="204" height="33" viewBox="0 0 204 33">
    <g fill="none" fill-rule="evenodd">
        <path fill="#000" d="M14.604 25H.214V.389H14.16c4.871 0 7.196 3.173 7.196 6.272 0 3.063-1.882 5.13-4.207 5.646 2.62.406 4.686 2.915 4.686 6.014 0 3.58-2.398 6.679-7.232 6.679zM12.722 9.835c1.292 0 2.177-.849 2.177-2.067 0-1.18-.885-2.029-2.177-2.029H6.56v4.096h6.162zm.222 9.815c1.513 0 2.435-.886 2.435-2.214 0-1.218-.885-2.214-2.435-2.214H6.56v4.428h6.384zm11.844 12.287l.812-5.055c.406.221.96.332 1.402.332 1.292 0 2.103-.258 2.399-.996l.405-.96-7.084-18.08h5.977l4.022 11.291 4.06-11.29h6.014L34.75 27.545c-1.44 3.764-4.133 4.612-7.527 4.686-.517 0-1.845-.11-2.436-.295zm26.309-6.494c-3.727 0-6.679-1.181-8.413-2.841l2.546-3.358c1.66 1.254 4.022 1.845 5.867 1.845 2.03 0 2.952-.554 2.952-1.402 0-.997-1.107-1.55-3.21-1.55h-3.506v-4.243h3.506c2.177 0 2.878-.554 2.878-1.476 0-.775-1.144-1.329-2.805-1.329-2.177 0-3.948.664-5.276 1.919l-2.73-3.247c1.77-1.771 4.464-2.989 7.711-2.989 5.904-.037 8.93 1.919 8.966 4.945 0 2.066-2.14 3.726-4.612 4.132 2.214.148 4.945 1.624 4.945 4.207.036 3.173-3.395 5.35-8.82 5.387zm11.77-18.265h5.683v5.72h5.867c4.317 0 6.494 2.767 6.494 6.05 0 3.248-2.362 6.052-6.494 6.052h-11.55V7.178zM73.42 17.473h-4.87v2.952h4.87c1.07 0 1.735-.628 1.735-1.476 0-.849-.665-1.476-1.735-1.476zM88.512 25V7.178h-5.683V25h5.683zM141.355 25V.389h-8.818l-5.166 13.357L122.24.389h-8.818V25h6.347V8.986L125.969 25h2.804l6.236-16.014V25h6.346zm12.841.443c-5.498 0-9.741-3.58-9.741-9.372 0-5.166 3.911-9.336 9.483-9.336 5.276 0 9.114 3.875 9.114 9.926v1.218h-12.693c.332 1.66 1.881 3.173 4.464 3.173 1.255 0 3.432-.554 4.428-1.513l2.398 3.542c-1.77 1.587-4.723 2.362-7.453 2.362zm3.432-11.254c-.148-1.255-1.07-3.063-3.69-3.063-2.473 0-3.432 1.771-3.653 3.063h7.343zm6.826 11.254c5.24 0 7.527-3.137 8.265-8.967l.553-4.354h4.65V25h5.682V7.178h-15.24l-1.18 8.56c-.516 3.875-1.402 5.056-2.73 5.056v4.649zM203.935 25h-5.682v-1.771c-1.107 1.328-3.247 2.214-5.535 2.214-2.73 0-6.125-1.845-6.125-5.867 0-4.317 3.394-5.72 6.125-5.72 2.361 0 4.465.739 5.535 2.067v-2.14c0-1.55-1.329-2.583-3.616-2.583-1.772 0-3.616.664-5.055 1.882l-2.03-3.58c2.288-1.955 5.35-2.767 8.08-2.767 4.281 0 8.303 1.587 8.303 7.122V25zm-8.856-3.284c1.255 0 2.583-.443 3.174-1.291v-1.587c-.59-.812-1.92-1.255-3.174-1.255-1.512 0-2.84.665-2.84 2.067 0 1.402 1.328 2.066 2.84 2.066z"/>
        <ellipse cx="101.228" cy="15.284" fill="#3487E2" rx="6.589" ry="6.623"/>
    </g>
</svg>
